<?xml version="1.0" encoding="UTF-8"?><svg id="Layer_1" xmlns="http://www.w3.org/2000/svg" xmlns:xlink="http://www.w3.org/1999/xlink" viewBox="0 0 80 80"><defs><style>.cls-1{fill:url(#linear-gradient);}.cls-2{fill:url(#linear-gradient-2);}</style><linearGradient id="linear-gradient" x1="37.73" y1="39.83" x2="75" y2="39.83" gradientTransform="matrix(1, 0, 0, 1, 0, 0)" gradientUnits="userSpaceOnUse"><stop offset=".28" stop-color="#3f3f3f"/><stop offset="1" stop-color="#000"/></linearGradient><linearGradient id="linear-gradient-2" x1="5" y1="40.02" x2="46.7" y2="40.02" xlink:href="#linear-gradient"/></defs><path class="cls-1" d="M46.96,49.34c.78,5.39,4.6,7.57,10.35,7.57s8.32-2.45,8.32-6.12c0-4.03-2.27-5.92-10.61-7.88-12.31-2.91-15.62-7.33-15.62-13.71,0-7.85,5.86-13.42,16.77-13.42,12.1,0,16.96,6.62,17.62,13.29h-9.23c-.57-3.2-2.42-6.39-8.64-6.39-4.5,0-7.15,1.91-7.15,5.51s2.15,4.95,9.86,6.76c13.54,3.22,16.37,8.31,16.37,14.76,0,8.29-6.25,14.17-18.38,14.17s-17.81-5.99-18.89-14.18l9.23-.35Z"/><path class="cls-2" d="M27.18,56.92c-9.53,0-12.65-8.72-12.65-16.99,0-8.8,3.49-16.82,12.38-16.82,5.82,0,8.64,2.81,10.04,6.18,0-.03,0-.06,0-.09,0-3.66,1.27-6.83,3.74-9.16-3.17-2.58-7.61-4.23-13.47-4.23-14.97,0-22.21,11.57-22.21,24.44s7.07,23.97,21.79,23.97c11.52,0,17.97-6.29,19.92-14.87h-9.26c-1.11,3.2-3.47,7.58-10.26,7.58Z"/></svg>