<?xml version="1.0" encoding="UTF-8"?><svg id="Layer_1" xmlns="http://www.w3.org/2000/svg" viewBox="0 0 256 256"><defs><style>.cls-1{fill:#63c;}.cls-2{fill:none;stroke:#63c;stroke-width:10px;}</style></defs><g><path class="cls-2" d="m128,77.8c-9.05,9.05-23.73,9.05-32.78,0-9.05-9.05-9.05-23.73,0-32.78,9.05-9.05,23.73-9.05,32.78,0,5.14,5.14,7.36,12.08,6.67,18.78"/><path class="cls-2" d="m128,77.8c9.05-9.05,23.73-9.05,32.78,0,9.05,9.05,9.05,23.73,0,32.78s-23.73,9.05-32.78,0c-5.14-5.14-7.36-12.08-6.67-18.78"/></g><g><path class="cls-1" d="m81.82,169.16l-.7,2.17c-1.35,4.16-3.93,7.74-7.47,10.35-3.61,2.67-7.89,4.07-12.39,4.07-5.04,0-9.91-1.82-13.71-5.13-3.76-3.28-6.23-7.78-6.95-12.69-.15-1-.22-2.03-.22-3.06s.07-1.98.21-2.94c.69-4.94,3.15-9.47,6.92-12.78,3.8-3.33,8.69-5.17,13.75-5.17,4.62,0,8.99,1.48,12.66,4.27,3.54,2.7,6.17,6.54,7.4,10.8l.61,2.12h-9.16l-.43-1.01c-1.9-4.46-6.25-7.34-11.08-7.34-5.71,0-10.68,4.06-11.81,9.66-.16.78-.24,1.58-.24,2.38s.09,1.67.26,2.48c1.16,5.54,6.12,9.56,11.78,9.56,4.59,0,8.85-2.68,10.85-6.82l.45-.94h9.27Z"/><path class="cls-1" d="m129.73,165.01c0,11.44-9.3,20.74-20.74,20.74s-20.74-9.3-20.74-20.74,9.3-20.74,20.74-20.74,20.74,9.3,20.74,20.74Zm-20.74-12.08c-6.66,0-12.08,5.42-12.08,12.08s5.42,12.08,12.08,12.08,12.08-5.42,12.08-12.08-5.42-12.08-12.08-12.08Z"/><path class="cls-1" d="m174.93,185.75h-10.35l-.48-.8-10.71-17.56c-.27.06-.54.11-.81.16-.09.02-.2.04-.31.05-.05,0-.1.02-.15.02h-.02c-.13.02-.26.04-.4.06-.06,0-.12.02-.18.02-.14.02-.28.03-.42.05-.16.02-.31.03-.44.04h-.07s-.09.01-.09.01c-.13,0-.27.02-.41.02-.03,0-.07,0-.12,0-.11,0-.21,0-.32.01h-.11s-.1,0-.1,0h-.02s-.01,0-.01,0c-.14,0-.27,0-.41,0h-5.46v17.89h-8.84v-26.73h14.3c1.62,0,3.17-.31,4.64-.92.04-.02.08-.03.13-.05,1.36-.59,2.59-1.42,3.66-2.48.81-.8,1.51-1.72,2.06-2.71h-5.84s-18.94,0-18.94,0v-8.84h34.98l.11,1.54c.04.49.05.99.05,1.47,0,1.53-.17,3.06-.5,4.53-.87,3.91-2.84,7.47-5.71,10.3-.27.27-.54.52-.8.75-.09.08-.18.16-.27.24-.01.01-.03.03-.05.04-.11.1-.23.19-.35.29-.09.07-.17.14-.26.21-.05.04-.1.08-.15.11l-.05.04c-.07.05-.14.11-.21.16l11.92,19.54,1.54,2.52Z"/><path class="cls-1" d="m215.65,144.13v8.84h-37.19v-8.84h37.19Zm-28.35,32.78h28.35v8.84h-37.19v-8.84s0-17.83,0-17.83l8.84.05h24.64v8.84h-24.64v8.94Z"/><path class="cls-1" d="m70.65,209.64c.91,1.6,1.4,3.42,1.4,5.27s-.48,3.67-1.4,5.27c-1.89,3.3-5.42,5.35-9.22,5.35h-10.53c-4.66,0-8.59-3.15-9.77-7.44-.24-.86-.36-1.77-.36-2.7h7.28c0,1.25.81,2.32,1.93,2.7h11.46c1.75,0,3.18-1.43,3.18-3.18s-1.43-3.18-3.18-3.18h-10.05c-2.97,0-5.78-1.26-7.77-3.38-.55-.59-1.04-1.25-1.45-1.96-.91-1.6-1.39-3.42-1.39-5.27s.48-3.67,1.39-5.27c1.89-3.3,5.42-5.35,9.22-5.35h10.71c4.66,0,8.59,3.15,9.77,7.44.24.86.36,1.77.36,2.7h-7.28c0-1.25-.81-2.32-1.93-2.7h-11.64c-1.75,0-3.18,1.43-3.18,3.18s1.42,3.18,3.18,3.18h10.05c3.8,0,7.33,2.05,9.22,5.35Z"/><path class="cls-1" d="m109.49,211.56l-.59,1.83c-1.14,3.5-3.31,6.51-6.28,8.71-3.04,2.24-6.64,3.43-10.42,3.43-4.24,0-8.34-1.53-11.53-4.31-3.16-2.76-5.24-6.55-5.84-10.67-.13-.84-.19-1.71-.19-2.58s.06-1.67.18-2.47c.58-4.15,2.65-7.97,5.82-10.75,3.2-2.8,7.31-4.35,11.57-4.35,3.88,0,7.56,1.24,10.65,3.59,2.98,2.27,5.19,5.5,6.23,9.08l.51,1.78h-7.7l-.36-.85c-1.6-3.75-5.26-6.17-9.32-6.17-4.81,0-8.98,3.42-9.93,8.13-.13.65-.2,1.33-.2,2s.07,1.4.22,2.08c.98,4.66,5.15,8.04,9.91,8.04,3.86,0,7.44-2.25,9.12-5.74l.38-.79h7.79Z"/><path class="cls-1" d="m145.03,190.51v7.44h-31.28v-7.44h31.28Zm-23.85,27.57h23.85v7.44h-31.28v-7.44s0-15,0-15l7.44.05h20.73v7.44h-20.73v7.52Z"/><path class="cls-1" d="m178.68,190.45v35.07h-1.78l-5.25-5.25-8.81-8.81-5.09-5.09-7.44-7.44v-7.77s0-.9,0-.9h1.84l19.09,19.09v-18.9h7.44Zm-28.37,15.81l7.44,7.43v11.78h-7.44v-19.21Z"/><path class="cls-1" d="m215.25,190.51v7.44h-31.28v-7.44h31.28Zm-23.85,27.57h23.85v7.44h-31.28v-7.44s0-15,0-15l7.44.05h20.73v7.44h-20.73v7.52Z"/></g></svg>