<?xml version="1.0" encoding="UTF-8"?><svg id="Layer_1" xmlns="http://www.w3.org/2000/svg" xmlns:xlink="http://www.w3.org/1999/xlink" viewBox="0 0 80 80"><defs><style>.cls-1{fill:url(#linear-gradient);}.cls-2{fill:url(#linear-gradient-2);}</style><linearGradient id="linear-gradient" x1="37.6" y1="39.82" x2="77" y2="39.82" gradientTransform="matrix(1, 0, 0, 1, 0, 0)" gradientUnits="userSpaceOnUse"><stop offset=".28" stop-color="#3f3f3f"/><stop offset="1" stop-color="#000"/></linearGradient><linearGradient id="linear-gradient-2" x1="3" y1="40.02" x2="47.09" y2="40.02" xlink:href="#linear-gradient"/></defs><path class="cls-1" d="M47.36,49.87c.83,5.69,4.86,8.01,10.94,8.01s8.8-2.59,8.8-6.47c0-4.26-2.4-6.26-11.21-8.33-13.01-3.08-16.51-7.75-16.51-14.49,0-8.3,6.19-14.19,17.73-14.19,12.79,0,17.93,7,18.63,14.05h-9.76c-.61-3.38-2.55-6.76-9.14-6.76-4.75,0-7.56,2.02-7.56,5.83s2.27,5.24,10.43,7.15c14.31,3.4,17.3,8.78,17.3,15.6,0,8.77-6.6,14.98-19.43,14.98s-18.82-6.33-19.97-14.99l9.76-.37Z"/><path class="cls-2" d="M26.45,57.89c-10.08,0-13.37-9.22-13.37-17.96,0-9.31,3.69-17.78,13.08-17.78,6.15,0,9.14,2.97,10.61,6.54,0-.03,0-.06,0-.1,0-3.87,1.35-7.22,3.96-9.69-3.35-2.73-8.04-4.47-14.24-4.47C10.65,14.43,3,26.66,3,40.27s7.47,25.33,23.03,25.33c12.17,0,19-6.65,21.05-15.72h-9.79c-1.17,3.38-3.67,8.01-10.85,8.01Z"/></svg>