<?xml version="1.0" encoding="UTF-8"?><svg id="Layer_1" xmlns="http://www.w3.org/2000/svg" xmlns:xlink="http://www.w3.org/1999/xlink" viewBox="0 0 256 256"><defs><style>.cls-1{fill:url(#linear-gradient);}.cls-2{fill:#01c1e5;}.cls-3{fill:url(#linear-gradient-2);}</style><linearGradient id="linear-gradient" x1="121.84" y1="127.53" x2="223" y2="127.53" gradientTransform="matrix(1, 0, 0, 1, 0, 0)" gradientUnits="userSpaceOnUse"><stop offset=".28" stop-color="#3f3f3f"/><stop offset="1" stop-color="#000"/></linearGradient><linearGradient id="linear-gradient-2" x1="33" y1="128.04" x2="146.19" y2="128.04" xlink:href="#linear-gradient"/></defs><g><path class="cls-1" d="M146.89,153.35c2.12,14.62,12.49,20.56,28.1,20.56s22.58-6.65,22.58-16.61c0-10.93-6.15-16.06-28.79-21.39-33.4-7.9-42.4-19.9-42.4-37.21,0-21.32,15.9-36.43,45.53-36.43,32.85,0,46.03,17.96,47.83,36.06h-25.06c-1.56-8.67-6.56-17.35-23.46-17.35-12.21,0-19.41,5.18-19.41,14.96s5.83,13.45,26.77,18.36c36.75,8.73,44.42,22.55,44.42,40.06,0,22.51-16.95,38.45-49.89,38.45s-48.33-16.26-51.27-38.5l25.06-.96Z"/><path class="cls-3" d="M93.2,173.93c-25.88,0-34.33-23.66-34.33-46.12,0-23.9,9.47-45.66,33.59-45.66,15.79,0,23.46,7.62,27.24,16.79,0-.08,0-.16,0-.25,0-9.94,3.46-18.53,10.16-24.87-8.6-7.01-20.65-11.48-36.56-11.48-40.64,0-60.29,31.39-60.29,66.34s19.19,65.05,59.14,65.05c31.26,0,48.79-17.06,54.06-40.37h-25.13c-3,8.68-9.42,20.56-27.86,20.56Z"/></g><path class="cls-2" d="M146.89,153.35h-25.66c1.25,9.45,4.74,19.31,11.73,25.24,7.05-6.12,11.72-15.46,13.93-25.24Z"/></svg>