<?xml version="1.0" encoding="UTF-8"?><svg id="Layer_1" xmlns="http://www.w3.org/2000/svg" viewBox="0 0 256 256"><defs><style>.cls-1{fill:#002f40;}.cls-2{fill:#092126;}</style></defs><path class="cls-2" d="M176.26,153.81v-.42c15.68-2.21,27.47-17.47,27.47-33.15v-.21c0-19.48-12.91-33.38-32.96-36.96l-1.1,1.12c-4.52,4.92-9.06,9.83-13.63,14.7,18.19,.06,28.54,8.26,28.54,23.15v.21c0,16.42-12.21,25.36-34.62,25.36h-28.41v-13.01c-6.26,6.3-12.58,12.55-18.94,18.75v80.66h57.35c32.31,0,51.46-15.89,51.46-42.62v-.21c0-20.1-13.26-34.83-35.15-37.36Zm15.68,36.83c0,17.47-12.1,26.62-34.83,26.62h-35.57v-53.35h33.78c24.2,0,36.62,8.94,36.62,26.52v.21Z"/><path class="cls-1" d="M92.94,106.61l16.84,3.68c13.46,2.99,21.86,7.17,26.12,13.36,4.78-4.73,9.58-9.43,14.42-14.1-7.02-8.06-18.66-13.59-35.81-17.36l-16.84-3.68c-19.78-4.31-28.94-12.1-28.94-24.52v-.11c0-14.63,13.26-24.31,33.57-24.41,19.26,0,32.2,9.16,34.52,24.62l.21,1.47h18.94l-.11-1.58c-1.68-24.83-23.36-41.99-53.04-41.99-31.25,0-53.35,17.47-53.46,42.41v.11c0,22.2,13.89,35.57,43.57,42.09Z"/><path class="cls-1" d="M83.21,173.66c4.89-5.27,9.82-10.51,14.77-15.72-19.38-1.25-32.2-10.32-34.25-24.47l-.21-1.47h-18.94l.11,1.47c1.51,20.77,16.01,35.22,38.52,40.19Z"/></svg>