<?xml version="1.0" encoding="UTF-8"?><svg id="Layer_1" xmlns="http://www.w3.org/2000/svg" viewBox="0 0 256 256"><defs><style>.cls-1{fill:#002f40;}.cls-2{fill:#d98566;}.cls-3{fill:#092126;}</style></defs><path class="cls-3" d="M176.5,117h-46v22h46c18.2,0,33,14.8,33,33s-14.8,33-33,33h-46v22h46c30.33,0,55-24.67,55-55s-24.67-55-55-55Z"/><rect class="cls-1" x="79.5" y="117" width="42" height="22"/><polygon class="cls-1" points="121.5 205 49.5 205 29.5 227 121.5 227 121.5 205"/><path class="cls-1" d="M121.5,117h-42c-18.2,0-33-14.8-33-33s14.8-33,33-33h28l20-22h-48c-30.33,0-55,24.67-55,55s24.67,55,55,55h42v-22Z"/><path class="cls-3" d="M176.5,29h-42v22h42c18.2,0,33,14.8,33,33s-14.8,33-33,33h-46v22h46c30.33,0,55-24.67,55-55s-24.67-55-55-55Z"/><path class="cls-2" d="M209.46,128c-9.19-6.9-20.61-11-32.96-11h-46v22h46c12.35,0,23.77-4.1,32.96-11Z"/></svg>