<svg id="Layer_1" data-name="Layer 1" xmlns="http://www.w3.org/2000/svg" viewBox="0 0 256 256"><defs><style>.cls-1{fill:#092126;}.cls-2{fill:#002f40;}.cls-3{fill:#fff;}.cls-4{fill:#03495a;}</style></defs><path class="cls-1" d="M176.16,148.61v-.34c12.52-1.76,21.92-13.94,21.92-26.46v-.17c0-15.55-10.3-26.64-26.3-29.5l-12.45,12.62h.53c14.62,0,22.94,6.55,22.94,18.48v.17c0,13.1-9.75,20.24-27.64,20.24H132.48V132l-15.12,15.33v65.29h45.78c25.79,0,41.08-12.68,41.08-34v-.16C204.22,162.38,193.63,150.62,176.16,148.61ZM188.68,178c0,13.94-9.66,21.25-27.81,21.25H132.48V156.67h27c19.33,0,29.24,7.14,29.24,21.17Z"/><path class="cls-2" d="M95.28,110.92l13.44,2.94c15.68,3.49,22.77,9,23.53,18.55l12.94-12.73c-4.46-10.06-14.86-16.35-32.69-20.27L99.06,96.47C83.27,93,76,86.81,76,76.9v-.08c0-11.68,10.59-19.41,26.8-19.49,15.37,0,25.7,7.31,27.55,19.66l.17,1.17H145.6l-.09-1.26c-1.34-19.82-18.65-33.51-42.33-33.51-25,0-42.59,13.94-42.67,33.85v.08C60.51,95.05,71.59,105.71,95.28,110.92Z"/><path class="cls-2" d="M110,154.34a51.81,51.81,0,0,1-6.11.35c-17.56,0-29.32-7.48-31.08-19.66l-.17-1.18H57.48l.09,1.18c1.36,18.78,16,31.09,38.21,33.25Z"/><path class="cls-3" d="M202.28,57.62a1369.22,1369.22,0,0,0-150.5,150.5,1365.73,1365.73,0,0,0,150.5-150.5Z"/><path class="cls-4" d="M181.05,78.86A1373.15,1373.15,0,0,1,72.88,187,1371.45,1371.45,0,0,1,181.05,78.86"/></svg>