<?xml version="1.0" encoding="UTF-8"?><svg id="Layer_1" xmlns="http://www.w3.org/2000/svg" viewBox="0 0 256 256"><defs><style>.cls-1{fill:#1eb6c3;}</style></defs><g id="Group_10"><path id="Path_8" class="cls-1" d="m219.96,164.53c0,10.51-3.88,18.8-11.64,24.89-7.76,6.09-18.13,9.13-31.1,9.13-12.1,0-21.37-2.47-27.82-7.4-6.45-4.94-9.67-11.66-9.67-20.18,0-8.51,2.98-15.1,8.95-19.76,5.97-4.66,16.79-9.25,32.47-13.79,19.66-5.65,33.97-12.59,42.92-20.83,8.95-8.24,13.43-18.41,13.43-30.5,0-13.69-5.47-25.01-16.42-33.97-10.94-8.95-25.17-13.43-42.68-13.43-11.94,0-22.58,2.31-31.94,6.92-7.54,3.72-13.69,8.58-18.47,14.59-4.8-5.99-10.95-10.86-18.47-14.59-9.35-4.62-20-6.92-31.94-6.92-17.51,0-31.74,4.48-42.68,13.43-10.94,8.95-16.42,20.28-16.42,33.97,0,12.1,4.48,22.27,13.43,30.5,8.95,8.24,23.26,15.18,42.92,20.83,15.68,4.54,26.5,9.13,32.47,13.79,5.97,4.66,8.95,11.24,8.95,19.76,0,8.52-3.22,15.24-9.67,20.18-6.45,4.94-15.72,7.4-27.82,7.4-12.97,0-23.34-3.04-31.1-9.13-7.76-6.09-11.64-14.39-11.64-24.89H13c0,10.11,2.81,19.14,8.42,27.1,5.61,7.96,13.59,14.23,23.94,18.8,10.35,4.58,21.49,6.86,33.43,6.86,18.39,0,33.07-4.24,44.06-12.71,1.83-1.41,3.56-2.96,5.16-4.62,1.6,1.67,3.33,3.21,5.16,4.62,10.98,8.48,25.67,12.71,44.06,12.71,11.94,0,23.08-2.29,33.43-6.86,10.35-4.58,18.33-10.84,23.94-18.8,5.61-7.96,8.42-16.99,8.42-27.1h-23.04Zm-91.96-23.91c-3.44-3.66-7.68-7.01-12.74-10.05-8.16-4.9-19.46-9.38-33.91-13.44s-24.67-8.55-30.68-13.46c-6.01-4.9-9.02-10.9-9.01-18,0-8.85,3.16-15.77,9.49-20.75,6.33-4.98,15.14-7.48,26.44-7.48,12.18,0,21.61,3.02,28.3,9.05,5.68,5.12,8.94,11.87,9.79,20.25,5.15-6.81,14.84-8.15,21.65-3,1.13.86,2.14,1.87,3,3,.86-8.38,4.12-15.13,9.79-20.25,6.69-6.03,16.12-9.05,28.29-9.05,11.3,0,20.12,2.49,26.45,7.48,6.33,4.98,9.49,11.9,9.49,20.75,0,7.1-3,13.1-9.01,18-6.01,4.9-16.24,9.39-30.68,13.46-14.45,4.07-25.75,8.55-33.91,13.44-5.06,3.04-9.31,6.39-12.74,10.05"/><path id="Path_9" class="cls-1" d="m128,84.3c6.52,0,11.8,5.28,11.8,11.8s-5.28,11.8-11.8,11.8-11.8-5.28-11.8-11.8h0c0-6.52,5.28-11.8,11.8-11.8"/><circle id="Ellipse_5" class="cls-1" cx="128" cy="96.1" r="11.8"/></g></svg>