<svg id="Layer_1" data-name="Layer 1" xmlns="http://www.w3.org/2000/svg" viewBox="0 0 256 256"><defs><style>.cls-1{fill:#01c1e5;}</style></defs><g id="Group_10" data-name="Group 10"><path id="Path_8" data-name="Path 8" class="cls-1" d="M203.16,157.86q0,12.88-9.51,20.35t-25.42,7.46q-14.83,0-22.74-6t-7.9-16.49q0-10.44,7.32-16.15t26.54-11.27q24.11-6.93,35.08-17a32.53,32.53,0,0,0,11-24.93Q217.51,77,204.09,66T169.2,55a58.25,58.25,0,0,0-26.1,5.66A43.64,43.64,0,0,0,128,72.59a44.18,44.18,0,0,0-15.1-11.93A58.28,58.28,0,0,0,86.8,55Q65.32,55,51.91,66T38.49,93.75a32.52,32.52,0,0,0,11,24.93q11,10.09,35.08,17,19.23,5.56,26.55,11.27t7.32,16.15q0,10.44-7.91,16.49t-22.74,6q-15.9,0-25.42-7.46t-9.52-20.35H34A37.47,37.47,0,0,0,40.88,180q6.88,9.77,19.57,15.37A66.59,66.59,0,0,0,87.77,201q22.55,0,36-10.4a36.87,36.87,0,0,0,4.22-3.78,36.87,36.87,0,0,0,4.22,3.78q13.47,10.4,36,10.4a66.59,66.59,0,0,0,27.32-5.62q12.69-5.61,19.57-15.37A37.45,37.45,0,0,0,222,157.86ZM128,138.31a48.08,48.08,0,0,0-10.42-8.21q-10-6-27.71-11t-25.08-11q-7.37-6-7.37-14.71,0-10.86,7.76-17T86.8,70.32q14.92,0,23.12,7.4,7,6.27,8,16.55a12.63,12.63,0,0,1,20.14,0q1.05-10.26,8-16.55,8.19-7.39,23.12-7.39,13.86,0,21.62,6.11t7.76,17q0,8.7-7.37,14.71t-25.08,11q-17.72,5-27.71,11A48.08,48.08,0,0,0,128,138.31"/><path id="Path_9" data-name="Path 9" class="cls-1" d="M128,92.28a9.65,9.65,0,1,1-9.65,9.65h0A9.65,9.65,0,0,1,128,92.28"/><circle id="Ellipse_5" data-name="Ellipse 5" class="cls-1" cx="128" cy="101.93" r="9.65"/></g></svg>