<?xml version="1.0" encoding="UTF-8"?><svg id="Layer_1" xmlns="http://www.w3.org/2000/svg" viewBox="0 0 256 256"><defs><style>.cls-1{fill:#fff;}.cls-2{fill:#1eb6c3;}</style></defs><rect class="cls-1" y="0" width="256" height="256"/><g><path class="cls-2" d="m181.89,115.78h-51.11v24.44h51.11c20.22,0,36.67,16.45,36.67,36.67s-16.45,36.67-36.67,36.67h-51.11v24.44h51.11c33.7,0,61.11-27.41,61.11-61.11s-27.41-61.11-61.11-61.11Z"/><rect class="cls-2" x="74.11" y="115.78" width="46.67" height="24.44"/><polygon class="cls-2" points="120.78 213.56 40.78 213.56 18.56 238 120.78 238 120.78 213.56"/><path class="cls-2" d="m120.78,115.78h-46.67c-20.22,0-36.67-16.45-36.67-36.67s16.45-36.67,36.67-36.67h31.11l22.22-24.44h-53.33c-33.7,0-61.11,27.41-61.11,61.11s27.41,61.11,61.11,61.11h46.67v-24.44Z"/><path class="cls-2" d="m181.89,18h-46.67v24.44h46.67c20.22,0,36.67,16.45,36.67,36.67s-16.45,36.67-36.67,36.67h-51.11v24.44h51.11c33.7,0,61.11-27.41,61.11-61.11s-27.41-61.11-61.11-61.11Z"/><path class="cls-2" d="m218.51,128c-10.21-7.67-22.9-12.22-36.62-12.22h-51.11v24.44h51.11c13.73,0,26.41-4.55,36.62-12.22Z"/></g></svg>