<?xml version="1.0" encoding="UTF-8"?><svg id="Layer_1" xmlns="http://www.w3.org/2000/svg" viewBox="0 0 256 256"><defs><style>.cls-1{fill:#fff;}.cls-2{fill:#d4145a;}</style></defs><rect class="cls-2" width="256" height="256"/><path class="cls-1" d="M134.14,152.63c-28.93,0-52.38-23.45-52.38-52.38s23.45-52.38,52.38-52.38c.98,0,1.95,.03,2.92,.08l-21.78-21.78L41.21,100.25l74.07,74.07,21.78-21.78c-.97,.05-1.94,.08-2.92,.08Z"/><path class="cls-1" d="M128.63,61.24c21.54,0,39.01,17.47,39.01,39.01s-17.47,39.01-39.01,39.01c-.73,0-1.45-.02-2.17-.06l16.22,16.22,55.17-55.17-55.17-55.17-16.22,16.22c.72-.04,1.44-.06,2.17-.06Z"/><path class="cls-1" d="M128,76.82c-12.94,0-23.43,10.49-23.43,23.43s10.49,23.43,23.43,23.43,23.43-10.49,23.43-23.43-10.49-23.43-23.43-23.43Zm0,35.05c-6.42,0-11.62-5.2-11.62-11.62s5.2-11.62,11.62-11.62,11.62,5.2,11.62,11.62-5.2,11.62-11.62,11.62Z"/><g><path class="cls-1" d="M20.56,209.78c0-7.59,5.83-13.03,13.68-13.03,4.36,0,7.99,1.58,10.37,4.46l-3.74,3.46c-1.69-1.94-3.82-2.95-6.33-2.95-4.72,0-8.06,3.31-8.06,8.06s3.35,8.06,8.06,8.06c2.52,0,4.64-1.01,6.33-2.99l3.74,3.46c-2.38,2.92-6.01,4.5-10.4,4.5-7.81,0-13.64-5.43-13.64-13.03Z"/><path class="cls-1" d="M68.04,217.7v4.68h-19.51v-25.2h19.04v4.68h-13.25v5.47h11.7v4.54h-11.7v5.83h13.71Z"/><path class="cls-1" d="M95.8,197.18v25.2h-4.79l-12.56-15.3v15.3h-5.76v-25.2h4.82l12.53,15.3v-15.3h5.76Z"/><path class="cls-1" d="M106.99,201.93h-8.06v-4.75h21.96v4.75h-8.06v20.45h-5.83v-20.45Z"/><path class="cls-1" d="M143.53,217.7v4.68h-19.51v-25.2h19.04v4.68h-13.25v5.47h11.7v4.54h-11.7v5.83h13.71Z"/><path class="cls-1" d="M164.23,222.38l-4.86-7.02h-5.36v7.02h-5.83v-25.2h10.91c6.73,0,10.94,3.49,10.94,9.14,0,3.78-1.91,6.55-5.18,7.96l5.65,8.1h-6.26Zm-5.47-20.45h-4.75v8.78h4.75c3.56,0,5.36-1.66,5.36-4.39s-1.8-4.39-5.36-4.39Z"/><path class="cls-1" d="M184.61,211.29v-14.11h5.83v13.89c0,4.79,2.09,6.77,5.62,6.77s5.62-1.98,5.62-6.77v-13.89h5.76v14.11c0,7.42-4.25,11.52-11.41,11.52s-11.41-4.1-11.41-11.52Z"/><path class="cls-1" d="M228.71,222.38l-6.08-8.75-5.98,8.75h-6.7l9.32-12.81-8.85-12.38h6.62l5.79,8.17,5.69-8.17h6.3l-8.78,12.17,9.4,13.03h-6.73Z"/></g></svg>