<?xml version="1.0" encoding="UTF-8"?><svg id="Layer_1" xmlns="http://www.w3.org/2000/svg" xmlns:xlink="http://www.w3.org/1999/xlink" viewBox="0 0 2000 400"><defs><style>.cls-1,.cls-2,.cls-3,.cls-4,.cls-5{opacity:.1;}.cls-1,.cls-6{fill:#f9f9f9;}.cls-7{fill:url(#linear-gradient);}.cls-2{fill:url(#linear-gradient-6);}.cls-3{fill:url(#linear-gradient-4);}.cls-4{fill:url(#linear-gradient-5);}.cls-8{fill:#6940cc;}.cls-9{fill:#8c29cc;}.cls-10{fill:#b848ed;}.cls-11{fill:#359cef;}.cls-12{fill:#0e1101;}.cls-13{fill:#878787;}.cls-14{fill:#48dbfb;}.cls-15{fill:#4c22b2;}.cls-16{fill:url(#linear-gradient-3);}.cls-17{fill:url(#linear-gradient-2);}</style><linearGradient id="linear-gradient" x1="-8535.1" y1="122.2" x2="-8707.85" y2="294.96" gradientTransform="translate(-8413.34) rotate(-180) scale(1 -1)" gradientUnits="userSpaceOnUse"><stop offset="0" stop-color="#fff"/><stop offset="1" stop-color="#ebeaea"/></linearGradient><linearGradient id="linear-gradient-2" x1="-8854.03" y1="122.2" x2="-9026.79" y2="294.96" xlink:href="#linear-gradient"/><linearGradient id="linear-gradient-3" x1="-9175.94" y1="122.2" x2="-9348.7" y2="294.96" xlink:href="#linear-gradient"/><linearGradient id="linear-gradient-4" x1="-9496.16" y1="122.2" x2="-9668.92" y2="294.96" xlink:href="#linear-gradient"/><linearGradient id="linear-gradient-5" x1="-9816.58" y1="122.2" x2="-9989.33" y2="294.96" xlink:href="#linear-gradient"/><linearGradient id="linear-gradient-6" x1="-10137.92" y1="122.2" x2="-10310.68" y2="294.96" xlink:href="#linear-gradient"/></defs><g><polygon class="cls-12" points="79.75 203.58 79.75 203.11 79.75 203.11 79.75 203.58"/><path class="cls-12" d="M81.09,184.62l.14-.92s.02-.03,.04-.03,.03,.02,.03,.04h0l-.14,.92s-.02,.03-.04,.03c-.02,0-.03-.02-.03-.04Z"/><path class="cls-12" d="M85.3,165.62l.27-.89s.05-.06,.08-.04c.04,.01,.06,.05,.04,.08h0l-.27,.89s-.05,.05-.08,.04c-.03-.01-.05-.05-.04-.08Z"/><path class="cls-12" d="M92.33,147.46l.4-.84s.08-.07,.13-.05,.07,.08,.05,.13h0l-.4,.83s-.08,.07-.13,.05c-.05-.02-.07-.08-.05-.13Z"/><path class="cls-12" d="M101.99,130.55l.52-.77c.04-.06,.12-.08,.19-.04,.06,.04,.08,.12,.04,.19h0l-.52,.77c-.04,.06-.12,.08-.18,.04-.06-.04-.08-.12-.04-.18Z"/><path class="cls-12" d="M114.06,115.26l.63-.68c.06-.07,.17-.07,.24,0s.07,.17,0,.24h0l-.63,.68c-.06,.07-.17,.07-.23,0-.07-.06-.07-.17,0-.23Z"/><path class="cls-12" d="M128.27,101.93l.72-.58c.09-.07,.21-.06,.28,.03s.06,.21-.03,.28h0l-.72,.58c-.09,.07-.21,.06-.28-.03-.07-.09-.05-.21,.03-.28Z"/><path class="cls-12" d="M144.31,90.86l.8-.47c.11-.06,.25-.03,.32,.08,.06,.11,.03,.25-.08,.32h0l-.8,.46c-.11,.06-.25,.03-.32-.08-.06-.11-.03-.25,.08-.32Z"/><path class="cls-12" d="M161.82,82.29l.86-.34c.14-.05,.29,.01,.34,.15,.05,.14-.01,.29-.15,.34h0l-.86,.34c-.14,.05-.29-.01-.34-.15-.05-.14,.01-.29,.15-.34Z"/><path class="cls-12" d="M180.43,76.45l.91-.21c.16-.04,.32,.06,.36,.22,.04,.16-.06,.32-.22,.36h0l-.9,.2c-.16,.04-.32-.06-.36-.22-.04-.16,.06-.32,.22-.36Z"/><path class="cls-12" d="M199.7,73.46l.93-.07c.18-.01,.34,.12,.36,.31,.01,.18-.12,.34-.31,.36h0l-.92,.07h0c-.18,.01-.34-.12-.35-.31-.01-.18,.12-.34,.3-.35Z"/><path class="cls-12" d="M219.21,73.36l.93,.07c.2,.01,.35,.19,.34,.39-.01,.2-.19,.35-.39,.34h0l-.92-.07h0c-.2-.02-.35-.19-.34-.39,.02-.2,.19-.35,.39-.34Z"/><path class="cls-12" d="M238.53,76.14l.91,.2c.21,.05,.35,.26,.3,.48-.05,.21-.26,.35-.48,.3h0l-.9-.21h0c-.21-.05-.35-.26-.3-.48,.05-.21,.26-.35,.47-.3Z"/><path class="cls-12" d="M257.22,81.79l.87,.34c.22,.09,.33,.34,.24,.56-.09,.22-.34,.33-.56,.24h0l-.86-.34h0c-.22-.09-.33-.34-.24-.56,.09-.22,.34-.33,.56-.24Z"/><path class="cls-12" d="M274.85,90.18l.81,.46c.22,.13,.3,.41,.17,.63-.13,.22-.41,.3-.63,.17h0l-.8-.47h0c-.22-.13-.3-.41-.17-.63,.13-.22,.41-.3,.63-.17Z"/><path class="cls-12" d="M291.03,101.1l.73,.58c.22,.17,.25,.48,.08,.7-.17,.22-.48,.25-.7,.08h0l-.72-.58h0c-.21-.17-.25-.49-.08-.7s.48-.25,.7-.08Z"/><path class="cls-12" d="M305.42,114.32l.63,.68c.2,.21,.19,.55-.03,.75-.21,.2-.55,.19-.75-.03h0l-.63-.68h0c-.2-.22-.19-.55,.03-.75,.21-.2,.55-.19,.75,.03Z"/><path class="cls-12" d="M317.69,129.52l.53,.77c.18,.26,.11,.61-.15,.78s-.61,.11-.78-.15h0l-.52-.77h0c-.17-.26-.11-.61,.15-.78s.61-.11,.78,.15Z"/><path class="cls-12" d="M327.57,146.38l.41,.84c.14,.3,.02,.65-.28,.8-.3,.14-.65,.02-.8-.28h0l-.4-.84h0c-.14-.3-.02-.66,.28-.8,.3-.14,.65-.02,.79,.28Z"/><path class="cls-12" d="M334.82,164.54l.28,.89c.1,.33-.08,.69-.42,.79-.33,.1-.69-.08-.79-.42h0l-.27-.89h0c-.1-.34,.08-.69,.42-.79,.33-.1,.68,.08,.78,.41Z"/><path class="cls-12" d="M339.26,183.59l.14,.92c.05,.36-.19,.7-.56,.75-.36,.05-.7-.19-.75-.56h0l-.14-.92h0c-.05-.37,.2-.7,.56-.76,.36-.05,.7,.19,.75,.56Z"/><path class="cls-12" d="M340.81,203.11v.47c0,.38-.31,.7-.69,.7-.38,0-.7-.31-.7-.69h0v-.47h0c0-.39,.31-.7,.69-.7s.69,.31,.69,.69Z"/></g><g><polygon class="cls-12" points="440.28 114.53 440.61 114.2 440.61 114.2 440.61 114.2 440.61 114.2 440.28 114.53"/><path class="cls-12" d="M454.62,102.05l.74-.55s.06-.01,.08,.01c.02,.03,.01,.06-.01,.08h0l-.75,.55s-.06,.01-.08-.01c-.02-.02-.01-.06,.01-.08Z"/><path class="cls-12" d="M471.03,91.57l.82-.44c.05-.03,.12,0,.15,.05,.03,.05,0,.12-.05,.15h0l-.82,.43c-.05,.03-.12,0-.15-.04-.03-.05,0-.12,.04-.15Z"/><path class="cls-12" d="M488.83,83.67l.88-.31c.09-.03,.18,.02,.21,.1,.03,.09-.02,.18-.1,.21h0l-.88,.3c-.09,.03-.18-.01-.21-.1-.03-.09,.02-.18,.1-.21Z"/><path class="cls-12" d="M507.63,78.53l.91-.17c.12-.02,.24,.06,.26,.18,.02,.12-.06,.24-.18,.26h0l-.91,.17c-.12,.02-.23-.05-.26-.17-.02-.12,.06-.23,.17-.26Z"/><path class="cls-12" d="M526.99,76.23l.93-.04c.15,0,.28,.11,.29,.27,0,.15-.11,.28-.27,.29h0l-.92,.03c-.15,0-.28-.11-.29-.26,0-.15,.11-.28,.26-.29Z"/><path class="cls-12" d="M546.48,76.83l.92,.1c.18,.02,.31,.18,.29,.37-.02,.18-.18,.31-.37,.29h0l-.92-.11h0c-.18-.02-.31-.18-.29-.37,.02-.18,.18-.31,.36-.29Z"/><path class="cls-12" d="M565.68,80.32l.9,.24c.21,.05,.33,.27,.28,.47-.05,.21-.27,.33-.47,.28h0l-.89-.24h0c-.21-.06-.33-.27-.27-.47,.06-.2,.27-.33,.47-.27Z"/><path class="cls-12" d="M584.15,86.63l.85,.37c.22,.1,.33,.36,.23,.58-.1,.22-.36,.33-.58,.23h0l-.85-.37h0c-.22-.1-.32-.36-.23-.58,.1-.22,.36-.32,.58-.23Z"/><path class="cls-12" d="M601.47,95.65l.79,.49c.23,.15,.3,.45,.16,.69-.15,.23-.45,.3-.69,.16h0l-.78-.5h0c-.23-.15-.3-.45-.15-.69,.15-.23,.45-.3,.68-.15Z"/><path class="cls-12" d="M617.25,107.17l.71,.61c.23,.2,.26,.55,.06,.78-.2,.23-.55,.26-.78,.06h0l-.7-.61h0c-.23-.2-.25-.55-.06-.78,.2-.23,.54-.25,.77-.06Z"/><path class="cls-12" d="M631.16,120.9l.61,.7c.22,.25,.19,.64-.06,.86s-.64,.19-.86-.06h0l-.6-.71h0c-.22-.26-.19-.64,.07-.86,.25-.22,.63-.19,.85,.06Z"/><path class="cls-12" d="M642.89,136.54l.5,.79c.2,.31,.1,.72-.21,.92-.31,.2-.72,.1-.92-.21h0l-.49-.79h0c-.19-.31-.1-.72,.21-.92,.31-.19,.71-.1,.91,.21Z"/><path class="cls-12" d="M652.15,153.78l.38,.85c.16,.36,0,.79-.37,.95-.36,.16-.79,0-.95-.37h0l-.37-.86h0c-.16-.37,0-.79,.37-.95,.36-.16,.78,0,.94,.37Z"/><path class="cls-12" d="M658.72,172.21l.24,.9c.11,.41-.13,.84-.55,.95-.41,.11-.84-.13-.95-.55h0l-.24-.9h0c-.11-.42,.14-.84,.55-.95,.41-.11,.83,.14,.94,.54Z"/><path class="cls-12" d="M662.47,191.43l.11,.93c.05,.46-.27,.87-.73,.92-.46,.05-.87-.27-.92-.73h0l-.1-.93h0c-.05-.46,.28-.87,.73-.92,.45-.05,.86,.28,.91,.73Z"/><path class="cls-12" d="M663.32,210.99l-.03,.93c-.02,.49-.43,.87-.91,.85-.49-.02-.87-.43-.85-.91h0l.04-.93h0c.02-.49,.43-.87,.92-.85,.48,.02,.86,.43,.85,.91Z"/><path class="cls-12" d="M661.27,230.48l-.17,.92c-.09,.51-.58,.85-1.1,.75-.51-.09-.85-.58-.75-1.1h0l.17-.92h0c.1-.51,.59-.85,1.1-.75,.51,.1,.84,.58,.75,1.09Z"/><path class="cls-12" d="M656.33,249.45l-.31,.88c-.18,.52-.75,.79-1.27,.62-.52-.18-.79-.75-.62-1.27h0l.31-.88h0c.18-.52,.75-.8,1.27-.61,.52,.18,.79,.74,.61,1.26Z"/><path class="cls-12" d="M648.61,267.48l-.43,.83c-.27,.51-.9,.71-1.42,.44-.51-.27-.71-.9-.44-1.42h0l.43-.82h0c.27-.52,.91-.71,1.42-.44,.51,.27,.7,.9,.44,1.41Z"/><path class="cls-12" d="M638.27,284.15l-.55,.75c-.36,.49-1.05,.6-1.55,.24-.49-.36-.6-1.05-.24-1.55h0l.55-.75h0c.36-.49,1.05-.6,1.54-.23,.49,.36,.59,1.05,.23,1.54Z"/><path class="cls-12" d="M625.54,299.12l-.33,.33c-.45,.45-1.18,.46-1.64,0-.45-.45-.46-1.18,0-1.64h0l.33-.33h0c.45-.45,1.19-.45,1.64,0,.45,.45,.45,1.18,0,1.63Z"/></g><g><polygon class="cls-12" points="852.74 80.4 853.2 80.4 853.2 80.4 853.2 80.4 852.74 80.4"/><path class="cls-12" d="M871.69,81.71l.92,.13s.05,.03,.05,.06c0,.03-.03,.05-.06,.05h0l-.92-.14s-.05-.03-.05-.06c0-.03,.03-.05,.06-.05Z"/><path class="cls-12" d="M890.71,85.91l.89,.27c.06,.02,.09,.08,.07,.14s-.08,.09-.14,.07h0l-.88-.28c-.06-.02-.09-.08-.07-.14,.02-.06,.08-.09,.14-.07Z"/><path class="cls-12" d="M908.88,92.91l.84,.4c.08,.04,.12,.14,.08,.22-.04,.08-.14,.12-.22,.08h0l-.83-.41c-.08-.04-.12-.14-.08-.22,.04-.08,.14-.12,.22-.08Z"/><path class="cls-12" d="M925.81,102.56l.77,.52c.1,.07,.13,.21,.06,.31-.07,.1-.21,.13-.31,.06h0l-.76-.53c-.1-.07-.13-.2-.06-.3,.07-.1,.2-.13,.3-.06Z"/><path class="cls-12" d="M941.12,114.63l.68,.63c.11,.1,.12,.28,.02,.39-.1,.11-.28,.12-.39,.02h0l-.68-.63c-.11-.1-.12-.28-.02-.39,.1-.11,.28-.12,.39-.02Z"/><path class="cls-12" d="M954.48,128.84l.58,.72c.12,.14,.09,.35-.05,.47-.14,.11-.35,.09-.47-.05h0l-.57-.73h0c-.11-.14-.09-.35,.05-.47,.14-.11,.35-.09,.46,.05Z"/><path class="cls-12" d="M965.59,144.88l.47,.8c.11,.19,.05,.42-.14,.53-.19,.11-.42,.05-.53-.14h0l-.46-.81h0c-.11-.19-.04-.42,.14-.53,.18-.11,.42-.04,.52,.14Z"/><path class="cls-12" d="M974.19,162.4l.34,.86c.09,.23-.02,.48-.25,.57-.23,.09-.48-.02-.57-.25h0l-.34-.87h0c-.09-.23,.02-.48,.25-.57,.23-.09,.48,.02,.57,.25Z"/><path class="cls-12" d="M980.06,181.03l.21,.91c.06,.27-.11,.54-.37,.6s-.54-.11-.6-.37h0l-.2-.91h0c-.06-.27,.11-.54,.38-.6,.27-.06,.53,.11,.59,.37Z"/><path class="cls-12" d="M983.07,200.33l.07,.93c.02,.3-.2,.57-.51,.59-.3,.02-.57-.2-.59-.51h0l-.07-.93h0c-.02-.31,.21-.57,.51-.59,.3-.02,.56,.21,.59,.51Z"/><path class="cls-12" d="M983.2,219.87l-.07,.93c-.02,.34-.31,.59-.65,.56-.34-.02-.59-.31-.56-.65h0l.07-.93h0c.03-.34,.32-.59,.65-.56,.33,.03,.58,.31,.56,.65Z"/><path class="cls-12" d="M980.43,239.23l-.2,.91c-.08,.36-.44,.58-.79,.5-.36-.08-.58-.44-.5-.79h0l.21-.91h0c.08-.36,.44-.58,.79-.5,.35,.08,.58,.43,.5,.79Z"/><path class="cls-12" d="M974.79,257.96l-.34,.87c-.14,.37-.56,.55-.93,.41-.37-.14-.55-.56-.41-.93h0l.34-.87h0c.15-.37,.56-.55,.93-.41,.37,.15,.55,.56,.4,.93Z"/><path class="cls-12" d="M966.4,275.64l-.46,.81c-.21,.37-.69,.5-1.06,.29s-.5-.69-.29-1.06h0l.46-.81h0c.21-.37,.69-.5,1.05-.28,.37,.21,.49,.68,.28,1.05Z"/><path class="cls-12" d="M955.47,291.88l-.58,.73c-.28,.36-.81,.42-1.17,.13-.36-.28-.42-.81-.13-1.17h0l.58-.73h0c.29-.36,.81-.42,1.16-.13,.35,.28,.41,.8,.13,1.16Z"/><path class="cls-12" d="M942.24,306.32l-.68,.64c-.36,.33-.92,.31-1.25-.04-.33-.36-.31-.92,.04-1.25h0l.68-.63h0c.36-.33,.92-.31,1.25,.05,.33,.36,.31,.91-.05,1.24Z"/><path class="cls-12" d="M927.01,318.65l-.77,.53c-.43,.29-1.01,.19-1.31-.24-.29-.43-.19-1.01,.24-1.31h0l.76-.52h0c.43-.29,1.01-.18,1.3,.24,.29,.43,.18,1.01-.24,1.3Z"/><path class="cls-12" d="M910.1,328.57l-.84,.41c-.49,.24-1.09,.03-1.33-.46-.24-.49-.03-1.09,.46-1.33h.01l.83-.4h0c.49-.24,1.09-.03,1.32,.46,.24,.49,.03,1.08-.46,1.32Z"/><path class="cls-12" d="M891.9,335.86l-.89,.28c-.55,.17-1.14-.14-1.31-.69-.17-.55,.14-1.14,.69-1.31h.01l.88-.27h0c.55-.17,1.14,.14,1.31,.69,.17,.55-.14,1.13-.69,1.31Z"/><path class="cls-12" d="M872.79,340.34l-.92,.14c-.6,.09-1.17-.32-1.26-.93-.09-.6,.32-1.17,.93-1.26h.01l.91-.14h0c.6-.09,1.16,.33,1.25,.93,.09,.6-.33,1.16-.92,1.25Z"/><path class="cls-12" d="M853.2,341.91h-.47c-.64,0-1.16-.51-1.16-1.15,0-.64,.51-1.16,1.15-1.16h.47c.64,0,1.16,.52,1.16,1.16,0,.64-.52,1.15-1.15,1.16Z"/></g><g class="cls-5"><polygon class="cls-12" points="1263.19 120.53 1263.52 120.85 1263.52 120.85 1263.52 120.85 1263.19 120.53"/><path class="cls-12" d="M1275.66,134.86l.55,.74s.01,.06-.01,.08-.06,.01-.08-.01h0l-.55-.75s-.01-.06,.01-.08c.02-.02,.06-.01,.08,.01Z"/><path class="cls-12" d="M1286.14,151.27l.44,.82c.03,.05,0,.12-.05,.15-.05,.03-.12,0-.15-.05h0l-.43-.82c-.03-.05,0-.12,.04-.15,.05-.03,.12,0,.15,.04Z"/><path class="cls-12" d="M1294.04,169.07l.31,.88c.03,.09-.02,.18-.1,.21s-.18-.02-.21-.1h0l-.3-.88c-.03-.09,.01-.18,.1-.21,.09-.03,.18,.02,.21,.1Z"/><path class="cls-12" d="M1299.19,187.87l.17,.91c.02,.12-.06,.24-.18,.26-.12,.02-.24-.06-.26-.18h0l-.17-.91c-.02-.12,.05-.23,.17-.26,.12-.02,.23,.06,.26,.17Z"/><path class="cls-12" d="M1301.48,207.23l.04,.93c0,.15-.11,.28-.27,.29-.15,0-.28-.11-.29-.27h0l-.03-.93c0-.15,.11-.28,.26-.29,.15,0,.28,.11,.29,.26Z"/><path class="cls-12" d="M1300.88,226.72l-.1,.92c-.02,.18-.18,.31-.37,.29-.18-.02-.31-.18-.29-.37h0l.11-.92h0c.02-.18,.18-.31,.37-.29,.18,.02,.31,.18,.29,.36Z"/><path class="cls-12" d="M1297.4,245.92l-.24,.9c-.05,.21-.27,.33-.47,.28-.21-.05-.33-.27-.28-.47h0l.24-.9h0c.06-.21,.27-.33,.47-.27,.2,.06,.33,.27,.27,.47Z"/><path class="cls-12" d="M1291.08,264.39l-.37,.85c-.1,.22-.36,.33-.58,.23-.22-.1-.33-.36-.23-.58h0l.37-.85h0c.1-.23,.36-.33,.58-.23,.22,.1,.32,.36,.23,.58Z"/><path class="cls-12" d="M1282.06,281.71l-.49,.79c-.15,.23-.45,.3-.69,.16-.23-.15-.3-.45-.16-.69h0l.49-.79h0c.15-.23,.45-.3,.68-.16,.23,.15,.3,.45,.15,.68Z"/><path class="cls-12" d="M1270.55,297.49l-.61,.71c-.2,.23-.55,.26-.78,.06-.23-.2-.26-.55-.06-.78h0l.6-.7h0c.2-.23,.55-.26,.78-.06,.23,.2,.25,.54,.06,.77Z"/><path class="cls-12" d="M1256.81,311.4l-.7,.61c-.25,.22-.64,.19-.86-.06-.22-.25-.19-.64,.06-.86h0l.7-.61h0c.25-.22,.64-.19,.85,.06,.22,.25,.19,.63-.06,.85Z"/><path class="cls-12" d="M1241.17,323.13l-.79,.5c-.31,.2-.72,.1-.92-.21-.2-.31-.1-.72,.21-.92h0l.78-.49h0c.31-.2,.72-.1,.91,.21,.19,.31,.1,.71-.21,.91Z"/><path class="cls-12" d="M1223.94,332.39l-.85,.38c-.36,.16-.79,0-.95-.37-.16-.36,0-.79,.37-.95h0l.85-.37h0c.36-.16,.78,0,.94,.37,.16,.36,0,.78-.37,.94Z"/><path class="cls-12" d="M1205.5,338.96l-.9,.24c-.41,.11-.84-.13-.95-.55-.11-.41,.13-.84,.55-.95h0l.89-.24h0c.41-.11,.83,.14,.94,.55,.11,.41-.14,.83-.54,.94Z"/><path class="cls-12" d="M1186.29,342.71l-.93,.11c-.46,.05-.87-.27-.92-.73-.05-.46,.27-.87,.73-.92h.01l.92-.1h0c.45-.05,.86,.28,.91,.73,.05,.45-.28,.86-.73,.91Z"/><path class="cls-12" d="M1166.72,343.56l-.93-.03c-.49-.02-.87-.43-.85-.91,.02-.49,.43-.87,.91-.85h.01l.92,.04h0c.49,.02,.87,.43,.85,.92-.02,.48-.43,.86-.91,.85Z"/><path class="cls-12" d="M1147.24,341.51l-.92-.17c-.51-.09-.85-.58-.75-1.1,.09-.51,.58-.85,1.1-.75h.01l.9,.17h0c.51,.1,.84,.59,.74,1.1-.1,.51-.58,.84-1.09,.75Z"/><path class="cls-12" d="M1128.27,336.58l-.88-.31c-.52-.18-.79-.75-.62-1.27,.18-.52,.75-.79,1.27-.62h.01l.87,.31h0c.52,.18,.79,.75,.61,1.27-.18,.52-.74,.79-1.26,.61Z"/><path class="cls-12" d="M1110.24,328.86l-.83-.43c-.51-.27-.71-.9-.44-1.42,.27-.51,.9-.71,1.42-.44h.01l.81,.44h0c.51,.28,.7,.91,.43,1.42-.27,.51-.9,.7-1.41,.44Z"/><path class="cls-12" d="M1093.57,318.51l-.75-.55c-.49-.36-.6-1.05-.24-1.55,.36-.49,1.05-.6,1.55-.24h.01l.74,.56h0c.49,.37,.59,1.06,.23,1.55-.36,.49-1.05,.59-1.54,.23Z"/><path class="cls-12" d="M1078.6,305.78l-.33-.33c-.45-.45-.46-1.18,0-1.64,.45-.45,1.18-.46,1.64,0h0l.32,.33h0c.45,.46,.45,1.19,0,1.64-.45,.45-1.18,.45-1.63,0Z"/></g><g class="cls-5"><polygon class="cls-12" points="1618.72 214.58 1618.72 215.04 1618.72 215.04 1618.72 215.04 1618.72 215.04 1618.72 214.58"/><path class="cls-12" d="M1617.41,233.53l-.13,.92s-.03,.05-.06,.05c-.03,0-.05-.03-.05-.06h0l.14-.92s.03-.05,.06-.05c.03,0,.05,.03,.05,.06Z"/><path class="cls-12" d="M1613.21,252.54l-.27,.89c-.02,.06-.08,.09-.14,.07-.06-.02-.09-.08-.07-.14h0l.28-.89c.02-.06,.08-.09,.14-.07,.06,.02,.09,.08,.07,.14Z"/><path class="cls-12" d="M1606.21,270.72l-.4,.84c-.04,.08-.14,.12-.22,.08-.08-.04-.12-.14-.08-.22h0l.4-.83c.04-.08,.14-.12,.22-.08,.08,.04,.12,.14,.08,.22Z"/><path class="cls-12" d="M1596.56,287.65l-.52,.77c-.07,.1-.21,.13-.31,.06-.1-.07-.13-.21-.06-.31h0l.52-.77c.07-.1,.2-.13,.3-.06,.1,.07,.13,.2,.06,.31Z"/><path class="cls-12" d="M1584.49,302.96l-.63,.68c-.1,.11-.28,.12-.39,.02-.11-.1-.12-.28-.02-.39h0l.63-.68c.1-.11,.28-.12,.39-.02,.11,.1,.12,.28,.02,.39Z"/><path class="cls-12" d="M1570.28,316.32l-.72,.58c-.14,.12-.35,.09-.47-.05-.12-.14-.09-.35,.05-.47h0l.72-.58h0c.14-.11,.35-.09,.46,.05,.11,.14,.09,.35-.05,.46Z"/><path class="cls-12" d="M1554.24,327.43l-.8,.47c-.19,.11-.42,.05-.53-.14-.11-.19-.05-.42,.14-.53h0l.8-.46h0c.18-.11,.42-.04,.53,.14,.11,.18,.04,.42-.14,.52Z"/><path class="cls-12" d="M1536.72,336.03l-.86,.34c-.23,.09-.48-.02-.57-.25-.09-.23,.02-.48,.25-.57h0l.86-.34h0c.23-.09,.48,.02,.57,.25,.09,.23-.02,.48-.25,.57Z"/><path class="cls-12" d="M1518.09,341.9l-.91,.21c-.27,.06-.54-.11-.6-.37-.06-.27,.11-.54,.37-.6h0l.9-.2h0c.27-.06,.53,.11,.59,.37,.06,.27-.11,.53-.37,.59Z"/><path class="cls-12" d="M1498.79,344.91l-.93,.07c-.3,.02-.57-.2-.59-.51-.02-.3,.2-.57,.51-.59h0l.92-.07h0c.3-.02,.57,.21,.59,.51,.02,.3-.21,.56-.51,.59Z"/><path class="cls-12" d="M1479.24,345.04l-.93-.07c-.34-.02-.59-.31-.56-.65,.02-.34,.31-.59,.65-.56h0l.92,.07h0c.33,.03,.58,.32,.56,.65-.03,.33-.31,.58-.65,.56Z"/><path class="cls-12" d="M1459.89,342.27l-.91-.2c-.36-.08-.58-.44-.5-.79,.08-.36,.44-.58,.79-.5h0l.9,.21h0c.36,.08,.58,.44,.5,.79-.08,.35-.43,.58-.79,.5Z"/><path class="cls-12" d="M1441.15,336.63l-.87-.34c-.37-.14-.55-.56-.41-.93,.14-.37,.56-.55,.93-.41h0l.86,.34h0c.37,.15,.55,.56,.4,.93-.15,.37-.56,.55-.93,.4Z"/><path class="cls-12" d="M1423.47,328.24l-.81-.46c-.37-.21-.5-.69-.29-1.06,.21-.37,.69-.5,1.06-.29h0l.8,.47h0c.37,.22,.49,.69,.28,1.06-.21,.37-.68,.49-1.05,.28Z"/><path class="cls-12" d="M1407.24,317.31l-.73-.58c-.36-.28-.42-.81-.13-1.17,.28-.36,.81-.42,1.17-.13h0l.72,.58h0c.36,.29,.41,.81,.13,1.17-.28,.35-.8,.41-1.16,.13Z"/><path class="cls-12" d="M1392.8,304.08l-.64-.68c-.33-.36-.31-.92,.04-1.25,.36-.33,.92-.31,1.25,.04h0l.62,.68h0c.33,.36,.31,.92-.05,1.25-.36,.33-.91,.31-1.24-.05Z"/><path class="cls-12" d="M1380.47,288.84l-.53-.77c-.29-.43-.19-1.01,.24-1.31,.43-.29,1.01-.19,1.31,.24h0l.52,.77h0c.29,.43,.18,1.02-.25,1.31-.43,.29-1.01,.18-1.3-.24Z"/><path class="cls-12" d="M1370.54,271.94l-.41-.84c-.24-.49-.03-1.09,.46-1.33,.49-.24,1.09-.03,1.33,.46h0l.4,.84h0c.24,.5,.03,1.09-.47,1.33-.49,.24-1.08,.03-1.32-.46Z"/><path class="cls-12" d="M1363.26,253.74l-.28-.89c-.17-.55,.14-1.14,.69-1.31,.55-.17,1.14,.14,1.31,.69h0l.27,.89h0c.17,.56-.14,1.15-.7,1.31-.55,.17-1.13-.14-1.31-.69Z"/><path class="cls-12" d="M1358.78,234.63l-.14-.92c-.09-.6,.32-1.17,.93-1.26,.6-.09,1.17,.32,1.26,.93h0l.13,.92h0c.09,.61-.33,1.17-.93,1.26-.6,.09-1.16-.33-1.25-.92Z"/><path class="cls-12" d="M1357.2,215.04v-.47c0-.64,.51-1.16,1.15-1.16,.64,0,1.16,.51,1.16,1.15h0v.47h0c0,.64-.52,1.16-1.16,1.16-.64,0-1.15-.52-1.16-1.15Z"/></g><g class="cls-5"><polygon class="cls-12" points="1896.99 304.63 1896.67 304.96 1896.66 304.96 1896.66 304.95 1896.99 304.63"/><path class="cls-12" d="M1882.66,317.1l-.74,.55s-.06,.01-.08-.01c-.02-.03-.01-.06,.01-.08h0l.75-.55s.06-.01,.08,.01c.02,.02,.01,.06-.01,.08Z"/><path class="cls-12" d="M1866.25,327.58l-.82,.44c-.05,.03-.12,0-.15-.05-.03-.05,0-.12,.05-.15h0l.82-.43c.05-.03,.12,0,.15,.04,.03,.05,0,.12-.05,.15Z"/><path class="cls-12" d="M1848.45,335.48l-.88,.31c-.09,.03-.18-.02-.21-.1-.03-.09,.02-.18,.1-.21h0l.88-.3c.09-.03,.18,.01,.21,.1,.03,.09-.02,.18-.1,.21Z"/><path class="cls-12" d="M1829.65,340.63l-.91,.17c-.12,.02-.24-.06-.26-.18-.02-.12,.06-.24,.18-.26h0l.91-.17c.12-.02,.23,.05,.26,.17,.02,.12-.06,.23-.17,.26Z"/><path class="cls-12" d="M1810.29,342.92l-.93,.04c-.15,0-.28-.11-.29-.27,0-.15,.11-.28,.27-.29h0l.92-.03c.15,0,.28,.11,.29,.26,0,.15-.11,.28-.26,.29Z"/><path class="cls-12" d="M1790.8,342.32l-.92-.1c-.18-.02-.31-.18-.29-.37,.02-.18,.18-.31,.37-.29h0l.92,.11h0c.18,.02,.31,.18,.29,.37-.02,.18-.18,.31-.36,.29Z"/><path class="cls-12" d="M1771.6,338.83l-.9-.24c-.21-.05-.33-.27-.28-.47,.05-.21,.27-.33,.47-.28h0l.89,.24h0c.21,.06,.33,.27,.27,.47-.06,.2-.27,.33-.47,.27Z"/><path class="cls-12" d="M1753.13,332.52l-.85-.37c-.22-.1-.33-.36-.23-.58s.36-.33,.58-.23h0l.85,.37h0c.22,.1,.32,.36,.23,.58-.1,.22-.36,.32-.58,.23Z"/><path class="cls-12" d="M1735.81,323.5l-.79-.49c-.23-.15-.3-.45-.16-.69,.15-.23,.45-.3,.69-.16h0l.78,.5h0c.23,.15,.3,.45,.15,.69-.15,.23-.45,.3-.68,.15Z"/><path class="cls-12" d="M1720.03,311.98l-.71-.61c-.23-.2-.26-.55-.06-.78,.2-.23,.55-.26,.78-.06h0l.7,.61h0c.23,.2,.25,.55,.06,.78-.2,.23-.54,.25-.77,.06Z"/><path class="cls-12" d="M1706.12,298.25l-.61-.7c-.22-.25-.19-.64,.06-.86,.25-.22,.64-.19,.86,.06h0l.6,.71h0c.22,.26,.19,.64-.07,.86-.25,.22-.63,.19-.85-.06Z"/><path class="cls-12" d="M1694.39,282.61l-.5-.79c-.2-.31-.1-.72,.21-.92s.72-.1,.92,.21h0l.49,.79h0c.19,.31,.1,.72-.21,.92-.31,.19-.71,.1-.91-.21Z"/><path class="cls-12" d="M1685.13,265.38l-.38-.85c-.16-.36,0-.79,.37-.95,.36-.16,.79,0,.95,.37h0l.37,.86h0c.16,.37,0,.79-.37,.95-.36,.16-.78,0-.94-.37Z"/><path class="cls-12" d="M1678.56,246.94l-.24-.9c-.11-.41,.13-.84,.55-.95s.84,.13,.95,.55h0l.24,.9h0c.11,.42-.14,.84-.55,.95-.41,.11-.83-.14-.94-.54Z"/><path class="cls-12" d="M1674.81,227.73l-.11-.93c-.05-.46,.27-.87,.73-.92,.46-.05,.87,.27,.92,.73h0l.1,.93h0c.05,.46-.28,.87-.73,.92-.45,.05-.86-.28-.91-.73Z"/><path class="cls-12" d="M1673.95,208.16l.03-.93c.02-.49,.43-.87,.91-.85,.49,.02,.87,.43,.85,.91h0l-.04,.93h0c-.02,.49-.43,.87-.92,.85-.48-.02-.86-.43-.85-.91Z"/><path class="cls-12" d="M1676.01,188.68l.17-.92c.09-.51,.58-.85,1.1-.75,.51,.09,.85,.58,.75,1.1h0l-.17,.92h0c-.1,.51-.59,.85-1.1,.75-.51-.1-.84-.58-.75-1.09Z"/><path class="cls-12" d="M1680.94,169.7l.31-.88c.18-.52,.75-.79,1.27-.62,.52,.18,.79,.75,.62,1.27h0l-.31,.88h0c-.18,.52-.75,.8-1.27,.61-.51-.18-.79-.74-.61-1.26Z"/><path class="cls-12" d="M1688.66,151.68l.43-.83c.27-.51,.9-.71,1.42-.44,.51,.27,.71,.9,.44,1.42h0l-.43,.82h0c-.27,.52-.91,.71-1.42,.44-.51-.27-.7-.9-.44-1.41Z"/><path class="cls-12" d="M1699.01,135l.55-.75c.36-.49,1.05-.6,1.55-.24,.49,.36,.6,1.05,.24,1.55h0l-.55,.75h0c-.36,.49-1.05,.6-1.54,.23-.49-.36-.59-1.05-.23-1.54Z"/><path class="cls-12" d="M1711.74,120.04l.33-.33c.45-.45,1.18-.46,1.64,0,.45,.45,.46,1.18,0,1.64h0l-.33,.33h0c-.45,.45-1.19,.45-1.64,0-.45-.45-.45-1.18,0-1.63Z"/></g><path class="cls-7" d="M85.98,208.58c0,67.47,54.69,122.16,122.16,122.16s122.16-54.69,122.16-122.16c0-47.78-27.43-89.15-67.41-109.23-8.38-4.21-17.31-7.48-26.65-9.68-9.02-2.13-18.43-3.25-28.1-3.25-67.47,0-122.16,54.69-122.16,122.16Z"/><circle class="cls-6" cx="208.13" cy="208.58" r="117.04" transform="translate(-86.52 208.26) rotate(-45)"/><path class="cls-14" d="M207.93,342.32c-33.48,0-65.51-12.43-90.2-35-24.53-22.42-39.78-52.91-42.93-85.86l3.69-.35c6.4,66.99,62.05,117.5,129.43,117.5,71.7,0,130.03-58.33,130.03-130.03h3.71c0,35.72-13.91,69.31-39.17,94.57-25.26,25.26-58.84,39.17-94.57,39.17Z"/><path class="cls-14" d="M59.78,242.08c-.31,0-.63-.05-.94-.16-1.06-.38-1.79-1.35-1.84-2.48l-.67-13.38c-.04-.73,.22-1.46,.72-2.01l17.01-18.82c.5-.55,1.18-.88,1.92-.91,.75-.04,1.45,.22,2.01,.71l18.82,17.02c.55,.5,.88,1.18,.91,1.92l.67,13.38c.06,1.13-.57,2.17-1.59,2.65-1.02,.48-2.22,.31-3.06-.45l-16.75-15.16-15.15,16.76c-.54,.6-1.29,.92-2.06,.92Zm.27-15.82l.54,10.76,14.27-15.79c.5-.55,1.18-.88,1.92-.91,.74-.04,1.45,.22,2.01,.71l15.78,14.28-.54-10.76-17.84-16.14-16.14,17.84Z"/><path class="cls-17" d="M404.91,208.58c0,67.47,54.69,122.16,122.16,122.16s122.16-54.69,122.16-122.16c0-47.78-27.43-89.15-67.41-109.23-8.38-4.21-17.31-7.48-26.65-9.68-9.02-2.13-18.43-3.25-28.1-3.25-67.47,0-122.16,54.69-122.16,122.16Z"/><circle class="cls-6" cx="527.07" cy="208.58" r="117.04" transform="translate(6.89 433.78) rotate(-45)"/><path class="cls-11" d="M528.34,342.32c-35.72,0-69.31-13.91-94.57-39.17-23.67-23.67-37.53-55.11-39.04-88.53-1.49-33.2,9.29-65.54,30.36-91.07l2.86,2.36c-42.84,51.89-39.21,126.96,8.44,174.61,25.35,25.35,58.65,38.02,91.94,38.02,33.3,0,66.59-12.67,91.94-38.02l2.62,2.62c-25.26,25.26-58.84,39.17-94.57,39.17Z"/><path class="cls-11" d="M429.27,151.57c-.31,0-.63-.05-.94-.16-1.06-.38-1.79-1.35-1.84-2.48l-1.13-22.56-22.56,1.14c-1.13,.05-2.17-.57-2.65-1.59-.48-1.02-.31-2.22,.45-3.06l8.98-9.94c.5-.55,1.18-.88,1.92-.91l25.34-1.27c.74-.04,1.45,.22,2.01,.71,.55,.5,.88,1.18,.91,1.92l1.27,25.34c.04,.74-.22,1.45-.71,2l-8.99,9.94c-.54,.6-1.29,.92-2.06,.92Zm-3.03-28.96c.69,0,1.35,.25,1.86,.72,.55,.5,.88,1.18,.91,1.92l1.06,21.25,7.22-7.99-1.21-24.03-24.03,1.21-7.22,7.99,21.25-1.07s.1,0,.14,0Zm-23.63,1.19h0Z"/><path class="cls-16" d="M726.82,208.58c0,67.47,54.69,122.16,122.16,122.16s122.16-54.69,122.16-122.16c0-47.78-27.43-89.15-67.41-109.23-8.38-4.21-17.31-7.48-26.65-9.68-9.02-2.13-18.43-3.25-28.1-3.25-67.47,0-122.16,54.69-122.16,122.16Z"/><circle class="cls-6" cx="848.98" cy="208.58" r="117.04" transform="translate(101.17 661.41) rotate(-45)"/><path class="cls-8" d="M848.74,342.32c-35.72,0-69.31-13.91-94.57-39.17-25.26-25.26-39.17-58.84-39.17-94.57,0-33.48,12.43-65.51,35-90.2,22.42-24.53,52.91-39.78,85.86-42.93l.35,3.69c-66.99,6.4-117.5,62.05-117.5,129.43,0,71.7,58.33,130.03,130.03,130.03v3.71Z"/><path class="cls-8" d="M820.28,99.03c-1.07,0-2.05-.61-2.51-1.59-.48-1.02-.31-2.22,.45-3.06l15.16-16.75-16.76-15.15h0c-.84-.76-1.13-1.93-.76-3,.38-1.06,1.35-1.79,2.48-1.85l13.38-.67c.74-.04,1.45,.22,2.01,.72l18.82,17.02c1.14,1.03,1.23,2.79,.2,3.93l-17.02,18.82c-.5,.55-1.18,.88-1.92,.91l-13.38,.67s-.09,0-.14,0Zm.48-37.8l15.79,14.27c.55,.5,.88,1.18,.91,1.92,.04,.74-.22,1.46-.72,2.01l-14.28,15.78,10.76-.54,16.14-17.84-17.84-16.14-10.76,.54Z"/><path class="cls-3" d="M1047.04,208.58c0,67.47,54.69,122.16,122.16,122.16s122.16-54.69,122.16-122.16c0-47.78-27.43-89.15-67.41-109.23-8.38-4.21-17.31-7.48-26.65-9.68-9.02-2.13-18.43-3.25-28.1-3.25-67.47,0-122.16,54.69-122.16,122.16Z"/><circle class="cls-1" cx="1169.2" cy="208.58" r="117.04" transform="translate(194.96 887.84) rotate(-45)"/><g class="cls-5"><path class="cls-15" d="M1074.57,303.14c-25.26-25.26-39.17-58.84-39.17-94.57s13.91-69.31,39.17-94.57c23.67-23.67,55.11-37.53,88.53-39.04,33.2-1.49,65.54,9.29,91.07,30.36l-2.36,2.86c-51.89-42.84-126.96-39.21-174.61,8.44-50.7,50.7-50.7,133.19,0,183.89l-2.62,2.62Z"/></g><g class="cls-5"><path class="cls-15" d="M1239.33,121.74c-.69,0-1.35-.25-1.86-.72l-9.94-8.98c-.84-.76-1.13-1.93-.75-3,.38-1.06,1.35-1.79,2.48-1.84l22.56-1.13-1.14-22.56c-.06-1.13,.57-2.17,1.59-2.65,1.02-.48,2.22-.31,3.06,.45l9.94,8.98c.55,.5,.87,1.18,.91,1.92l1.27,25.34c.08,1.53-1.11,2.84-2.64,2.92l-25.34,1.27s-.1,0-.14,0Zm-7.65-10.95l7.99,7.22,24.03-1.21-1.21-24.03-7.99-7.22,1.07,21.25c.04,.74-.22,1.45-.71,2.01-.5,.55-1.18,.88-1.93,.91l-21.25,1.06Zm22.71-27.47h0Z"/></g><path class="cls-4" d="M1367.46,208.58c0,67.47,54.69,122.16,122.16,122.16s122.16-54.69,122.16-122.16c0-47.78-27.43-89.15-67.41-109.23-8.38-4.21-17.31-7.48-26.65-9.68-9.02-2.13-18.43-3.25-28.1-3.25-67.47,0-122.16,54.69-122.16,122.16Z"/><circle class="cls-1" cx="1489.61" cy="208.58" r="117.04" transform="translate(288.81 1114.41) rotate(-45)"/><g class="cls-5"><path class="cls-9" d="M1359.51,208.58h-3.71c0-35.72,13.91-69.31,39.17-94.57,25.26-25.26,58.84-39.17,94.57-39.17,33.48,0,65.51,12.43,90.2,35,24.53,22.42,39.78,52.91,42.92,85.86l-3.69,.35c-6.4-66.99-62.05-117.5-129.43-117.5-71.7,0-130.03,58.33-130.03,130.03Z"/></g><g class="cls-5"><path class="cls-9" d="M1621.36,213.76c-.67,0-1.33-.24-1.86-.72l-18.82-17.01c-.55-.5-.88-1.18-.91-1.92l-.67-13.38c-.06-1.13,.57-2.17,1.59-2.65,1.02-.48,2.22-.31,3.06,.45l16.75,15.16,15.15-16.76c.76-.84,1.93-1.13,3-.76,1.06,.38,1.79,1.35,1.84,2.48l.67,13.38c.04,.74-.22,1.46-.71,2.01l-17.02,18.82c-.55,.61-1.31,.91-2.07,.91Zm-17.91-20.23l17.84,16.14,16.14-17.84-.54-10.76-14.27,15.79c-.5,.55-1.18,.88-1.92,.91-.74,.04-1.45-.22-2.01-.72l-15.78-14.28,.54,10.76Zm34.94-14.13h0Z"/></g><path class="cls-2" d="M1688.8,208.58c0,67.47,54.69,122.16,122.16,122.16s122.16-54.69,122.16-122.16c0-47.78-27.43-89.15-67.41-109.23-8.38-4.21-17.31-7.48-26.65-9.68-9.02-2.13-18.43-3.25-28.1-3.25-67.47,0-122.16,54.69-122.16,122.16Z"/><circle class="cls-1" cx="1810.96" cy="208.58" r="117.04" transform="translate(382.93 1341.63) rotate(-45)"/><g class="cls-5"><path class="cls-10" d="M1913.19,293.6l-2.86-2.36c42.84-51.89,39.21-126.96-8.44-174.61-24.56-24.56-57.21-38.08-91.94-38.08s-67.39,13.53-91.94,38.08l-2.62-2.62c25.26-25.26,58.84-39.17,94.57-39.17s69.31,13.91,94.57,39.17c23.67,23.67,37.53,55.11,39.04,88.53,1.49,33.2-9.29,65.54-30.36,91.07Z"/></g><g class="cls-5"><path class="cls-10" d="M1900.83,306.89c-.69,0-1.35-.25-1.86-.72-.55-.5-.88-1.18-.91-1.92l-1.27-25.34c-.04-.73,.22-1.46,.72-2.01l8.98-9.93c.76-.84,1.93-1.13,3-.75,1.06,.38,1.79,1.35,1.84,2.48l1.13,22.56,22.56-1.14c1.13-.06,2.17,.57,2.65,1.59,.48,1.02,.31,2.22-.45,3.06l-8.98,9.94c-.49,.54-1.19,.88-1.92,.91l-25.34,1.27s-.1,0-.14,0Zm-.33-27.78l1.21,24.03,24.03-1.21,7.22-7.99-21.25,1.07c-.75,.04-1.46-.22-2.01-.72-.55-.5-.88-1.18-.91-1.93l-1.06-21.25-7.22,7.99Z"/></g><g class="cls-5"><path class="cls-9" d="M1495.9,194.34c-3.51,0-7.02-1.34-9.69-4.01-2.59-2.59-4.01-6.03-4.01-9.69s1.42-7.1,4.01-9.69c5.34-5.34,14.03-5.34,19.37,0,2.59,2.59,4.01,6.03,4.01,9.69s-1.43,7.1-4.01,9.69c-2.67,2.67-6.18,4.01-9.69,4.01Zm0-25.09c-2.92,0-5.84,1.11-8.06,3.33-2.15,2.15-3.34,5.02-3.34,8.06s1.19,5.91,3.34,8.06c2.15,2.15,5.02,3.34,8.06,3.34s5.91-1.19,8.06-3.34h0c2.15-2.15,3.34-5.02,3.34-8.06s-1.19-5.91-3.34-8.06c-2.22-2.22-5.14-3.33-8.06-3.33Z"/><path class="cls-9" d="M1478.38,205.56c-.29,0-.59-.11-.81-.34l-6.24-6.24c-.45-.45-.45-1.18,0-1.62l9.49-9.49c.45-.45,1.18-.45,1.62,0,.45,.45,.45,1.18,0,1.62l-8.68,8.68,4.61,4.61,8.68-8.68c.45-.45,1.18-.45,1.62,0,.45,.45,.45,1.18,0,1.62l-9.49,9.49c-.22,.22-.52,.34-.81,.34Z"/><path class="cls-9" d="M1502.31,183.52h-10.5v-5.94c0-.63,.51-1.15,1.15-1.15s1.15,.51,1.15,1.15v3.65h8.2c.63,0,1.15,.51,1.15,1.15s-.51,1.15-1.15,1.15Z"/></g><g><path class="cls-11" d="M516.15,203.53c-.29,0-.59-.11-.81-.34l-5-5c-.45-.45-.45-1.18,0-1.62l3.07-3.07c.2-.2,.27-.51,.16-.77h0c-2.22-5.18-.98-11.29,3.11-15.19,5.22-4.99,13.67-4.95,18.85,.08,2.63,2.56,4.1,5.98,4.12,9.65,.03,3.67-1.39,7.11-3.98,9.71-3.91,3.91-9.74,5.06-14.84,2.94-.25-.1-.55-.04-.75,.17l-3.11,3.11c-.22,.22-.52,.34-.81,.34Zm-3.37-6.14l3.37,3.37,2.3-2.3c.87-.87,2.15-1.13,3.26-.66,4.24,1.77,9.08,.81,12.33-2.44,2.15-2.15,3.33-5.02,3.31-8.07-.02-3.05-1.24-5.89-3.43-8.02-4.3-4.18-11.33-4.21-15.66-.07-3.39,3.24-4.43,8.32-2.58,12.62,.48,1.13,.23,2.43-.64,3.3l-2.25,2.25Z"/><path class="cls-11" d="M513.33,206.04c-.29,0-.59-.11-.81-.34l-4.8-4.8c-.45-.45-.45-1.18,0-1.62,.45-.45,1.18-.45,1.62,0l4.8,4.8c.45,.45,.45,1.18,0,1.62-.22,.22-.52,.34-.81,.34Z"/><path class="cls-11" d="M510.65,207.93c-.29,0-.59-.11-.81-.34l-4-4c-.45-.45-.45-1.18,0-1.62,.45-.45,1.18-.45,1.62,0l4,4c.45,.45,.45,1.18,0,1.62-.22,.22-.52,.34-.81,.34Z"/><path class="cls-11" d="M540.1,205.13c-.29,0-.59-.11-.81-.34l-4-4c-.45-.45-.45-1.18,0-1.62,.45-.45,1.18-.45,1.62,0l4,4c.45,.45,.45,1.18,0,1.62-.22,.22-.52,.34-.81,.34Z"/><path class="cls-11" d="M513.23,178.26c-.29,0-.59-.11-.81-.34l-4-4c-.45-.45-.45-1.18,0-1.62,.45-.45,1.18-.45,1.62,0l4,4c.45,.45,.45,1.18,0,1.62-.22,.22-.52,.34-.81,.34Z"/><path class="cls-11" d="M537.22,177.62c-.29,0-.59-.11-.81-.34-.45-.45-.45-1.18,0-1.62l4-4c.45-.45,1.18-.45,1.62,0,.45,.45,.45,1.18,0,1.62l-4,4c-.22,.22-.52,.34-.81,.34Z"/><path class="cls-11" d="M547.48,189.7h-5.65c-.63,0-1.15-.51-1.15-1.15s.51-1.15,1.15-1.15h5.65c.63,0,1.15,.51,1.15,1.15s-.51,1.15-1.15,1.15Z"/><path class="cls-11" d="M524.67,172.53c-.63,0-1.15-.51-1.15-1.15v-5.65c0-.63,.51-1.15,1.15-1.15s1.15,.51,1.15,1.15v5.65c0,.63-.51,1.15-1.15,1.15Z"/></g><g><path class="cls-8" d="M848.98,193.82c-4.17,0-7.57-3.39-7.57-7.57s3.39-7.57,7.57-7.57,7.57,3.39,7.57,7.57-3.39,7.57-7.57,7.57Zm0-12.84c-2.91,0-5.27,2.36-5.27,5.27s2.36,5.27,5.27,5.27,5.27-2.36,5.27-5.27-2.36-5.27-5.27-5.27Z"/><path class="cls-8" d="M853.34,202.51c-.9,0-1.76-.44-2.3-1.22l-.92-1.35c-.26-.38-.68-.6-1.14-.6s-.88,.22-1.14,.6l-.92,1.35c-.71,1.03-1.98,1.47-3.17,1.08-1.19-.39-1.97-1.49-1.93-2.74l.05-1.63c.01-.46-.19-.88-.57-1.16-.37-.27-.84-.34-1.28-.18l-1.54,.55c-1.18,.42-2.46,.02-3.2-.99-.74-1.01-.72-2.36,.05-3.35l1-1.3c.28-.37,.36-.83,.22-1.27-.14-.44-.48-.77-.92-.9l-1.57-.46c-1.2-.35-2.01-1.43-2.01-2.68s.81-2.33,2.01-2.68l1.57-.46c.44-.13,.78-.46,.92-.9,.14-.44,.06-.9-.22-1.27l-1-1.3c-.76-.99-.78-2.34-.05-3.35,.74-1.01,2.02-1.41,3.2-.99l1.54,.55c.44,.16,.9,.09,1.28-.18,.37-.27,.58-.69,.57-1.16l-.05-1.64c-.03-1.25,.74-2.35,1.93-2.74,1.19-.39,2.46,.05,3.17,1.08l.92,1.35c.26,.38,.68,.6,1.14,.6s.88-.22,1.14-.6l.92-1.35c.71-1.03,1.98-1.47,3.17-1.08,1.19,.39,1.97,1.49,1.93,2.74l-.05,1.64c-.01,.46,.19,.88,.57,1.16,.37,.27,.84,.34,1.28,.18l1.54-.55c1.18-.42,2.46-.02,3.2,.99,.74,1.01,.72,2.36-.05,3.35l-1,1.3c-.28,.37-.36,.83-.22,1.27,.14,.44,.48,.77,.92,.9l1.57,.46c1.2,.35,2.01,1.43,2.01,2.68s-.81,2.33-2.01,2.68l-1.57,.46c-.44,.13-.78,.46-.92,.9-.14,.44-.06,.9,.22,1.27l1,1.3c.76,.99,.78,2.34,.05,3.35-.74,1.01-2.02,1.41-3.2,.99l-1.54-.55c-.44-.16-.9-.09-1.28,.18-.37,.27-.58,.69-.57,1.16l.05,1.63c.03,1.25-.74,2.35-1.93,2.74-.29,.09-.58,.14-.88,.14Zm-4.36-5.47c1.21,0,2.35,.6,3.04,1.6l.92,1.35c.18,.27,.43,.24,.57,.19,.13-.04,.35-.16,.34-.49l-.05-1.63c-.03-1.21,.53-2.36,1.52-3.08,.98-.71,2.25-.9,3.4-.49l1.54,.55c.31,.11,.49-.06,.57-.18,.08-.11,.19-.34,0-.6l-1-1.3c-.74-.96-.96-2.23-.58-3.38,.38-1.15,1.29-2.05,2.46-2.39l1.57-.46c.31-.09,.36-.34,.36-.48s-.05-.39-.36-.48l-1.57-.46c-1.16-.34-2.08-1.24-2.46-2.39-.38-1.15-.16-2.42,.58-3.38l1-1.3c.2-.26,.09-.48,0-.6-.08-.11-.26-.29-.57-.18l-1.54,.55c-1.14,.41-2.41,.22-3.4-.49-.98-.71-1.55-1.86-1.52-3.08l.05-1.64c0-.32-.21-.45-.34-.49-.13-.04-.38-.08-.57,.19l-.92,1.35c-.69,1-1.82,1.6-3.04,1.6s-2.35-.6-3.04-1.6l-.92-1.35c-.18-.27-.43-.24-.57-.19-.13,.04-.35,.16-.34,.49l.05,1.64c.03,1.21-.53,2.36-1.52,3.08-.98,.71-2.25,.9-3.4,.49l-1.54-.55c-.31-.11-.49,.06-.57,.18-.08,.11-.19,.34,0,.6l1,1.3c.74,.96,.96,2.23,.58,3.38-.38,1.15-1.29,2.05-2.46,2.39l-1.57,.46c-.31,.09-.36,.34-.36,.48s.05,.39,.36,.48l1.57,.46c1.16,.34,2.08,1.24,2.46,2.39,.38,1.16,.16,2.42-.58,3.38l-1,1.3c-.2,.26-.09,.48,0,.6,.08,.11,.26,.29,.57,.18l1.54-.55c1.14-.41,2.41-.22,3.4,.49,.98,.71,1.55,1.86,1.52,3.08l-.05,1.63c0,.32,.21,.45,.34,.49,.13,.04,.38,.08,.57-.19l.92-1.35c.69-1,1.82-1.6,3.04-1.6Z"/></g><g class="cls-5"><path class="cls-15" d="M1190.18,178.89c-.63,0-1.15-.51-1.15-1.15v-3.4l-3.59-.1c-.63-.02-1.13-.55-1.12-1.18,.02-.63,.54-1.13,1.18-1.12l5.82,.16v5.63c0,.63-.51,1.15-1.15,1.15Z"/><path class="cls-15" d="M1159.01,182.18c-.29,0-.59-.11-.81-.34-.45-.45-.45-1.18,0-1.62l4.28-4.28c.45-.45,1.18-.45,1.62,0,.45,.45,.45,1.18,0,1.62l-4.28,4.28c-.22,.22-.52,.34-.81,.34Z"/><path class="cls-15" d="M1179.89,195.17c-.29,0-.59-.11-.81-.34-.45-.45-.45-1.18,0-1.62l6.34-6.34c.45-.45,1.18-.45,1.62,0,.45,.45,.45,1.18,0,1.62l-6.34,6.34c-.22,.22-.52,.34-.81,.34Z"/><path class="cls-15" d="M1148.22,200.57c-.29,0-.59-.11-.81-.34-.45-.45-.45-1.18,0-1.62l15.21-15.21c.45-.45,1.18-.45,1.62,0l7.04,7.04,18.06-18.06c.45-.45,1.18-.45,1.62,0,.45,.45,.45,1.18,0,1.62l-18.87,18.87c-.45,.45-1.18,.45-1.62,0l-7.04-7.04-14.4,14.4c-.22,.22-.52,.34-.81,.34Z"/></g><g class="cls-5"><path class="cls-10" d="M1806.38,201.05c-9.49,0-17.21-7.72-17.21-17.21s7.72-17.21,17.21-17.21c7.76,0,14.6,5.23,16.62,12.71,.17,.61-.2,1.24-.81,1.41-.61,.17-1.24-.2-1.41-.81-1.75-6.48-7.68-11.01-14.4-11.01-8.23,0-14.92,6.69-14.92,14.92s6.69,14.92,14.92,14.92c6.73,0,12.65-4.53,14.4-11.01,.17-.61,.8-.97,1.41-.81,.61,.17,.97,.8,.81,1.41-2.02,7.48-8.86,12.71-16.62,12.71Z"/><path class="cls-10" d="M1831.6,188.71c-.31,0-.61-.12-.84-.36l-4.41-4.66,4.39-4.39c.45-.45,1.18-.45,1.62,0,.45,.45,.45,1.18,0,1.62l-2.81,2.81,2.87,3.04c.44,.46,.41,1.19-.05,1.62-.22,.21-.51,.31-.79,.31Z"/><path class="cls-10" d="M1806.38,195.46c-6.41,0-11.63-5.22-11.63-11.63s5.22-11.63,11.63-11.63c4.59,0,8.76,2.71,10.62,6.9,.26,.58,0,1.26-.58,1.52-.58,.26-1.26,0-1.52-.58-1.5-3.36-4.85-5.54-8.53-5.54-5.14,0-9.33,4.19-9.33,9.33s4.19,9.33,9.33,9.33c3.76,0,7.13-2.24,8.6-5.7,.25-.58,.92-.86,1.51-.61,.58,.25,.86,.92,.61,1.51-1.82,4.31-6.03,7.1-10.71,7.1Z"/><path class="cls-10" d="M1806.38,205.32c-.63,0-1.15-.51-1.15-1.15v-4.27c0-.63,.51-1.15,1.15-1.15s1.15,.51,1.15,1.15v4.27c0,.63-.51,1.15-1.15,1.15Z"/><path class="cls-10" d="M1820.13,205.89c-.29,0-.59-.11-.81-.34l-6.54-6.54c-.45-.45-.45-1.18,0-1.62,.45-.45,1.18-.45,1.62,0l6.54,6.54c.45,.45,.45,1.18,0,1.62-.22,.22-.52,.34-.81,.34Z"/><path class="cls-10" d="M1792.63,205.89c-.29,0-.59-.11-.81-.34-.45-.45-.45-1.18,0-1.62l6.54-6.54c.45-.45,1.18-.45,1.62,0,.45,.45,.45,1.18,0,1.62l-6.54,6.54c-.22,.22-.52,.34-.81,.34Z"/><path class="cls-10" d="M1828.11,184.99h-20.98c-.63,0-1.15-.51-1.15-1.15s.51-1.15,1.15-1.15h20.98c.63,0,1.15,.51,1.15,1.15s-.51,1.15-1.15,1.15Z"/></g><g><path class="cls-13" d="M178.26,238.73c.9,.46,2.29,.92,3.72,.92,1.54,0,2.35-.64,2.35-1.61s-.7-1.45-2.49-2.09c-2.46-.86-4.07-2.22-4.07-4.38,0-2.53,2.11-4.47,5.61-4.47,1.67,0,2.91,.35,3.79,.75l-.75,2.71c-.59-.29-1.65-.7-3.1-.7s-2.16,.66-2.16,1.43c0,.95,.84,1.36,2.75,2.09,2.62,.97,3.85,2.33,3.85,4.42,0,2.49-1.91,4.6-5.98,4.6-1.69,0-3.37-.44-4.2-.9l.68-2.77Z"/><path class="cls-13" d="M192.89,230.17h-3.98v-2.82h11.4v2.82h-4.05v12.01h-3.37v-12.01Z"/><path class="cls-13" d="M203.95,238.38l-1.06,3.81h-3.48l4.53-14.83h4.4l4.6,14.83h-3.61l-1.14-3.81h-4.25Zm3.76-2.51l-.92-3.15c-.26-.88-.53-1.98-.75-2.86h-.04c-.22,.88-.44,2-.68,2.86l-.88,3.15h3.28Z"/><path class="cls-13" d="M214.93,227.55c1.08-.18,2.68-.31,4.47-.31,2.2,0,3.74,.33,4.8,1.17,.88,.7,1.36,1.74,1.36,3.1,0,1.89-1.34,3.19-2.62,3.65v.07c1.03,.42,1.61,1.41,1.98,2.77,.46,1.67,.92,3.61,1.21,4.18h-3.43c-.24-.42-.59-1.63-1.03-3.45-.4-1.85-1.03-2.35-2.4-2.38h-1.01v5.83h-3.32v-14.63Zm3.32,6.38h1.32c1.67,0,2.66-.84,2.66-2.13,0-1.36-.92-2.05-2.46-2.07-.81,0-1.28,.07-1.52,.11v4.09Z"/><path class="cls-13" d="M230.83,230.17h-3.98v-2.82h11.4v2.82h-4.05v12.01h-3.37v-12.01Z"/></g><g><path class="cls-13" d="M492.1,227.55c1.23-.2,2.84-.31,4.53-.31,2.82,0,4.64,.51,6.07,1.58,1.54,1.14,2.51,2.97,2.51,5.59,0,2.84-1.03,4.8-2.46,6.01-1.56,1.3-3.94,1.91-6.84,1.91-1.74,0-2.97-.11-3.81-.22v-14.57Zm3.37,12.1c.29,.07,.75,.07,1.17,.07,3.04,.02,5.02-1.65,5.02-5.19,.02-3.08-1.78-4.71-4.67-4.71-.75,0-1.23,.07-1.52,.13v9.7Z"/><path class="cls-13" d="M516.23,235.91h-5.46v3.52h6.09v2.75h-9.46v-14.83h9.15v2.75h-5.79v3.08h5.46v2.73Z"/><path class="cls-13" d="M519.16,227.35h9.07v2.75h-5.7v3.39h5.33v2.73h-5.33v5.96h-3.37v-14.83Z"/><path class="cls-13" d="M534.12,227.35v14.83h-3.37v-14.83h3.37Z"/><path class="cls-13" d="M537.02,242.18v-14.83h3.92l3.08,5.43c.88,1.56,1.76,3.41,2.42,5.08h.07c-.22-1.96-.29-3.96-.29-6.18v-4.33h3.08v14.83h-3.52l-3.17-5.72c-.88-1.58-1.85-3.5-2.57-5.24l-.07,.02c.09,1.96,.13,4.05,.13,6.47v4.47h-3.08Z"/><path class="cls-13" d="M561.02,235.91h-5.46v3.52h6.09v2.75h-9.46v-14.83h9.15v2.75h-5.79v3.08h5.46v2.73Z"/></g><g><path class="cls-13" d="M787.82,227.35v14.83h-3.37v-14.83h3.37Z"/><path class="cls-13" d="M790.72,242.18v-14.83h3.92l3.08,5.43c.88,1.56,1.76,3.41,2.42,5.08h.07c-.22-1.96-.29-3.96-.29-6.18v-4.33h3.08v14.83h-3.52l-3.17-5.72c-.88-1.58-1.85-3.5-2.57-5.24l-.07,.02c.09,1.96,.13,4.05,.13,6.47v4.47h-3.08Z"/><path class="cls-13" d="M810.34,227.55c1.03-.18,2.49-.31,4.53-.31s3.54,.4,4.53,1.19c.95,.75,1.58,1.98,1.58,3.43s-.48,2.68-1.36,3.52c-1.14,1.08-2.84,1.56-4.82,1.56-.44,0-.84-.02-1.14-.07v5.3h-3.32v-14.63Zm3.32,6.73c.29,.07,.64,.09,1.12,.09,1.78,0,2.88-.9,2.88-2.42,0-1.36-.95-2.18-2.62-2.18-.68,0-1.14,.07-1.39,.13v4.38Z"/><path class="cls-13" d="M823.12,227.55c1.08-.18,2.68-.31,4.47-.31,2.2,0,3.74,.33,4.8,1.17,.88,.7,1.36,1.74,1.36,3.1,0,1.89-1.34,3.19-2.62,3.65v.07c1.03,.42,1.61,1.41,1.98,2.77,.46,1.67,.92,3.61,1.21,4.18h-3.43c-.24-.42-.59-1.63-1.03-3.45-.4-1.85-1.03-2.35-2.4-2.38h-1.01v5.83h-3.32v-14.63Zm3.32,6.38h1.32c1.67,0,2.66-.84,2.66-2.13,0-1.36-.92-2.05-2.46-2.07-.81,0-1.28,.07-1.52,.11v4.09Z"/><path class="cls-13" d="M849.66,234.61c0,4.86-2.95,7.81-7.28,7.81s-6.97-3.32-6.97-7.55c0-4.44,2.84-7.77,7.22-7.77s7.04,3.41,7.04,7.5Zm-10.72,.2c0,2.9,1.36,4.95,3.61,4.95s3.56-2.16,3.56-5.04c0-2.66-1.28-4.95-3.59-4.95s-3.59,2.16-3.59,5.04Z"/><path class="cls-13" d="M864.24,241.5c-1.03,.35-2.99,.84-4.95,.84-2.71,0-4.67-.68-6.03-2-1.36-1.28-2.11-3.21-2.09-5.39,.02-4.93,3.61-7.75,8.47-7.75,1.91,0,3.39,.37,4.11,.73l-.7,2.68c-.81-.35-1.83-.64-3.45-.64-2.79,0-4.91,1.58-4.91,4.8s1.91,4.86,4.66,4.86c.77,0,1.39-.09,1.65-.22v-3.1h-2.29v-2.62h5.52v7.81Z"/><path class="cls-13" d="M866.86,227.55c1.08-.18,2.68-.31,4.47-.31,2.2,0,3.74,.33,4.8,1.17,.88,.7,1.36,1.74,1.36,3.1,0,1.89-1.34,3.19-2.62,3.65v.07c1.03,.42,1.61,1.41,1.98,2.77,.46,1.67,.92,3.61,1.21,4.18h-3.43c-.24-.42-.59-1.63-1.03-3.45-.4-1.85-1.03-2.35-2.4-2.38h-1.01v5.83h-3.32v-14.63Zm3.32,6.38h1.32c1.67,0,2.66-.84,2.66-2.13,0-1.36-.92-2.05-2.46-2.07-.81,0-1.28,.07-1.52,.11v4.09Z"/><path class="cls-13" d="M888.73,235.91h-5.46v3.52h6.1v2.75h-9.46v-14.83h9.15v2.75h-5.79v3.08h5.46v2.73Z"/><path class="cls-13" d="M891.76,238.73c.9,.46,2.29,.92,3.72,.92,1.54,0,2.35-.64,2.35-1.61s-.7-1.45-2.49-2.09c-2.46-.86-4.07-2.22-4.07-4.38,0-2.53,2.11-4.47,5.61-4.47,1.67,0,2.9,.35,3.78,.75l-.75,2.71c-.59-.29-1.65-.7-3.1-.7s-2.16,.66-2.16,1.43c0,.95,.84,1.36,2.75,2.09,2.62,.97,3.85,2.33,3.85,4.42,0,2.49-1.91,4.6-5.98,4.6-1.69,0-3.37-.44-4.2-.9l.68-2.77Z"/><path class="cls-13" d="M903.64,238.73c.9,.46,2.29,.92,3.72,.92,1.54,0,2.35-.64,2.35-1.61s-.7-1.45-2.49-2.09c-2.46-.86-4.07-2.22-4.07-4.38,0-2.53,2.11-4.47,5.61-4.47,1.67,0,2.91,.35,3.79,.75l-.75,2.71c-.59-.29-1.65-.7-3.1-.7s-2.16,.66-2.16,1.43c0,.95,.84,1.36,2.75,2.09,2.62,.97,3.85,2.33,3.85,4.42,0,2.49-1.91,4.6-5.98,4.6-1.69,0-3.37-.44-4.2-.9l.68-2.77Z"/></g><g class="cls-5"><path class="cls-13" d="M1118.91,227.35v14.83h-3.37v-14.83h3.37Z"/><path class="cls-13" d="M1121.81,242.18v-14.83h3.92l3.08,5.43c.88,1.56,1.76,3.41,2.42,5.08h.07c-.22-1.96-.29-3.96-.29-6.18v-4.33h3.08v14.83h-3.52l-3.17-5.72c-.88-1.58-1.85-3.5-2.57-5.24l-.07,.02c.09,1.96,.13,4.05,.13,6.47v4.47h-3.08Z"/><path class="cls-13" d="M1143.44,230.17h-3.98v-2.82h11.4v2.82h-4.05v12.01h-3.37v-12.01Z"/><path class="cls-13" d="M1161.46,235.91h-5.46v3.52h6.09v2.75h-9.46v-14.83h9.15v2.75h-5.79v3.08h5.46v2.73Z"/><path class="cls-13" d="M1164.49,238.73c.9,.46,2.29,.92,3.72,.92,1.54,0,2.36-.64,2.36-1.61s-.71-1.45-2.49-2.09c-2.46-.86-4.07-2.22-4.07-4.38,0-2.53,2.11-4.47,5.61-4.47,1.67,0,2.91,.35,3.79,.75l-.75,2.71c-.59-.29-1.65-.7-3.1-.7s-2.16,.66-2.16,1.43c0,.95,.84,1.36,2.75,2.09,2.62,.97,3.85,2.33,3.85,4.42,0,2.49-1.91,4.6-5.98,4.6-1.69,0-3.37-.44-4.2-.9l.68-2.77Z"/><path class="cls-13" d="M1179.12,230.17h-3.98v-2.82h11.4v2.82h-4.05v12.01h-3.37v-12.01Z"/><path class="cls-13" d="M1191.68,227.35v14.83h-3.37v-14.83h3.37Z"/><path class="cls-13" d="M1194.58,242.18v-14.83h3.92l3.08,5.43c.88,1.56,1.76,3.41,2.42,5.08h.07c-.22-1.96-.29-3.96-.29-6.18v-4.33h3.08v14.83h-3.52l-3.17-5.72c-.88-1.58-1.85-3.5-2.57-5.24l-.07,.02c.09,1.96,.13,4.05,.13,6.47v4.47h-3.08Z"/><path class="cls-13" d="M1222.15,241.5c-1.04,.35-2.99,.84-4.95,.84-2.71,0-4.66-.68-6.03-2-1.36-1.28-2.11-3.21-2.09-5.39,.02-4.93,3.61-7.75,8.47-7.75,1.91,0,3.39,.37,4.12,.73l-.71,2.68c-.81-.35-1.83-.64-3.45-.64-2.79,0-4.91,1.58-4.91,4.8s1.91,4.86,4.66,4.86c.77,0,1.39-.09,1.65-.22v-3.1h-2.29v-2.62h5.52v7.81Z"/></g><g class="cls-5"><path class="cls-13" d="M1461.56,227.55c1.23-.2,2.84-.31,4.53-.31,2.82,0,4.64,.51,6.07,1.58,1.54,1.14,2.51,2.97,2.51,5.59,0,2.84-1.03,4.8-2.46,6.01-1.56,1.3-3.94,1.91-6.84,1.91-1.74,0-2.97-.11-3.81-.22v-14.57Zm3.37,12.1c.29,.07,.75,.07,1.17,.07,3.04,.02,5.02-1.65,5.02-5.19,.02-3.08-1.78-4.71-4.67-4.71-.75,0-1.23,.07-1.52,.13v9.7Z"/><path class="cls-13" d="M1490.45,234.61c0,4.86-2.95,7.81-7.28,7.81s-6.97-3.32-6.97-7.55c0-4.44,2.84-7.77,7.22-7.77s7.04,3.41,7.04,7.5Zm-10.72,.2c0,2.9,1.36,4.95,3.61,4.95s3.56-2.16,3.56-5.04c0-2.66-1.28-4.95-3.59-4.95s-3.59,2.16-3.59,5.04Z"/><path class="cls-13" d="M1492.65,242.18v-14.83h3.92l3.08,5.43c.88,1.56,1.76,3.41,2.42,5.08h.07c-.22-1.96-.29-3.96-.29-6.18v-4.33h3.08v14.83h-3.52l-3.17-5.72c-.88-1.58-1.85-3.5-2.57-5.24l-.07,.02c.09,1.96,.13,4.05,.13,6.47v4.47h-3.08Z"/><path class="cls-13" d="M1516.65,235.91h-5.46v3.52h6.1v2.75h-9.46v-14.83h9.15v2.75h-5.79v3.08h5.46v2.73Z"/></g><g class="cls-5"><path class="cls-13" d="M1756.93,227.35v14.83h-3.37v-14.83h3.37Z"/><path class="cls-13" d="M1772.38,236.5c-.07-1.78-.13-3.94-.13-6.09h-.07c-.46,1.89-1.08,4-1.65,5.74l-1.8,5.79h-2.62l-1.58-5.74c-.48-1.74-.99-3.85-1.34-5.79h-.04c-.09,2-.15,4.29-.27,6.14l-.26,5.63h-3.1l.95-14.83h4.47l1.45,4.95c.46,1.72,.92,3.56,1.25,5.3h.07c.42-1.72,.92-3.67,1.41-5.33l1.58-4.93h4.38l.81,14.83h-3.28l-.22-5.68Z"/><path class="cls-13" d="M1778.45,227.55c1.04-.18,2.49-.31,4.53-.31s3.54,.4,4.53,1.19c.95,.75,1.58,1.98,1.58,3.43s-.48,2.68-1.37,3.52c-1.14,1.08-2.84,1.56-4.82,1.56-.44,0-.84-.02-1.14-.07v5.3h-3.32v-14.63Zm3.32,6.73c.29,.07,.64,.09,1.12,.09,1.78,0,2.88-.9,2.88-2.42,0-1.36-.95-2.18-2.62-2.18-.68,0-1.14,.07-1.39,.13v4.38Z"/><path class="cls-13" d="M1791.23,227.55c1.08-.18,2.68-.31,4.47-.31,2.2,0,3.74,.33,4.8,1.17,.88,.7,1.36,1.74,1.36,3.1,0,1.89-1.34,3.19-2.62,3.65v.07c1.04,.42,1.61,1.41,1.98,2.77,.46,1.67,.93,3.61,1.21,4.18h-3.43c-.24-.42-.6-1.63-1.04-3.45-.4-1.85-1.03-2.35-2.4-2.38h-1.01v5.83h-3.32v-14.63Zm3.32,6.38h1.32c1.67,0,2.66-.84,2.66-2.13,0-1.36-.92-2.05-2.46-2.07-.81,0-1.28,.07-1.52,.11v4.09Z"/><path class="cls-13" d="M1817.77,234.61c0,4.86-2.95,7.81-7.28,7.81s-6.97-3.32-6.97-7.55c0-4.44,2.84-7.77,7.22-7.77s7.04,3.41,7.04,7.5Zm-10.71,.2c0,2.9,1.36,4.95,3.61,4.95s3.56-2.16,3.56-5.04c0-2.66-1.28-4.95-3.59-4.95s-3.59,2.16-3.59,5.04Z"/><path class="cls-13" d="M1823.31,242.18l-4.75-14.83h3.68l1.8,6.27c.51,1.76,.97,3.45,1.32,5.3h.07c.38-1.78,.84-3.54,1.34-5.24l1.89-6.34h3.56l-4.99,14.83h-3.92Z"/><path class="cls-13" d="M1837.17,227.35v14.83h-3.37v-14.83h3.37Z"/><path class="cls-13" d="M1840.07,242.18v-14.83h3.92l3.08,5.43c.88,1.56,1.76,3.41,2.42,5.08h.07c-.22-1.96-.29-3.96-.29-6.18v-4.33h3.08v14.83h-3.52l-3.17-5.72c-.88-1.58-1.85-3.5-2.57-5.24l-.07,.02c.09,1.96,.13,4.05,.13,6.47v4.47h-3.08Z"/><path class="cls-13" d="M1867.64,241.5c-1.04,.35-2.99,.84-4.95,.84-2.71,0-4.66-.68-6.03-2-1.36-1.28-2.11-3.21-2.09-5.39,.02-4.93,3.61-7.75,8.47-7.75,1.91,0,3.39,.37,4.12,.73l-.71,2.68c-.81-.35-1.83-.64-3.45-.64-2.79,0-4.91,1.58-4.91,4.8s1.91,4.86,4.66,4.86c.77,0,1.39-.09,1.65-.22v-3.1h-2.29v-2.62h5.52v7.81Z"/></g><g><path class="cls-14" d="M203.78,194.94c-.52,0-1-.36-1.12-.9-.14-.62,.25-1.23,.87-1.37,3.3-.74,7.96-2.36,11.41-5.81,5.5-5.5,6.44-13.92,6.6-17.15-3.23,.15-11.65,1.1-17.15,6.6-3.45,3.45-5.06,8.11-5.81,11.4-.14,.62-.75,1.01-1.37,.87-.62-.14-1.01-.75-.87-1.37,1.18-5.23,3.34-9.44,6.42-12.52,6.47-6.47,16.4-7.22,19.29-7.29,.48-.01,.95,.17,1.29,.51,.34,.34,.53,.81,.51,1.29-.08,2.89-.82,12.83-7.29,19.29-3.08,3.08-7.3,5.24-12.52,6.42-.09,.02-.17,.03-.25,.03Z"/><path class="cls-14" d="M187.86,201.83c-.3,0-.59-.11-.82-.34-.45-.45-.44-1.18,0-1.62l8.55-8.46c.45-.45,1.18-.44,1.62,0,.45,.45,.44,1.18,0,1.62l-8.55,8.46c-.22,.22-.52,.33-.81,.33Z"/><path class="cls-14" d="M193.77,201.67c-.29,0-.59-.11-.81-.34-.45-.45-.45-1.18,0-1.62l5.47-5.47c.45-.45,1.18-.45,1.62,0,.45,.45,.45,1.18,0,1.62l-5.47,5.47c-.22,.22-.52,.34-.81,.34Z"/><path class="cls-14" d="M210.93,185.74c-1.42,0-2.75-.55-3.76-1.56-2.07-2.07-2.07-5.44,0-7.52,1-1,2.34-1.56,3.76-1.56s2.75,.55,3.76,1.56c1,1,1.56,2.34,1.56,3.76s-.55,2.75-1.56,3.76h0c-1,1-2.34,1.56-3.76,1.56Zm0-8.33c-.81,0-1.56,.31-2.13,.88-1.18,1.18-1.18,3.09,0,4.27,.57,.57,1.33,.88,2.13,.88s1.56-.31,2.13-.88h0c.57-.57,.88-1.33,.88-2.13s-.31-1.56-.88-2.13c-.57-.57-1.33-.88-2.13-.88Z"/><path class="cls-14" d="M208.29,205.12c-.17,0-.35-.03-.51-.1-.5-.21-.82-.69-.82-1.23v-6.83c0-.63,.51-1.15,1.15-1.15s1.15,.51,1.15,1.15v4.5l3.04-3.04c.02-.85,.03-2.87,.04-4.71,0-.63,.52-1.14,1.15-1.14h0c.63,0,1.15,.52,1.14,1.15,0,0,0,1.29-.01,2.59q-.02,3.06-.38,3.42l-5,5c-.26,.26-.59,.39-.94,.39Zm4.32-7.02h0Z"/><path class="cls-14" d="M194.27,184.26h-6.83c-.54,0-1.02-.32-1.23-.82-.21-.5-.09-1.07,.29-1.45l5-5q.35-.35,3.41-.38c1.3,0,2.59-.01,2.59-.01h0c.63,0,1.15,.51,1.15,1.14,0,.63-.51,1.15-1.14,1.15-1.83,0-3.86,.02-4.71,.04l-3.04,3.04h4.5c.63,0,1.15,.51,1.15,1.15s-.51,1.15-1.15,1.15Z"/></g></svg>