<?xml version="1.0" encoding="UTF-8"?><svg id="Layer_1" xmlns="http://www.w3.org/2000/svg" xmlns:xlink="http://www.w3.org/1999/xlink" viewBox="0 0 400 400"><defs><style>.cls-1{fill:url(#linear-gradient);}.cls-2{fill:#f9f9f9;}.cls-3{fill:#0e1101;}.cls-4{fill:#878787;}.cls-5{fill:#48dbfb;}</style><linearGradient id="linear-gradient" x1="1763.9" y1="114.36" x2="1591.14" y2="287.12" gradientTransform="translate(1886.66) rotate(-180) scale(1 -1)" gradientUnits="userSpaceOnUse"><stop offset="0" stop-color="#fff"/><stop offset="1" stop-color="#ebeaea"/></linearGradient></defs><g><polygon class="cls-3" points="80.76 195.74 80.76 195.28 80.76 195.28 80.76 195.74"/><path class="cls-3" d="M82.1,176.79l.14-.92s.02-.03,.04-.03,.03,.02,.03,.04h0l-.14,.92s-.02,.03-.04,.03c-.02,0-.03-.02-.03-.04Z"/><path class="cls-3" d="M86.31,157.78l.27-.89s.05-.06,.08-.04c.04,.01,.06,.05,.04,.08h0l-.27,.89s-.05,.05-.08,.04c-.03-.01-.05-.05-.04-.08Z"/><path class="cls-3" d="M93.33,139.62l.4-.84s.08-.07,.13-.05,.07,.08,.05,.13h0l-.4,.83s-.08,.07-.13,.05c-.05-.02-.07-.08-.05-.13Z"/><path class="cls-3" d="M102.99,122.72l.52-.77c.04-.06,.12-.08,.19-.04,.06,.04,.08,.12,.04,.19h0l-.52,.77c-.04,.06-.12,.08-.18,.04-.06-.04-.08-.12-.04-.18Z"/><path class="cls-3" d="M115.07,107.43l.63-.68c.06-.07,.17-.07,.24,0s.07,.17,0,.24h0l-.63,.68c-.06,.07-.17,.07-.23,0-.07-.06-.07-.17,0-.23Z"/><path class="cls-3" d="M129.28,94.1l.72-.58c.09-.07,.21-.06,.28,.03s.06,.21-.03,.28h0l-.72,.58c-.09,.07-.21,.06-.28-.03-.07-.09-.05-.21,.03-.28Z"/><path class="cls-3" d="M145.32,83.02l.8-.47c.11-.06,.25-.03,.32,.08,.06,.11,.03,.25-.08,.32h0l-.8,.46c-.11,.06-.25,.03-.32-.08-.06-.11-.03-.25,.08-.32Z"/><path class="cls-3" d="M162.83,74.46l.86-.34c.14-.05,.29,.01,.34,.15,.05,.14-.01,.29-.15,.34h0l-.86,.34c-.14,.05-.29-.01-.34-.15-.05-.14,.01-.29,.15-.34Z"/><path class="cls-3" d="M181.43,68.61l.91-.21c.16-.04,.32,.06,.36,.22,.04,.16-.06,.32-.22,.36h0l-.9,.2c-.16,.04-.32-.06-.36-.22-.04-.16,.06-.32,.22-.36Z"/><path class="cls-3" d="M200.71,65.63l.93-.07c.18-.01,.34,.12,.36,.31,.01,.18-.12,.34-.31,.36h0l-.92,.07h0c-.18,.01-.34-.12-.35-.31-.01-.18,.12-.34,.3-.35Z"/><path class="cls-3" d="M220.22,65.52l.93,.07c.2,.01,.35,.19,.34,.39-.01,.2-.19,.35-.39,.34h0l-.92-.07h0c-.2-.02-.35-.19-.34-.39,.02-.2,.19-.35,.39-.34Z"/><path class="cls-3" d="M239.53,68.3l.91,.2c.21,.05,.35,.26,.3,.48-.05,.21-.26,.35-.48,.3h0l-.9-.21h0c-.21-.05-.35-.26-.3-.48,.05-.21,.26-.35,.47-.3Z"/><path class="cls-3" d="M258.22,73.95l.87,.34c.22,.09,.33,.34,.24,.56-.09,.22-.34,.33-.56,.24h0l-.86-.34h0c-.22-.09-.33-.34-.24-.56,.09-.22,.34-.33,.56-.24Z"/><path class="cls-3" d="M275.85,82.34l.81,.46c.22,.13,.3,.41,.17,.63-.13,.22-.41,.3-.63,.17h0l-.8-.47h0c-.22-.13-.3-.41-.17-.63,.13-.22,.41-.3,.63-.17Z"/><path class="cls-3" d="M292.04,93.27l.73,.58c.22,.17,.25,.48,.08,.7-.17,.22-.48,.25-.7,.08h0l-.72-.58h0c-.21-.17-.25-.49-.08-.7s.48-.25,.7-.08Z"/><path class="cls-3" d="M306.43,106.48l.63,.68c.2,.21,.19,.55-.03,.75-.21,.2-.55,.19-.75-.03h0l-.63-.68h0c-.2-.22-.19-.55,.03-.75,.21-.2,.55-.19,.75,.03Z"/><path class="cls-3" d="M318.7,121.68l.53,.77c.18,.26,.11,.61-.15,.78s-.61,.11-.78-.15h0l-.52-.77h0c-.17-.26-.11-.61,.15-.78s.61-.11,.78,.15Z"/><path class="cls-3" d="M328.58,138.55l.41,.84c.14,.3,.02,.65-.28,.8-.3,.14-.65,.02-.8-.28h0l-.4-.84h0c-.14-.3-.02-.66,.28-.8,.3-.14,.65-.02,.79,.28Z"/><path class="cls-3" d="M335.82,156.71l.28,.89c.1,.33-.08,.69-.42,.79-.33,.1-.69-.08-.79-.42h0l-.27-.89h0c-.1-.34,.08-.69,.42-.79,.33-.1,.68,.08,.78,.41Z"/><path class="cls-3" d="M340.26,175.75l.14,.92c.05,.36-.19,.7-.56,.75-.36,.05-.7-.19-.75-.56h0l-.14-.92h0c-.05-.37,.2-.7,.56-.76,.36-.05,.7,.19,.75,.56Z"/><path class="cls-3" d="M341.81,195.27v.47c0,.38-.31,.7-.69,.7-.38,0-.7-.31-.7-.69h0v-.47h0c0-.39,.31-.7,.69-.7s.69,.31,.69,.69Z"/></g><path class="cls-1" d="M86.98,200.74c0,67.47,54.69,122.16,122.16,122.16s122.16-54.69,122.16-122.16c0-47.78-27.43-89.15-67.41-109.23-8.38-4.21-17.31-7.48-26.65-9.68-9.02-2.13-18.43-3.25-28.1-3.25-67.47,0-122.16,54.69-122.16,122.16Z"/><circle class="cls-2" cx="209.14" cy="200.74" r="117.04" transform="translate(-80.69 206.68) rotate(-45)"/><path class="cls-5" d="M208.94,334.48c-33.48,0-65.51-12.43-90.2-35-24.53-22.42-39.78-52.91-42.93-85.86l3.69-.35c6.4,66.99,62.05,117.5,129.43,117.5,71.7,0,130.03-58.33,130.03-130.03h3.71c0,35.72-13.91,69.31-39.17,94.57-25.26,25.26-58.84,39.17-94.57,39.17Z"/><path class="cls-5" d="M60.78,234.25c-.31,0-.63-.05-.94-.16-1.06-.38-1.79-1.35-1.84-2.48l-.67-13.38c-.04-.73,.22-1.46,.72-2.01l17.01-18.82c.5-.55,1.18-.88,1.92-.91,.75-.04,1.45,.22,2.01,.71l18.82,17.02c.55,.5,.88,1.18,.91,1.92l.67,13.38c.06,1.13-.57,2.17-1.59,2.65-1.02,.48-2.22,.31-3.06-.45l-16.75-15.16-15.15,16.76c-.54,.6-1.29,.92-2.06,.92Zm.27-15.82l.54,10.76,14.27-15.79c.5-.55,1.18-.88,1.92-.91,.74-.04,1.45,.22,2.01,.71l15.78,14.28-.54-10.76-17.84-16.14-16.14,17.84Z"/><g><path class="cls-4" d="M179.26,230.89c.9,.46,2.29,.92,3.72,.92,1.54,0,2.35-.64,2.35-1.61s-.7-1.45-2.49-2.09c-2.46-.86-4.07-2.22-4.07-4.38,0-2.53,2.11-4.47,5.61-4.47,1.67,0,2.91,.35,3.79,.75l-.75,2.71c-.59-.29-1.65-.7-3.1-.7s-2.16,.66-2.16,1.43c0,.95,.84,1.36,2.75,2.09,2.62,.97,3.85,2.33,3.85,4.42,0,2.49-1.91,4.6-5.98,4.6-1.69,0-3.37-.44-4.2-.9l.68-2.77Z"/><path class="cls-4" d="M193.89,222.33h-3.98v-2.82h11.4v2.82h-4.05v12.01h-3.37v-12.01Z"/><path class="cls-4" d="M204.96,230.54l-1.06,3.81h-3.48l4.53-14.83h4.4l4.6,14.83h-3.61l-1.14-3.81h-4.25Zm3.76-2.51l-.92-3.15c-.26-.88-.53-1.98-.75-2.86h-.04c-.22,.88-.44,2-.68,2.86l-.88,3.15h3.28Z"/><path class="cls-4" d="M215.93,219.71c1.08-.18,2.68-.31,4.47-.31,2.2,0,3.74,.33,4.8,1.17,.88,.7,1.36,1.74,1.36,3.1,0,1.89-1.34,3.19-2.62,3.65v.07c1.03,.42,1.61,1.41,1.98,2.77,.46,1.67,.92,3.61,1.21,4.18h-3.43c-.24-.42-.59-1.63-1.03-3.45-.4-1.85-1.03-2.35-2.4-2.38h-1.01v5.83h-3.32v-14.63Zm3.32,6.38h1.32c1.67,0,2.66-.84,2.66-2.13,0-1.36-.92-2.05-2.46-2.07-.81,0-1.28,.07-1.52,.11v4.09Z"/><path class="cls-4" d="M231.84,222.33h-3.98v-2.82h11.4v2.82h-4.05v12.01h-3.37v-12.01Z"/></g><g><path class="cls-5" d="M204.79,187.1c-.52,0-1-.36-1.12-.9-.14-.62,.25-1.23,.87-1.37,3.3-.74,7.96-2.36,11.41-5.81,5.5-5.5,6.44-13.92,6.6-17.15-3.23,.15-11.65,1.1-17.15,6.6-3.45,3.45-5.06,8.11-5.81,11.4-.14,.62-.75,1.01-1.37,.87-.62-.14-1.01-.75-.87-1.37,1.18-5.23,3.34-9.44,6.42-12.52,6.47-6.47,16.4-7.22,19.29-7.29,.48-.01,.95,.17,1.29,.51,.34,.34,.53,.81,.51,1.29-.08,2.89-.82,12.83-7.29,19.29-3.08,3.08-7.3,5.24-12.52,6.42-.09,.02-.17,.03-.25,.03Z"/><path class="cls-5" d="M188.87,193.99c-.3,0-.59-.11-.82-.34-.45-.45-.44-1.18,0-1.62l8.55-8.46c.45-.45,1.18-.44,1.62,0,.45,.45,.44,1.18,0,1.62l-8.55,8.46c-.22,.22-.52,.33-.81,.33Z"/><path class="cls-5" d="M194.77,193.83c-.29,0-.59-.11-.81-.34-.45-.45-.45-1.18,0-1.62l5.47-5.47c.45-.45,1.18-.45,1.62,0,.45,.45,.45,1.18,0,1.62l-5.47,5.47c-.22,.22-.52,.34-.81,.34Z"/><path class="cls-5" d="M211.93,177.9c-1.42,0-2.75-.55-3.76-1.56-2.07-2.07-2.07-5.44,0-7.52,1-1,2.34-1.56,3.76-1.56s2.75,.55,3.76,1.56c1,1,1.56,2.34,1.56,3.76s-.55,2.75-1.56,3.76h0c-1,1-2.34,1.56-3.76,1.56Zm0-8.33c-.81,0-1.56,.31-2.13,.88-1.18,1.18-1.18,3.09,0,4.27,.57,.57,1.33,.88,2.13,.88s1.56-.31,2.13-.88h0c.57-.57,.88-1.33,.88-2.13s-.31-1.56-.88-2.13c-.57-.57-1.33-.88-2.13-.88Z"/><path class="cls-5" d="M209.29,197.28c-.17,0-.35-.03-.51-.1-.5-.21-.82-.69-.82-1.23v-6.83c0-.63,.51-1.15,1.15-1.15s1.15,.51,1.15,1.15v4.5l3.04-3.04c.02-.85,.03-2.87,.04-4.71,0-.63,.52-1.14,1.15-1.14h0c.63,0,1.15,.52,1.14,1.15,0,0,0,1.29-.01,2.59q-.02,3.06-.38,3.42l-5,5c-.26,.26-.59,.39-.94,.39Zm4.32-7.02h0Z"/><path class="cls-5" d="M195.27,176.43h-6.83c-.54,0-1.02-.32-1.23-.82-.21-.5-.09-1.07,.29-1.45l5-5q.35-.35,3.41-.38c1.3,0,2.59-.01,2.59-.01h0c.63,0,1.15,.51,1.15,1.14,0,.63-.51,1.15-1.14,1.15-1.83,0-3.86,.02-4.71,.04l-3.04,3.04h4.5c.63,0,1.15,.51,1.15,1.15s-.51,1.15-1.15,1.15Z"/></g></svg>