<?xml version="1.0" encoding="UTF-8"?><svg id="Layer_1" xmlns="http://www.w3.org/2000/svg" xmlns:xlink="http://www.w3.org/1999/xlink" viewBox="0 0 400 400"><defs><style>.cls-1{fill:#f9f9f9;}.cls-1,.cls-2,.cls-3{opacity:.1;}.cls-4{fill:#b848ed;}.cls-5{fill:#0e1101;}.cls-6{fill:#878787;}.cls-3{fill:url(#linear-gradient);}</style><linearGradient id="linear-gradient" x1="930.9" y1="113.3" x2="758.14" y2="286.06" gradientTransform="translate(1046.66) rotate(-180) scale(1 -1)" gradientUnits="userSpaceOnUse"><stop offset="0" stop-color="#fff"/><stop offset="1" stop-color="#ebeaea"/></linearGradient></defs><g class="cls-2"><polygon class="cls-5" points="288.18 295.73 287.85 296.06 287.85 296.06 287.85 296.06 288.18 295.73"/><path class="cls-5" d="M273.84,308.2l-.74,.55s-.06,.01-.08-.01c-.02-.03-.01-.06,.01-.08h0l.75-.55s.06-.01,.08,.01c.02,.02,.01,.06-.01,.08Z"/><path class="cls-5" d="M257.43,318.68l-.82,.44c-.05,.03-.12,0-.15-.05-.03-.05,0-.12,.05-.15h0l.82-.43c.05-.03,.12,0,.15,.04,.03,.05,0,.12-.05,.15Z"/><path class="cls-5" d="M239.63,326.58l-.88,.31c-.09,.03-.18-.02-.21-.1-.03-.09,.02-.18,.1-.21h0l.88-.3c.09-.03,.18,.01,.21,.1,.03,.09-.02,.18-.1,.21Z"/><path class="cls-5" d="M220.83,331.73l-.91,.17c-.12,.02-.24-.06-.26-.18-.02-.12,.06-.24,.18-.26h0l.91-.17c.12-.02,.23,.05,.26,.17,.02,.12-.06,.23-.17,.26Z"/><path class="cls-5" d="M201.47,334.02l-.93,.04c-.15,0-.28-.11-.29-.27,0-.15,.11-.28,.27-.29h0l.92-.03c.15,0,.28,.11,.29,.26,0,.15-.11,.28-.26,.29Z"/><path class="cls-5" d="M181.98,333.42l-.92-.1c-.18-.02-.31-.18-.29-.37,.02-.18,.18-.31,.37-.29h0l.92,.11h0c.18,.02,.31,.18,.29,.37-.02,.18-.18,.31-.36,.29Z"/><path class="cls-5" d="M162.78,329.94l-.9-.24c-.21-.05-.33-.27-.28-.47,.05-.21,.27-.33,.47-.28h0l.89,.24h0c.21,.06,.33,.27,.27,.47-.06,.2-.27,.33-.47,.27Z"/><path class="cls-5" d="M144.31,323.62l-.85-.37c-.22-.1-.33-.36-.23-.58s.36-.33,.58-.23h0l.85,.37h0c.22,.1,.32,.36,.23,.58-.1,.22-.36,.32-.58,.23Z"/><path class="cls-5" d="M126.99,314.6l-.79-.49c-.23-.15-.3-.45-.16-.69,.15-.23,.45-.3,.69-.16h0l.78,.5h0c.23,.15,.3,.45,.15,.69-.15,.23-.45,.3-.68,.15Z"/><path class="cls-5" d="M111.21,303.08l-.71-.61c-.23-.2-.26-.55-.06-.78,.2-.23,.55-.26,.78-.06h0l.7,.61h0c.23,.2,.25,.55,.06,.78-.2,.23-.54,.25-.77,.06Z"/><path class="cls-5" d="M97.3,289.35l-.61-.7c-.22-.25-.19-.64,.06-.86,.25-.22,.64-.19,.86,.06h0l.6,.71h0c.22,.26,.19,.64-.07,.86-.25,.22-.63,.19-.85-.06Z"/><path class="cls-5" d="M85.57,273.71l-.5-.79c-.2-.31-.1-.72,.21-.92s.72-.1,.92,.21h0l.49,.79h0c.19,.31,.1,.72-.21,.92-.31,.19-.71,.1-.91-.21Z"/><path class="cls-5" d="M76.31,256.48l-.38-.85c-.16-.36,0-.79,.37-.95,.36-.16,.79,0,.95,.37h0l.37,.86h0c.16,.37,0,.79-.37,.95-.36,.16-.78,0-.94-.37Z"/><path class="cls-5" d="M69.74,238.04l-.24-.9c-.11-.41,.13-.84,.55-.95s.84,.13,.95,.55h0l.24,.9h0c.11,.42-.14,.84-.55,.95-.41,.11-.83-.14-.94-.54Z"/><path class="cls-5" d="M65.99,218.83l-.11-.93c-.05-.46,.27-.87,.73-.92,.46-.05,.87,.27,.92,.73h0l.1,.93h0c.05,.46-.28,.87-.73,.92-.45,.05-.86-.28-.91-.73Z"/><path class="cls-5" d="M65.14,199.26l.03-.93c.02-.49,.43-.87,.91-.85,.49,.02,.87,.43,.85,.91h0l-.04,.93h0c-.02,.49-.43,.87-.92,.85-.48-.02-.86-.43-.85-.91Z"/><path class="cls-5" d="M67.19,179.78l.17-.92c.09-.51,.58-.85,1.1-.75,.51,.09,.85,.58,.75,1.1h0l-.17,.92h0c-.1,.51-.59,.85-1.1,.75-.51-.1-.84-.58-.75-1.09Z"/><path class="cls-5" d="M72.13,160.81l.31-.88c.18-.52,.75-.79,1.27-.62,.52,.18,.79,.75,.62,1.27h0l-.31,.88h0c-.18,.52-.75,.8-1.27,.61-.51-.18-.79-.74-.61-1.26Z"/><path class="cls-5" d="M79.84,142.78l.43-.83c.27-.51,.9-.71,1.42-.44,.51,.27,.71,.9,.44,1.42h0l-.43,.82h0c-.27,.52-.91,.71-1.42,.44-.51-.27-.7-.9-.44-1.41Z"/><path class="cls-5" d="M90.19,126.11l.55-.75c.36-.49,1.05-.6,1.55-.24,.49,.36,.6,1.05,.24,1.55h0l-.55,.75h0c-.36,.49-1.05,.6-1.54,.23-.49-.36-.59-1.05-.23-1.54Z"/><path class="cls-5" d="M102.92,111.14l.33-.33c.45-.45,1.18-.46,1.64,0,.45,.45,.46,1.18,0,1.64h0l-.33,.33h0c-.45,.45-1.19,.45-1.64,0-.45-.45-.45-1.18,0-1.63Z"/></g><path class="cls-3" d="M79.98,199.68c0,67.47,54.69,122.16,122.16,122.16s122.16-54.69,122.16-122.16c0-47.78-27.43-89.15-67.41-109.23-8.38-4.21-17.31-7.48-26.65-9.68-9.02-2.13-18.43-3.25-28.1-3.25-67.47,0-122.16,54.69-122.16,122.16Z"/><circle class="cls-1" cx="202.14" cy="199.68" r="117.04" transform="translate(-81.99 201.42) rotate(-45)"/><g class="cls-2"><path class="cls-4" d="M304.37,284.7l-2.86-2.36c42.84-51.89,39.21-126.96-8.44-174.61-24.56-24.56-57.21-38.08-91.94-38.08s-67.39,13.53-91.94,38.08l-2.62-2.62c25.26-25.26,58.84-39.17,94.57-39.17s69.31,13.91,94.57,39.17c23.67,23.67,37.53,55.11,39.04,88.53,1.49,33.2-9.29,65.54-30.36,91.07Z"/></g><g class="cls-2"><path class="cls-4" d="M292.01,297.99c-.69,0-1.35-.25-1.86-.72-.55-.5-.88-1.18-.91-1.92l-1.27-25.34c-.04-.73,.22-1.46,.72-2.01l8.98-9.93c.76-.84,1.93-1.13,3-.75,1.06,.38,1.79,1.35,1.84,2.48l1.13,22.56,22.56-1.14c1.13-.06,2.17,.57,2.65,1.59,.48,1.02,.31,2.22-.45,3.06l-8.98,9.94c-.49,.54-1.19,.88-1.92,.91l-25.34,1.27s-.1,0-.14,0Zm-.33-27.78l1.21,24.03,24.03-1.21,7.22-7.99-21.25,1.07c-.75,.04-1.46-.22-2.01-.72-.55-.5-.88-1.18-.91-1.93l-1.06-21.25-7.22,7.99Z"/></g><g class="cls-2"><path class="cls-4" d="M197.56,192.15c-9.49,0-17.21-7.72-17.21-17.21s7.72-17.21,17.21-17.21c7.76,0,14.6,5.23,16.62,12.71,.17,.61-.2,1.24-.81,1.41-.61,.17-1.24-.2-1.41-.81-1.75-6.48-7.68-11.01-14.4-11.01-8.23,0-14.92,6.69-14.92,14.92s6.69,14.92,14.92,14.92c6.73,0,12.65-4.53,14.4-11.01,.17-.61,.8-.97,1.41-.81,.61,.17,.97,.8,.81,1.41-2.02,7.48-8.86,12.71-16.62,12.71Z"/><path class="cls-4" d="M222.78,179.81c-.31,0-.61-.12-.84-.36l-4.41-4.66,4.39-4.39c.45-.45,1.18-.45,1.62,0,.45,.45,.45,1.18,0,1.62l-2.81,2.81,2.87,3.04c.44,.46,.41,1.19-.05,1.62-.22,.21-.51,.31-.79,.31Z"/><path class="cls-4" d="M197.56,186.56c-6.41,0-11.63-5.22-11.63-11.63s5.22-11.63,11.63-11.63c4.59,0,8.76,2.71,10.62,6.9,.26,.58,0,1.26-.58,1.52-.58,.26-1.26,0-1.52-.58-1.5-3.36-4.85-5.54-8.53-5.54-5.14,0-9.33,4.19-9.33,9.33s4.19,9.33,9.33,9.33c3.76,0,7.13-2.24,8.6-5.7,.25-.58,.92-.86,1.51-.61,.58,.25,.86,.92,.61,1.51-1.82,4.31-6.03,7.1-10.71,7.1Z"/><path class="cls-4" d="M197.56,196.42c-.63,0-1.15-.51-1.15-1.15v-4.27c0-.63,.51-1.15,1.15-1.15s1.15,.51,1.15,1.15v4.27c0,.63-.51,1.15-1.15,1.15Z"/><path class="cls-4" d="M211.31,196.99c-.29,0-.59-.11-.81-.34l-6.54-6.54c-.45-.45-.45-1.18,0-1.62,.45-.45,1.18-.45,1.62,0l6.54,6.54c.45,.45,.45,1.18,0,1.62-.22,.22-.52,.34-.81,.34Z"/><path class="cls-4" d="M183.81,196.99c-.29,0-.59-.11-.81-.34-.45-.45-.45-1.18,0-1.62l6.54-6.54c.45-.45,1.18-.45,1.62,0,.45,.45,.45,1.18,0,1.62l-6.54,6.54c-.22,.22-.52,.34-.81,.34Z"/><path class="cls-4" d="M219.29,176.09h-20.98c-.63,0-1.15-.51-1.15-1.15s.51-1.15,1.15-1.15h20.98c.63,0,1.15,.51,1.15,1.15s-.51,1.15-1.15,1.15Z"/></g><g class="cls-2"><path class="cls-6" d="M148.12,218.45v14.83h-3.37v-14.83h3.37Z"/><path class="cls-6" d="M163.56,227.61c-.07-1.78-.13-3.94-.13-6.09h-.07c-.46,1.89-1.08,4-1.65,5.74l-1.8,5.79h-2.62l-1.58-5.74c-.48-1.74-.99-3.85-1.34-5.79h-.04c-.09,2-.15,4.29-.27,6.14l-.26,5.63h-3.1l.95-14.83h4.47l1.45,4.95c.46,1.72,.92,3.56,1.25,5.3h.07c.42-1.72,.92-3.67,1.41-5.33l1.58-4.93h4.38l.81,14.83h-3.28l-.22-5.68Z"/><path class="cls-6" d="M169.63,218.65c1.04-.18,2.49-.31,4.53-.31s3.54,.4,4.53,1.19c.95,.75,1.58,1.98,1.58,3.43s-.48,2.68-1.37,3.52c-1.14,1.08-2.84,1.56-4.82,1.56-.44,0-.84-.02-1.14-.07v5.3h-3.32v-14.63Zm3.32,6.73c.29,.07,.64,.09,1.12,.09,1.78,0,2.88-.9,2.88-2.42,0-1.36-.95-2.18-2.62-2.18-.68,0-1.14,.07-1.39,.13v4.38Z"/><path class="cls-6" d="M182.41,218.65c1.08-.18,2.68-.31,4.47-.31,2.2,0,3.74,.33,4.8,1.17,.88,.7,1.36,1.74,1.36,3.1,0,1.89-1.34,3.19-2.62,3.65v.07c1.04,.42,1.61,1.41,1.98,2.77,.46,1.67,.93,3.61,1.21,4.18h-3.43c-.24-.42-.6-1.63-1.04-3.45-.4-1.85-1.03-2.35-2.4-2.38h-1.01v5.83h-3.32v-14.63Zm3.32,6.38h1.32c1.67,0,2.66-.84,2.66-2.13,0-1.36-.92-2.05-2.46-2.07-.81,0-1.28,.07-1.52,.11v4.09Z"/><path class="cls-6" d="M208.95,225.71c0,4.86-2.95,7.81-7.28,7.81s-6.97-3.32-6.97-7.55c0-4.44,2.84-7.77,7.22-7.77s7.04,3.41,7.04,7.5Zm-10.71,.2c0,2.9,1.36,4.95,3.61,4.95s3.56-2.16,3.56-5.04c0-2.66-1.28-4.95-3.59-4.95s-3.59,2.16-3.59,5.04Z"/><path class="cls-6" d="M214.49,233.28l-4.75-14.83h3.68l1.8,6.27c.51,1.76,.97,3.45,1.32,5.3h.07c.38-1.78,.84-3.54,1.34-5.24l1.89-6.34h3.56l-4.99,14.83h-3.92Z"/><path class="cls-6" d="M228.35,218.45v14.83h-3.37v-14.83h3.37Z"/><path class="cls-6" d="M231.25,233.28v-14.83h3.92l3.08,5.43c.88,1.56,1.76,3.41,2.42,5.08h.07c-.22-1.96-.29-3.96-.29-6.18v-4.33h3.08v14.83h-3.52l-3.17-5.72c-.88-1.58-1.85-3.5-2.57-5.24l-.07,.02c.09,1.96,.13,4.05,.13,6.47v4.47h-3.08Z"/><path class="cls-6" d="M258.82,232.6c-1.04,.35-2.99,.84-4.95,.84-2.71,0-4.66-.68-6.03-2-1.36-1.28-2.11-3.21-2.09-5.39,.02-4.93,3.61-7.75,8.47-7.75,1.91,0,3.39,.37,4.12,.73l-.71,2.68c-.81-.35-1.83-.64-3.45-.64-2.79,0-4.91,1.58-4.91,4.8s1.91,4.86,4.66,4.86c.77,0,1.39-.09,1.65-.22v-3.1h-2.29v-2.62h5.52v7.81Z"/></g></svg>