<?xml version="1.0" encoding="UTF-8"?><svg id="Layer_1" xmlns="http://www.w3.org/2000/svg" xmlns:xlink="http://www.w3.org/1999/xlink" viewBox="0 0 400 400"><defs><style>.cls-1{fill:#f9f9f9;}.cls-1,.cls-2,.cls-3{opacity:.1;}.cls-4{fill:#8c29cc;}.cls-5{fill:#0e1101;}.cls-6{fill:#878787;}.cls-3{fill:url(#linear-gradient);}</style><linearGradient id="linear-gradient" x1="1781.9" y1="112.26" x2="1609.15" y2="285.02" gradientTransform="translate(1886.66) rotate(-180) scale(1 -1)" gradientUnits="userSpaceOnUse"><stop offset="0" stop-color="#fff"/><stop offset="1" stop-color="#ebeaea"/></linearGradient></defs><g class="cls-2"><polygon class="cls-5" points="320.24 204.64 320.24 205.1 320.24 205.1 320.24 205.1 320.24 205.1 320.24 204.64"/><path class="cls-5" d="M318.93,223.59l-.13,.92s-.03,.05-.06,.05c-.03,0-.05-.03-.05-.06h0l.14-.92s.03-.05,.06-.05c.03,0,.05,.03,.05,.06Z"/><path class="cls-5" d="M314.73,242.61l-.27,.89c-.02,.06-.08,.09-.14,.07-.06-.02-.09-.08-.07-.14h0l.28-.89c.02-.06,.08-.09,.14-.07,.06,.02,.09,.08,.07,.14Z"/><path class="cls-5" d="M307.73,260.78l-.4,.84c-.04,.08-.14,.12-.22,.08-.08-.04-.12-.14-.08-.22h0l.4-.83c.04-.08,.14-.12,.22-.08,.08,.04,.12,.14,.08,.22Z"/><path class="cls-5" d="M298.08,277.71l-.52,.77c-.07,.1-.21,.13-.31,.06-.1-.07-.13-.21-.06-.31h0l.52-.77c.07-.1,.2-.13,.3-.06,.1,.07,.13,.2,.06,.31Z"/><path class="cls-5" d="M286.01,293.03l-.63,.68c-.1,.11-.28,.12-.39,.02-.11-.1-.12-.28-.02-.39h0l.63-.68c.1-.11,.28-.12,.39-.02,.11,.1,.12,.28,.02,.39Z"/><path class="cls-5" d="M271.8,306.38l-.72,.58c-.14,.12-.35,.09-.47-.05-.12-.14-.09-.35,.05-.47h0l.72-.58h0c.14-.11,.35-.09,.46,.05,.11,.14,.09,.35-.05,.46Z"/><path class="cls-5" d="M255.76,317.49l-.8,.47c-.19,.11-.42,.05-.53-.14-.11-.19-.05-.42,.14-.53h0l.8-.46h0c.18-.11,.42-.04,.53,.14,.11,.18,.04,.42-.14,.52Z"/><path class="cls-5" d="M238.24,326.09l-.86,.34c-.23,.09-.48-.02-.57-.25-.09-.23,.02-.48,.25-.57h0l.86-.34h0c.23-.09,.48,.02,.57,.25,.09,.23-.02,.48-.25,.57Z"/><path class="cls-5" d="M219.61,331.96l-.91,.21c-.27,.06-.54-.11-.6-.37-.06-.27,.11-.54,.37-.6h0l.9-.2h0c.27-.06,.53,.11,.59,.37,.06,.27-.11,.53-.37,.59Z"/><path class="cls-5" d="M200.31,334.97l-.93,.07c-.3,.02-.57-.2-.59-.51-.02-.3,.2-.57,.51-.59h0l.92-.07h0c.3-.02,.57,.21,.59,.51,.02,.3-.21,.56-.51,.59Z"/><path class="cls-5" d="M180.77,335.1l-.93-.07c-.34-.02-.59-.31-.56-.65,.02-.34,.31-.59,.65-.56h0l.92,.07h0c.33,.03,.58,.32,.56,.65-.03,.33-.31,.58-.65,.56Z"/><path class="cls-5" d="M161.41,332.33l-.91-.2c-.36-.08-.58-.44-.5-.79,.08-.36,.44-.58,.79-.5h0l.9,.21h0c.36,.08,.58,.44,.5,.79-.08,.35-.43,.58-.79,.5Z"/><path class="cls-5" d="M142.68,326.69l-.87-.34c-.37-.14-.55-.56-.41-.93,.14-.37,.56-.55,.93-.41h0l.86,.34h0c.37,.15,.55,.56,.4,.93-.15,.37-.56,.55-.93,.4Z"/><path class="cls-5" d="M124.99,318.31l-.81-.46c-.37-.21-.5-.69-.29-1.06,.21-.37,.69-.5,1.06-.29h0l.8,.47h0c.37,.22,.49,.69,.28,1.06-.21,.37-.68,.49-1.05,.28Z"/><path class="cls-5" d="M108.76,307.37l-.73-.58c-.36-.28-.42-.81-.13-1.17,.28-.36,.81-.42,1.17-.13h0l.72,.58h0c.36,.29,.41,.81,.13,1.17-.28,.35-.8,.41-1.16,.13Z"/><path class="cls-5" d="M94.32,294.14l-.64-.68c-.33-.36-.31-.92,.04-1.25,.36-.33,.92-.31,1.25,.04h0l.62,.68h0c.33,.36,.31,.92-.05,1.25-.36,.33-.91,.31-1.24-.05Z"/><path class="cls-5" d="M81.99,278.91l-.53-.77c-.29-.43-.19-1.01,.24-1.31,.43-.29,1.01-.19,1.31,.24h0l.52,.77h0c.29,.43,.18,1.02-.25,1.31-.43,.29-1.01,.18-1.3-.24Z"/><path class="cls-5" d="M72.07,262l-.41-.84c-.24-.49-.03-1.09,.46-1.33,.49-.24,1.09-.03,1.33,.46h0l.4,.84h0c.24,.5,.03,1.09-.47,1.33-.49,.24-1.08,.03-1.32-.46Z"/><path class="cls-5" d="M64.78,243.8l-.28-.89c-.17-.55,.14-1.14,.69-1.31,.55-.17,1.14,.14,1.31,.69h0l.27,.89h0c.17,.56-.14,1.15-.7,1.31-.55,.17-1.13-.14-1.31-.69Z"/><path class="cls-5" d="M60.3,224.7l-.14-.92c-.09-.6,.32-1.17,.93-1.26,.6-.09,1.17,.32,1.26,.93h0l.13,.92h0c.09,.61-.33,1.17-.93,1.26-.6,.09-1.16-.33-1.25-.92Z"/><path class="cls-5" d="M58.72,205.11v-.47c0-.64,.51-1.16,1.15-1.16,.64,0,1.16,.51,1.16,1.15h0v.47h0c0,.64-.52,1.16-1.16,1.16-.64,0-1.15-.52-1.16-1.15Z"/></g><path class="cls-3" d="M68.98,198.64c0,67.47,54.69,122.16,122.16,122.16s122.16-54.69,122.16-122.16c0-47.78-27.43-89.15-67.41-109.23-8.38-4.21-17.31-7.48-26.65-9.68-9.02-2.13-18.43-3.25-28.1-3.25-67.47,0-122.16,54.69-122.16,122.16Z"/><circle class="cls-1" cx="191.14" cy="198.64" r="117.04" transform="translate(-84.48 193.33) rotate(-45)"/><g class="cls-2"><path class="cls-4" d="M61.03,198.64h-3.71c0-35.72,13.91-69.31,39.17-94.57,25.26-25.26,58.84-39.17,94.57-39.17,33.48,0,65.51,12.43,90.2,35,24.53,22.42,39.78,52.91,42.92,85.86l-3.69,.35c-6.4-66.99-62.05-117.5-129.43-117.5-71.7,0-130.03,58.33-130.03,130.03Z"/></g><g class="cls-2"><path class="cls-4" d="M322.88,203.82c-.67,0-1.33-.24-1.86-.72l-18.82-17.01c-.55-.5-.88-1.18-.91-1.92l-.67-13.38c-.06-1.13,.57-2.17,1.59-2.65,1.02-.48,2.22-.31,3.06,.45l16.75,15.16,15.15-16.76c.76-.84,1.93-1.13,3-.76,1.06,.38,1.79,1.35,1.84,2.48l.67,13.38c.04,.74-.22,1.46-.71,2.01l-17.02,18.82c-.55,.61-1.31,.91-2.07,.91Zm-17.91-20.23l17.84,16.14,16.14-17.84-.54-10.76-14.27,15.79c-.5,.55-1.18,.88-1.92,.91-.74,.04-1.45-.22-2.01-.72l-15.78-14.28,.54,10.76Zm34.94-14.13h0Z"/></g><g class="cls-2"><path class="cls-4" d="M197.43,184.4c-3.51,0-7.02-1.34-9.69-4.01-2.59-2.59-4.01-6.03-4.01-9.69s1.42-7.1,4.01-9.69c5.34-5.34,14.03-5.34,19.37,0,2.59,2.59,4.01,6.03,4.01,9.69s-1.43,7.1-4.01,9.69c-2.67,2.67-6.18,4.01-9.69,4.01Zm0-25.09c-2.92,0-5.84,1.11-8.06,3.33-2.15,2.15-3.34,5.02-3.34,8.06s1.19,5.91,3.34,8.06c2.15,2.15,5.02,3.34,8.06,3.34s5.91-1.19,8.06-3.34h0c2.15-2.15,3.34-5.02,3.34-8.06s-1.19-5.91-3.34-8.06c-2.22-2.22-5.14-3.33-8.06-3.33Z"/><path class="cls-4" d="M179.9,195.62c-.29,0-.59-.11-.81-.34l-6.24-6.24c-.45-.45-.45-1.18,0-1.62l9.49-9.49c.45-.45,1.18-.45,1.62,0,.45,.45,.45,1.18,0,1.62l-8.68,8.68,4.61,4.61,8.68-8.68c.45-.45,1.18-.45,1.62,0,.45,.45,.45,1.18,0,1.62l-9.49,9.49c-.22,.22-.52,.34-.81,.34Z"/><path class="cls-4" d="M203.83,173.58h-10.5v-5.94c0-.63,.51-1.15,1.15-1.15s1.15,.51,1.15,1.15v3.65h8.2c.63,0,1.15,.51,1.15,1.15s-.51,1.15-1.15,1.15Z"/></g><g class="cls-2"><path class="cls-6" d="M163.08,217.61c1.23-.2,2.84-.31,4.53-.31,2.82,0,4.64,.51,6.07,1.58,1.54,1.14,2.51,2.97,2.51,5.59,0,2.84-1.03,4.8-2.46,6.01-1.56,1.3-3.94,1.91-6.84,1.91-1.74,0-2.97-.11-3.81-.22v-14.57Zm3.37,12.1c.29,.07,.75,.07,1.17,.07,3.04,.02,5.02-1.65,5.02-5.19,.02-3.08-1.78-4.71-4.67-4.71-.75,0-1.23,.07-1.52,.13v9.7Z"/><path class="cls-6" d="M191.97,224.67c0,4.86-2.95,7.81-7.28,7.81s-6.97-3.32-6.97-7.55c0-4.44,2.84-7.77,7.22-7.77s7.04,3.41,7.04,7.5Zm-10.72,.2c0,2.9,1.36,4.95,3.61,4.95s3.56-2.16,3.56-5.04c0-2.66-1.28-4.95-3.59-4.95s-3.59,2.16-3.59,5.04Z"/><path class="cls-6" d="M194.17,232.24v-14.83h3.92l3.08,5.43c.88,1.56,1.76,3.41,2.42,5.08h.07c-.22-1.96-.29-3.96-.29-6.18v-4.33h3.08v14.83h-3.52l-3.17-5.72c-.88-1.58-1.85-3.5-2.57-5.24l-.07,.02c.09,1.96,.13,4.05,.13,6.47v4.47h-3.08Z"/><path class="cls-6" d="M218.17,225.97h-5.46v3.52h6.1v2.75h-9.46v-14.83h9.15v2.75h-5.79v3.08h5.46v2.73Z"/></g></svg>