<?xml version="1.0" encoding="UTF-8"?><svg id="Layer_1" xmlns="http://www.w3.org/2000/svg" xmlns:xlink="http://www.w3.org/1999/xlink" viewBox="0 0 400 400"><defs><style>.cls-1{fill:url(#linear-gradient);}.cls-2{fill:#f9f9f9;}.cls-3{fill:#b3b3b3;}.cls-4{fill:#359cef;}.cls-5{fill:#878787;}.cls-6{fill:none;stroke:#359cef;stroke-miterlimit:10;stroke-width:5px;}</style><linearGradient id="linear-gradient" x1="-5460.96" y1="113.62" x2="-5633.72" y2="286.38" gradientTransform="translate(-5347.34) rotate(-180) scale(1 -1)" gradientUnits="userSpaceOnUse"><stop offset="0" stop-color="#fff"/><stop offset="1" stop-color="#ebeaea"/></linearGradient></defs><path class="cls-1" d="M77.84,200c0,67.47,54.69,122.16,122.16,122.16s122.16-54.69,122.16-122.16c0-47.78-27.43-89.15-67.41-109.23-8.38-4.21-17.31-7.48-26.65-9.68-9.02-2.13-18.43-3.25-28.1-3.25-67.47,0-122.16,54.69-122.16,122.16Z"/><circle class="cls-2" cx="200" cy="200" r="117.04" transform="translate(-82.84 200) rotate(-45)"/><g><path class="cls-4" d="M183.88,203.19c-.43,0-.87-.17-1.2-.5l-7.38-7.38c-.66-.66-.66-1.74,0-2.4l4.53-4.53c.3-.3,.39-.76,.23-1.14h0c-3.28-7.66-1.44-16.67,4.59-22.43,7.7-7.36,20.19-7.31,27.83,.12,3.89,3.78,6.05,8.84,6.09,14.25,.04,5.41-2.05,10.5-5.88,14.33-5.77,5.77-14.38,7.48-21.91,4.34-.37-.15-.81-.05-1.11,.24l-4.59,4.59c-.33,.33-.77,.5-1.2,.5Zm-4.98-9.07l4.98,4.98,3.39-3.39c1.28-1.28,3.17-1.66,4.81-.98,6.26,2.61,13.41,1.2,18.21-3.6,3.18-3.18,4.92-7.41,4.88-11.91-.03-4.5-1.83-8.7-5.06-11.84-6.35-6.17-16.73-6.22-23.13-.1-5.01,4.79-6.54,12.28-3.81,18.64,.72,1.67,.34,3.58-.95,4.87l-3.33,3.33Z"/><path class="cls-4" d="M179.72,206.9c-.43,0-.87-.17-1.2-.5l-7.08-7.08c-.66-.66-.66-1.74,0-2.4,.66-.66,1.74-.66,2.4,0l7.08,7.08c.66,.66,.66,1.74,0,2.4-.33,.33-.77,.5-1.2,.5Z"/><path class="cls-4" d="M175.76,209.68c-.43,0-.87-.17-1.2-.5l-5.9-5.9c-.66-.66-.66-1.74,0-2.4,.66-.66,1.74-.66,2.4,0l5.9,5.9c.66,.66,.66,1.74,0,2.4-.33,.33-.77,.5-1.2,.5Z"/><path class="cls-4" d="M219.24,205.55c-.43,0-.87-.17-1.2-.5l-5.9-5.9c-.66-.66-.66-1.74,0-2.4,.66-.66,1.74-.66,2.4,0l5.9,5.9c.66,.66,.66,1.74,0,2.4-.33,.33-.77,.5-1.2,.5Z"/><path class="cls-4" d="M179.57,165.88c-.43,0-.87-.17-1.2-.5l-5.9-5.9c-.66-.66-.66-1.74,0-2.4,.66-.66,1.74-.66,2.4,0l5.9,5.9c.66,.66,.66,1.74,0,2.4-.33,.33-.77,.5-1.2,.5Z"/><path class="cls-4" d="M214.99,164.93c-.43,0-.87-.17-1.2-.5-.66-.66-.66-1.74,0-2.4l5.9-5.9c.66-.66,1.74-.66,2.4,0,.66,.66,.66,1.74,0,2.4l-5.9,5.9c-.33,.33-.77,.5-1.2,.5Z"/><path class="cls-4" d="M230.15,182.76h-8.35c-.94,0-1.7-.76-1.7-1.7s.76-1.7,1.7-1.7h8.35c.94,0,1.7,.76,1.7,1.7s-.76,1.7-1.7,1.7Z"/><path class="cls-4" d="M196.45,157.42c-.94,0-1.7-.76-1.7-1.7v-8.35c0-.94,.76-1.7,1.7-1.7s1.7,.76,1.7,1.7v8.35c0,.94-.76,1.7-1.7,1.7Z"/></g><g><polygon class="cls-3" points="211.5 331.39 211 331.43 210.99 331.43 211 331.42 211 331.42 211.5 331.38 211.5 331.38 211.5 331.39"/><path class="cls-3" d="M199.09,331.92h-.99s-.02-.02-.02-.03c0-.01,.01-.02,.02-.02h.99s.02,.02,.02,.03c0,.01-.01,.02-.02,.02Z"/><path class="cls-3" d="M186.21,331.23l-.99-.1s-.04-.02-.04-.05c0-.02,.02-.04,.05-.04h0l.99,.11s.04,.02,.04,.05c0,.02-.02,.04-.05,.04Z"/><path class="cls-3" d="M173.45,329.28l-.97-.2s-.05-.04-.05-.07c0-.03,.04-.05,.07-.05h0l.97,.2s.05,.04,.05,.07-.04,.05-.07,.05Z"/><path class="cls-3" d="M160.95,326.09l-.95-.3s-.07-.06-.05-.1c.01-.04,.06-.07,.1-.05h0l.94,.3s.07,.06,.05,.1c-.01,.04-.06,.06-.1,.05Z"/><path class="cls-3" d="M148.81,321.7l-.92-.39c-.06-.03-.09-.1-.07-.16,.03-.06,.1-.09,.16-.07h0l.91,.39c.06,.03,.09,.1,.06,.16-.03,.06-.1,.09-.16,.06Z"/><path class="cls-3" d="M137.15,316.16l-.87-.47c-.09-.05-.12-.16-.07-.24,.05-.09,.16-.12,.24-.07h0l.87,.48c.09,.05,.12,.15,.07,.24-.05,.08-.15,.12-.24,.07Z"/><path class="cls-3" d="M126.08,309.5l-.82-.56c-.11-.07-.14-.22-.06-.33,.07-.11,.22-.14,.33-.06h0l.82,.56c.11,.07,.13,.22,.06,.32-.07,.11-.22,.13-.32,.06Z"/><path class="cls-3" d="M115.7,301.8l-.77-.63c-.12-.1-.14-.29-.04-.41s.29-.14,.41-.04h0l.76,.64c.12,.1,.14,.28,.04,.4-.1,.12-.28,.14-.4,.04Z"/><path class="cls-3" d="M106.1,293.14l-.7-.7c-.14-.14-.14-.38,0-.52,.14-.14,.38-.14,.52,0h0l.69,.72c.14,.14,.14,.37,0,.51-.14,.14-.37,.14-.51,0Z"/><path class="cls-3" d="M97.38,283.58l-.63-.77c-.16-.2-.13-.49,.06-.65,.2-.16,.49-.13,.65,.06h0l.62,.78c.16,.19,.13,.48-.07,.64-.19,.16-.48,.13-.64-.06Z"/><path class="cls-3" d="M89.62,273.22l-.55-.83c-.17-.25-.1-.6,.15-.77,.25-.17,.6-.1,.77,.15h0l.54,.84c.17,.25,.1,.59-.15,.76-.25,.16-.59,.09-.75-.15Z"/><path class="cls-3" d="M82.91,262.13l-.47-.88c-.17-.31-.05-.7,.26-.87s.7-.05,.87,.26h0l.45,.89c.16,.31,.04,.7-.27,.86-.31,.16-.69,.04-.86-.26Z"/><path class="cls-3" d="M77.31,250.44l-.38-.92c-.16-.38,.02-.81,.4-.96s.81,.02,.96,.4h0l.36,.93h0c.15,.38-.03,.8-.41,.95-.37,.15-.79-.03-.94-.4Z"/><path class="cls-3" d="M72.9,238.24l-.29-.96c-.13-.44,.11-.9,.55-1.03,.44-.13,.9,.11,1.03,.55h0v.02l.28,.95h0c.13,.44-.13,.9-.56,1.02-.43,.12-.88-.12-1.01-.55Z"/><path class="cls-3" d="M69.69,225.66l-.2-.98c-.1-.5,.22-.98,.72-1.08,.5-.1,.98,.22,1.08,.72h0v.02l.18,.97h0c.09,.5-.24,.98-.73,1.07-.49,.09-.97-.23-1.06-.72Z"/><path class="cls-3" d="M67.73,212.81l-.1-1c-.06-.56,.35-1.05,.91-1.11,.56-.06,1.05,.35,1.11,.91h0v.02l.09,.98h0c.05,.56-.36,1.05-.92,1.1-.55,.05-1.03-.36-1.09-.9Z"/><path class="cls-3" d="M67,199.83v-1c0-.61,.49-1.11,1.1-1.11,.61,0,1.11,.49,1.11,1.1h0v1.01h-.01c0,.62-.5,1.1-1.11,1.1-.6,0-1.08-.5-1.09-1.1Z"/><path class="cls-3" d="M67.55,186.82l.09-1c.06-.66,.65-1.14,1.31-1.08,.66,.06,1.14,.65,1.08,1.31h0v.03l-.11,.98h0c-.07,.66-.66,1.14-1.31,1.06-.65-.07-1.12-.65-1.06-1.3Z"/><path class="cls-3" d="M69.37,173.93l.19-.98c.14-.7,.82-1.16,1.52-1.02,.7,.14,1.16,.82,1.02,1.52h0v.03l-.21,.96h0c-.15,.7-.83,1.15-1.52,1-.69-.14-1.13-.82-1-1.5Z"/><path class="cls-3" d="M72.46,161.27l.29-.96c.22-.73,.99-1.15,1.72-.93,.73,.22,1.15,.99,.93,1.72h0v.03l-.3,.93h0c-.23,.73-1,1.14-1.73,.91-.72-.23-1.12-.99-.9-1.71Z"/><path class="cls-3" d="M76.77,148.97l.38-.93c.31-.75,1.17-1.11,1.93-.8,.75,.31,1.11,1.17,.8,1.93h0v.03l-.39,.9h0c-.32,.76-1.18,1.1-1.93,.78-.74-.32-1.08-1.17-.78-1.91Z"/><path class="cls-3" d="M82.27,137.14l.47-.89c.41-.76,1.36-1.06,2.12-.65,.76,.41,1.06,1.36,.65,2.12h0v.03l-.48,.86h0c-.42,.77-1.36,1.04-2.12,.63-.75-.41-1.03-1.35-.63-2.1Z"/><path class="cls-3" d="M88.9,125.9l.56-.84c.51-.76,1.54-.97,2.3-.47,.76,.51,.97,1.54,.47,2.3h0v.03l-.56,.81h0c-.52,.76-1.54,.96-2.3,.44-.75-.51-.94-1.53-.44-2.28Z"/><path class="cls-3" d="M96.62,115.36l.64-.78c.6-.74,1.69-.85,2.43-.24,.74,.6,.85,1.69,.24,2.43h0v.02l-.63,.75h0c-.61,.74-1.69,.84-2.43,.23-.73-.61-.83-1.68-.23-2.41Z"/><path class="cls-3" d="M105.34,105.62l.71-.71c.69-.7,1.82-.7,2.52,0,.7,.69,.7,1.82,0,2.52h-.01v.02l-.71,.69h0c-.7,.7-1.82,.69-2.51,0-.69-.69-.68-1.81,0-2.5Z"/><path class="cls-3" d="M114.97,96.78l.78-.64c.78-.65,1.94-.54,2.59,.25,.65,.78,.54,1.94-.25,2.59h-.01v.02l-.77,.62h-.01c-.79,.65-1.94,.53-2.58-.26-.63-.78-.52-1.93,.26-2.57Z"/><path class="cls-3" d="M125.42,88.91l.83-.56c.87-.58,2.04-.35,2.63,.51,.58,.87,.35,2.04-.51,2.63h-.01v.02l-.83,.54h-.01c-.87,.58-2.04,.34-2.62-.53-.57-.87-.34-2.03,.52-2.61Z"/><path class="cls-3" d="M136.61,82.12l.89-.47c.94-.5,2.1-.15,2.61,.79,.5,.94,.15,2.1-.79,2.61h-.02l-.86,.47h-.01c-.94,.51-2.1,.15-2.6-.79-.5-.94-.15-2.1,.79-2.6Z"/><path class="cls-3" d="M148.42,76.47l.93-.39c.99-.41,2.13,.06,2.54,1.05,.41,.99-.06,2.13-1.05,2.54h-.02l-.9,.38h-.01c-.99,.41-2.13-.06-2.54-1.05-.41-.99,.06-2.13,1.05-2.53Z"/><path class="cls-3" d="M160.72,72.02l.96-.29c1.04-.31,2.13,.27,2.45,1.31,.31,1.04-.27,2.13-1.31,2.45h-.02l-.94,.29h-.01c-1.04,.32-2.13-.27-2.44-1.31-.31-1.04,.27-2.13,1.31-2.44Z"/><path class="cls-3" d="M173.41,68.79l.99-.2c1.07-.21,2.12,.48,2.33,1.56s-.48,2.12-1.56,2.33h-.02l-.96,.19h-.01c-1.07,.21-2.11-.49-2.32-1.56-.21-1.07,.48-2.11,1.56-2.32Z"/><path class="cls-3" d="M186.35,66.81l1-.1c1.1-.11,2.08,.69,2.19,1.79,.11,1.1-.69,2.08-1.79,2.19h-.01l-.97,.1h-.01c-1.1,.11-2.08-.69-2.19-1.79-.11-1.1,.69-2.08,1.79-2.19h0Z"/><path class="cls-3" d="M199.43,66.12h1.01c1.09,0,1.98,.89,1.98,1.98,0,1.09-.89,1.98-1.98,1.98h-1c-1.09,0-1.98-.88-1.99-1.97,0-1.09,.88-1.98,1.98-1.99h0Z"/><path class="cls-3" d="M212.51,66.71l1,.1c1.08,.11,1.87,1.07,1.76,2.14-.11,1.08-1.07,1.87-2.14,1.76h0l-.97-.09h-.01c-1.08-.1-1.87-1.06-1.77-2.14,.1-1.08,1.06-1.87,2.14-1.77h0Z"/><path class="cls-3" d="M225.47,68.58l.99,.2c1.05,.21,1.74,1.23,1.53,2.28s-1.23,1.74-2.28,1.53h0l-.96-.19h-.01c-1.05-.21-1.74-1.23-1.53-2.28,.21-1.05,1.23-1.74,2.28-1.53h0Z"/><path class="cls-3" d="M238.18,71.72l.96,.29c1.02,.31,1.59,1.38,1.28,2.4s-1.38,1.59-2.4,1.28h0l-.93-.28h-.01c-1.02-.31-1.6-1.38-1.29-2.4,.31-1.02,1.38-1.6,2.4-1.29h0Z"/><path class="cls-3" d="M250.51,76.1l.93,.39c.96,.4,1.41,1.51,1.01,2.47-.4,.96-1.49,1.41-2.45,1.02h-.01l-.91-.38h-.01c-.97-.4-1.43-1.5-1.04-2.47,.39-.97,1.5-1.43,2.46-1.04h.02Z"/><path class="cls-3" d="M262.33,81.68l.89,.48c.89,.48,1.22,1.59,.74,2.48-.48,.88-1.58,1.22-2.46,.75h-.01l-.87-.46h-.01c-.9-.48-1.24-1.59-.77-2.48,.47-.9,1.58-1.24,2.48-.77h.01Z"/><path class="cls-3" d="M273.55,88.39l.83,.56c.81,.55,1.03,1.65,.48,2.46-.54,.81-1.64,1.03-2.45,.49h-.01l-.82-.55h-.01c-.82-.55-1.05-1.65-.51-2.47,.54-.82,1.64-1.05,2.46-.51h.01Z"/><path class="cls-3" d="M284.07,96.15l.78,.64c.73,.6,.84,1.69,.24,2.42-.6,.73-1.67,.84-2.41,.24h-.01l-.76-.62h0c-.74-.61-.85-1.69-.26-2.43,.6-.74,1.68-.85,2.42-.26h.01Z"/><path class="cls-3" d="M293.76,104.91l.71,.71c.64,.64,.64,1.69,0,2.33-.64,.64-1.67,.64-2.31,.01h-.01l-.7-.69h0c-.65-.65-.66-1.69-.03-2.35,.64-.65,1.69-.66,2.34-.03l.02,.02Z"/><path class="cls-3" d="M302.54,114.58l.63,.78c.54,.66,.44,1.64-.22,2.19-.66,.54-1.63,.45-2.17-.2h0l-.63-.76h0c-.55-.67-.47-1.65,.19-2.21,.66-.55,1.64-.47,2.2,.19v.02Z"/><path class="cls-3" d="M310.33,125.04l.56,.84c.45,.67,.26,1.58-.41,2.02-.67,.44-1.56,.27-2.01-.39h0l-.55-.82h0c-.46-.68-.29-1.59,.38-2.05,.67-.46,1.58-.29,2.04,.38v.02Z"/><path class="cls-3" d="M317.04,136.22l.47,.89c.35,.67,.1,1.49-.57,1.85-.66,.35-1.48,.11-1.84-.55h0l-.47-.87h0c-.37-.67-.12-1.51,.54-1.88,.67-.37,1.5-.12,1.87,.54v.02Z"/><path class="cls-3" d="M322.63,147.99l.38,.93c.27,.65-.04,1.4-.69,1.66-.65,.27-1.38-.04-1.66-.68h0l-.39-.91h0c-.28-.66,.02-1.41,.67-1.69,.65-.28,1.4,.02,1.68,.67v.02Z"/><path class="cls-3" d="M327.02,160.24l.29,.96c.19,.63-.17,1.28-.79,1.47-.62,.19-1.27-.16-1.47-.78h0l-.3-.95h0c-.2-.63,.15-1.3,.78-1.5,.63-.2,1.29,.15,1.49,.78v.02Z"/><path class="cls-3" d="M330.19,172.86l.19,.98c.12,.59-.27,1.16-.86,1.28-.58,.11-1.15-.26-1.27-.84h0l-.2-.97h0c-.12-.6,.25-1.18,.85-1.31,.59-.12,1.17,.25,1.3,.85v.02Z"/><path class="cls-3" d="M332.11,185.64l.1,1c.05,.55-.35,1.03-.89,1.09-.54,.05-1.03-.34-1.09-.88h0l-.11-.99h0c-.06-.56,.33-1.05,.89-1.12,.55-.06,1.05,.33,1.11,.89h0Z"/><path class="cls-3" d="M332.8,198.62v1c0,.5-.4,.9-.9,.9-.49,0-.9-.4-.9-.89h0v-.99h-.01c0-.51,.39-.92,.9-.93,.5,0,.92,.39,.92,.9h0Z"/><path class="cls-3" d="M332.22,211.59l-.1,.99c-.04,.45-.44,.77-.89,.73-.44-.04-.77-.43-.73-.87h0l.08-.99h0c.04-.46,.43-.79,.88-.75,.45,.04,.78,.43,.75,.88h0Z"/><path class="cls-3" d="M330.37,224.44l-.19,.98c-.08,.39-.45,.64-.84,.56-.39-.08-.64-.45-.57-.83h0l.18-.98h0c.07-.4,.45-.66,.84-.59s.65,.45,.58,.84h0Z"/><path class="cls-3" d="M327.27,237.03l-.29,.95c-.1,.33-.45,.52-.78,.42-.33-.1-.51-.45-.42-.77l.27-.95c.09-.34,.44-.53,.78-.44,.34,.09,.53,.44,.44,.78h0Z"/><path class="cls-3" d="M322.96,249.24l-.38,.92c-.11,.27-.42,.4-.69,.29-.27-.11-.4-.42-.29-.69l.37-.92c.11-.28,.42-.41,.7-.31,.28,.11,.41,.42,.31,.7h0Z"/><path class="cls-3" d="M317.47,260.97l-.47,.88c-.11,.21-.38,.29-.59,.18-.21-.11-.29-.38-.18-.59l.45-.88c.11-.22,.38-.31,.6-.2,.22,.11,.31,.38,.2,.6h0Z"/><path class="cls-3" d="M310.86,272.09l-.55,.83c-.11,.16-.32,.2-.48,.1-.16-.1-.2-.32-.1-.48l.54-.83c.1-.16,.32-.21,.49-.11,.16,.1,.21,.32,.11,.49h0Z"/><path class="cls-3" d="M303.23,282.53l-.63,.77c-.1,.12-.27,.14-.39,.04-.12-.1-.14-.27-.04-.39l.62-.77c.1-.12,.27-.14,.39-.05,.12,.1,.14,.27,.05,.39h0Z"/><path class="cls-3" d="M294.64,292.18l-.7,.71c-.09,.09-.23,.09-.31,0-.09-.09-.09-.23,0-.31l.69-.71c.09-.09,.23-.09,.32,0s.09,.23,0,.32h0Z"/><path class="cls-3" d="M285.15,300.95l-.76,.64c-.07,.06-.17,.05-.23-.02-.06-.07-.05-.17,.02-.23l.76-.64c.07-.06,.18-.05,.24,.02,.06,.07,.05,.18-.02,.24h0Z"/><path class="cls-3" d="M274.86,308.75l-.82,.56c-.05,.03-.12,.02-.15-.03-.03-.05-.02-.12,.03-.15l.82-.56c.05-.04,.12-.02,.16,.03,.04,.05,.02,.12-.03,.16h0Z"/><path class="cls-3" d="M263.87,315.52l-.87,.48s-.08,0-.1-.03c-.02-.04,0-.08,.03-.1l.87-.48s.08,0,.1,.03c.02,.04,0,.08-.03,.1h0Z"/><path class="cls-3" d="M252.28,321.18l-.91,.39s-.06,0-.07-.03c-.01-.03,0-.06,.03-.07l.91-.39s.06,0,.08,.03c.01,.03,0,.06-.03,.08h0Z"/><path class="cls-3" d="M240.19,325.68l-.95,.3s-.04,0-.05-.02c0-.02,0-.04,.02-.05l.95-.3s.04,0,.05,.02c0,.02,0,.04-.02,.05h0Z"/><path class="cls-3" d="M227.71,328.97l-.97,.2s-.02,0-.02-.01c0-.01,0-.02,.01-.02l.97-.21s.02,0,.02,.02c0,.01,0,.02-.02,.02h0Z"/><polygon class="cls-3" points="214.84 331.05 214.34 331.1 214.84 331.05 214.84 331.05"/><path class="cls-3" d="M211.09,328.36c1.66-.14,3.11,1.09,3.25,2.75,.14,1.66-1.09,3.11-2.75,3.25-1.66,.14-3.11-1.09-3.25-2.75-.14-1.66,1.09-3.11,2.75-3.25Z"/></g><g><path class="cls-6" d="M200,331.89c-72.84,0-131.89-59.05-131.89-131.89,0-33.3,12.34-63.72,32.7-86.93"/><polygon class="cls-4" points="106.19 139.05 101.19 139.34 99.79 114.73 75.34 117.92 74.7 112.96 104.47 109.07 106.19 139.05"/></g><g><path class="cls-5" d="M151.44,236.14h7.53c5.91,0,9.41,3.51,9.41,9.76v.03c0,6.26-3.49,9.94-9.41,9.94h-7.53v-19.73Zm7.04,16.31c3.69,0,5.69-2.24,5.69-6.51v-.03c0-4.12-2.06-6.37-5.69-6.37h-2.91v12.91h2.91Z"/><path class="cls-5" d="M171.04,236.14h13.07v3.4h-8.94v4.73h8.44v3.23h-8.44v4.96h8.94v3.4h-13.07v-19.73Z"/><path class="cls-5" d="M187.09,236.14h12.92v3.4h-8.79v5.29h8.03v3.27h-8.03v7.77h-4.13v-19.73Z"/><path class="cls-5" d="M202.45,236.14h4.13v19.73h-4.13v-19.73Z"/><path class="cls-5" d="M209.86,236.14h3.61l8.91,12.82h.08v-12.82h4.12v19.73h-3.58l-8.94-12.92h-.08v12.92h-4.12v-19.73Z"/><path class="cls-5" d="M229.86,236.14h13.07v3.4h-8.94v4.73h8.44v3.23h-8.44v4.96h8.94v3.4h-13.07v-19.73Z"/></g></svg>