<?xml version="1.0" encoding="UTF-8"?><svg id="Layer_1" xmlns="http://www.w3.org/2000/svg" xmlns:xlink="http://www.w3.org/1999/xlink" viewBox="0 0 400 400"><defs><style>.cls-1{fill:#f9f9f9;}.cls-1,.cls-2,.cls-3{opacity:.1;}.cls-4{fill:#0e1101;}.cls-5{fill:#878787;}.cls-6{fill:#4c22b2;}.cls-3{fill:url(#linear-gradient);}</style><linearGradient id="linear-gradient" x1="-747.7" y1="113" x2="-920.46" y2="285.76" gradientTransform="translate(-633.34) rotate(-180) scale(1 -1)" gradientUnits="userSpaceOnUse"><stop offset="0" stop-color="#fff"/><stop offset="1" stop-color="#ebeaea"/></linearGradient></defs><g class="cls-2"><polygon class="cls-4" points="294.73 111.32 295.06 111.65 295.06 111.65 295.06 111.65 294.73 111.32"/><path class="cls-4" d="M307.2,125.66l.55,.74s.01,.06-.01,.08-.06,.01-.08-.01h0l-.55-.75s-.01-.06,.01-.08c.02-.02,.06-.01,.08,.01Z"/><path class="cls-4" d="M317.68,142.07l.44,.82c.03,.05,0,.12-.05,.15-.05,.03-.12,0-.15-.05h0l-.43-.82c-.03-.05,0-.12,.04-.15,.05-.03,.12,0,.15,.04Z"/><path class="cls-4" d="M325.58,159.87l.31,.88c.03,.09-.02,.18-.1,.21s-.18-.02-.21-.1h0l-.3-.88c-.03-.09,.01-.18,.1-.21,.09-.03,.18,.02,.21,.1Z"/><path class="cls-4" d="M330.73,178.67l.17,.91c.02,.12-.06,.24-.18,.26-.12,.02-.24-.06-.26-.18h0l-.17-.91c-.02-.12,.05-.23,.17-.26,.12-.02,.23,.06,.26,.17Z"/><path class="cls-4" d="M333.02,198.03l.04,.93c0,.15-.11,.28-.27,.29-.15,0-.28-.11-.29-.27h0l-.03-.93c0-.15,.11-.28,.26-.29,.15,0,.28,.11,.29,.26Z"/><path class="cls-4" d="M332.42,217.52l-.1,.92c-.02,.18-.18,.31-.37,.29-.18-.02-.31-.18-.29-.37h0l.11-.92h0c.02-.18,.18-.31,.37-.29,.18,.02,.31,.18,.29,.36Z"/><path class="cls-4" d="M328.94,236.72l-.24,.9c-.05,.21-.27,.33-.47,.28-.21-.05-.33-.27-.28-.47h0l.24-.9h0c.06-.21,.27-.33,.47-.27,.2,.06,.33,.27,.27,.47Z"/><path class="cls-4" d="M322.62,255.19l-.37,.85c-.1,.22-.36,.33-.58,.23-.22-.1-.33-.36-.23-.58h0l.37-.85h0c.1-.23,.36-.33,.58-.23,.22,.1,.32,.36,.23,.58Z"/><path class="cls-4" d="M313.6,272.51l-.49,.79c-.15,.23-.45,.3-.69,.16-.23-.15-.3-.45-.16-.69h0l.49-.79h0c.15-.23,.45-.3,.68-.16,.23,.15,.3,.45,.15,.68Z"/><path class="cls-4" d="M302.08,288.29l-.61,.71c-.2,.23-.55,.26-.78,.06-.23-.2-.26-.55-.06-.78h0l.6-.7h0c.2-.23,.55-.26,.78-.06,.23,.2,.25,.54,.06,.77Z"/><path class="cls-4" d="M288.35,302.2l-.7,.61c-.25,.22-.64,.19-.86-.06-.22-.25-.19-.64,.06-.86h0l.7-.61h0c.25-.22,.64-.19,.85,.06,.22,.25,.19,.63-.06,.85Z"/><path class="cls-4" d="M272.71,313.93l-.79,.5c-.31,.2-.72,.1-.92-.21-.2-.31-.1-.72,.21-.92h0l.78-.49h0c.31-.2,.72-.1,.91,.21,.19,.31,.1,.71-.21,.91Z"/><path class="cls-4" d="M255.48,323.19l-.85,.38c-.36,.16-.79,0-.95-.37-.16-.36,0-.79,.37-.95h0l.85-.37h0c.36-.16,.78,0,.94,.37,.16,.36,0,.78-.37,.94Z"/><path class="cls-4" d="M237.04,329.76l-.9,.24c-.41,.11-.84-.13-.95-.55-.11-.41,.13-.84,.55-.95h0l.89-.24h0c.41-.11,.83,.14,.94,.55,.11,.41-.14,.83-.54,.94Z"/><path class="cls-4" d="M217.83,333.51l-.93,.11c-.46,.05-.87-.27-.92-.73-.05-.46,.27-.87,.73-.92h.01l.92-.1h0c.45-.05,.86,.28,.91,.73,.05,.45-.28,.86-.73,.91Z"/><path class="cls-4" d="M198.26,334.36l-.93-.03c-.49-.02-.87-.43-.85-.91,.02-.49,.43-.87,.91-.85h.01l.92,.04h0c.49,.02,.87,.43,.85,.92-.02,.48-.43,.86-.91,.85Z"/><path class="cls-4" d="M178.78,332.31l-.92-.17c-.51-.09-.85-.58-.75-1.1,.09-.51,.58-.85,1.1-.75h.01l.9,.17h0c.51,.1,.84,.59,.74,1.1-.1,.51-.58,.84-1.09,.75Z"/><path class="cls-4" d="M159.81,327.37l-.88-.31c-.52-.18-.79-.75-.62-1.27,.18-.52,.75-.79,1.27-.62h.01l.87,.31h0c.52,.18,.79,.75,.61,1.27-.18,.52-.74,.79-1.26,.61Z"/><path class="cls-4" d="M141.78,319.66l-.83-.43c-.51-.27-.71-.9-.44-1.42,.27-.51,.9-.71,1.42-.44h.01l.81,.44h0c.51,.28,.7,.91,.43,1.42-.27,.51-.9,.7-1.41,.44Z"/><path class="cls-4" d="M125.11,309.31l-.75-.55c-.49-.36-.6-1.05-.24-1.55,.36-.49,1.05-.6,1.55-.24h.01l.74,.56h0c.49,.37,.59,1.06,.23,1.55-.36,.49-1.05,.59-1.54,.23Z"/><path class="cls-4" d="M110.14,296.58l-.33-.33c-.45-.45-.46-1.18,0-1.64,.45-.45,1.18-.46,1.64,0h0l.32,.33h0c.45,.46,.45,1.19,0,1.64-.45,.45-1.18,.45-1.63,0Z"/></g><path class="cls-3" d="M78.58,199.37c0,67.47,54.69,122.16,122.16,122.16s122.16-54.69,122.16-122.16c0-47.78-27.43-89.15-67.41-109.23-8.38-4.21-17.31-7.48-26.65-9.68-9.02-2.13-18.43-3.25-28.1-3.25-67.47,0-122.16,54.69-122.16,122.16Z"/><circle class="cls-1" cx="200.74" cy="199.38" r="117.04" transform="translate(-82.18 200.34) rotate(-45)"/><g class="cls-2"><path class="cls-6" d="M106.11,293.94c-25.26-25.26-39.17-58.84-39.17-94.57s13.91-69.31,39.17-94.57c23.67-23.67,55.11-37.53,88.53-39.04,33.2-1.49,65.54,9.29,91.07,30.36l-2.36,2.86c-51.89-42.84-126.96-39.21-174.61,8.44-50.7,50.7-50.7,133.19,0,183.89l-2.62,2.62Z"/></g><g class="cls-2"><path class="cls-6" d="M270.87,112.54c-.69,0-1.35-.25-1.86-.72l-9.94-8.98c-.84-.76-1.13-1.93-.75-3,.38-1.06,1.35-1.79,2.48-1.84l22.56-1.13-1.14-22.56c-.06-1.13,.57-2.17,1.59-2.65,1.02-.48,2.22-.31,3.06,.45l9.94,8.98c.55,.5,.87,1.18,.91,1.92l1.27,25.34c.08,1.53-1.11,2.84-2.64,2.92l-25.34,1.27s-.1,0-.14,0Zm-7.65-10.95l7.99,7.22,24.03-1.21-1.21-24.03-7.99-7.22,1.07,21.25c.04,.74-.22,1.45-.71,2.01-.5,.55-1.18,.88-1.93,.91l-21.25,1.06Zm22.71-27.47h0Z"/></g><g class="cls-2"><path class="cls-6" d="M221.72,169.69c-.63,0-1.15-.51-1.15-1.15v-3.4l-3.59-.1c-.63-.02-1.13-.55-1.12-1.18,.02-.63,.54-1.13,1.18-1.12l5.82,.16v5.63c0,.63-.51,1.15-1.15,1.15Z"/><path class="cls-6" d="M190.55,172.97c-.29,0-.59-.11-.81-.34-.45-.45-.45-1.18,0-1.62l4.28-4.28c.45-.45,1.18-.45,1.62,0,.45,.45,.45,1.18,0,1.62l-4.28,4.28c-.22,.22-.52,.34-.81,.34Z"/><path class="cls-6" d="M211.43,185.97c-.29,0-.59-.11-.81-.34-.45-.45-.45-1.18,0-1.62l6.34-6.34c.45-.45,1.18-.45,1.62,0,.45,.45,.45,1.18,0,1.62l-6.34,6.34c-.22,.22-.52,.34-.81,.34Z"/><path class="cls-6" d="M179.76,191.37c-.29,0-.59-.11-.81-.34-.45-.45-.45-1.18,0-1.62l15.21-15.21c.45-.45,1.18-.45,1.62,0l7.04,7.04,18.06-18.06c.45-.45,1.18-.45,1.62,0,.45,.45,.45,1.18,0,1.62l-18.87,18.87c-.45,.45-1.18,.45-1.62,0l-7.04-7.04-14.4,14.4c-.22,.22-.52,.34-.81,.34Z"/></g><g class="cls-2"><path class="cls-5" d="M150.45,218.15v14.83h-3.37v-14.83h3.37Z"/><path class="cls-5" d="M153.35,232.98v-14.83h3.92l3.08,5.43c.88,1.56,1.76,3.41,2.42,5.08h.07c-.22-1.96-.29-3.96-.29-6.18v-4.33h3.08v14.83h-3.52l-3.17-5.72c-.88-1.58-1.85-3.5-2.57-5.24l-.07,.02c.09,1.96,.13,4.05,.13,6.47v4.47h-3.08Z"/><path class="cls-5" d="M174.97,220.97h-3.98v-2.82h11.4v2.82h-4.05v12.01h-3.37v-12.01Z"/><path class="cls-5" d="M192.99,226.71h-5.46v3.52h6.09v2.75h-9.46v-14.83h9.15v2.75h-5.79v3.08h5.46v2.73Z"/><path class="cls-5" d="M196.03,229.53c.9,.46,2.29,.92,3.72,.92,1.54,0,2.36-.64,2.36-1.61s-.71-1.45-2.49-2.09c-2.46-.86-4.07-2.22-4.07-4.38,0-2.53,2.11-4.47,5.61-4.47,1.67,0,2.91,.35,3.79,.75l-.75,2.71c-.59-.29-1.65-.7-3.1-.7s-2.16,.66-2.16,1.43c0,.95,.84,1.36,2.75,2.09,2.62,.97,3.85,2.33,3.85,4.42,0,2.49-1.91,4.6-5.98,4.6-1.69,0-3.37-.44-4.2-.9l.68-2.77Z"/><path class="cls-5" d="M210.66,220.97h-3.98v-2.82h11.4v2.82h-4.05v12.01h-3.37v-12.01Z"/><path class="cls-5" d="M223.22,218.15v14.83h-3.37v-14.83h3.37Z"/><path class="cls-5" d="M226.12,232.98v-14.83h3.92l3.08,5.43c.88,1.56,1.76,3.41,2.42,5.08h.07c-.22-1.96-.29-3.96-.29-6.18v-4.33h3.08v14.83h-3.52l-3.17-5.72c-.88-1.58-1.85-3.5-2.57-5.24l-.07,.02c.09,1.96,.13,4.05,.13,6.47v4.47h-3.08Z"/><path class="cls-5" d="M253.69,232.3c-1.04,.35-2.99,.84-4.95,.84-2.71,0-4.66-.68-6.03-2-1.36-1.28-2.11-3.21-2.09-5.39,.02-4.93,3.61-7.75,8.47-7.75,1.91,0,3.39,.37,4.12,.73l-.71,2.68c-.81-.35-1.83-.64-3.45-.64-2.79,0-4.91,1.58-4.91,4.8s1.91,4.86,4.66,4.86c.77,0,1.39-.09,1.65-.22v-3.1h-2.29v-2.62h5.52v7.81Z"/></g></svg>