<?xml version="1.0" encoding="UTF-8"?><svg id="Layer_1" xmlns="http://www.w3.org/2000/svg" xmlns:xlink="http://www.w3.org/1999/xlink" viewBox="0 0 400 400"><defs><style>.cls-1{fill:url(#linear-gradient);}.cls-2{fill:#f9f9f9;}.cls-3{fill:#359cef;}.cls-4{fill:#0e1101;}.cls-5{fill:#878787;}</style><linearGradient id="linear-gradient" x1="934.93" y1="112.94" x2="762.17" y2="285.7" gradientTransform="translate(1046.66) rotate(-180) scale(1 -1)" gradientUnits="userSpaceOnUse"><stop offset="0" stop-color="#fff"/><stop offset="1" stop-color="#ebeaea"/></linearGradient></defs><g><polygon class="cls-4" points="111.32 105.27 111.65 104.94 111.65 104.94 111.65 104.94 111.65 104.94 111.32 105.27"/><path class="cls-4" d="M125.66,92.8l.74-.55s.06-.01,.08,.01c.02,.03,.01,.06-.01,.08h0l-.75,.55s-.06,.01-.08-.01c-.02-.02-.01-.06,.01-.08Z"/><path class="cls-4" d="M142.07,82.32l.82-.44c.05-.03,.12,0,.15,.05,.03,.05,0,.12-.05,.15h0l-.82,.43c-.05,.03-.12,0-.15-.04-.03-.05,0-.12,.04-.15Z"/><path class="cls-4" d="M159.87,74.42l.88-.31c.09-.03,.18,.02,.21,.1,.03,.09-.02,.18-.1,.21h0l-.88,.3c-.09,.03-.18-.01-.21-.1-.03-.09,.02-.18,.1-.21Z"/><path class="cls-4" d="M178.67,69.27l.91-.17c.12-.02,.24,.06,.26,.18,.02,.12-.06,.24-.18,.26h0l-.91,.17c-.12,.02-.23-.05-.26-.17-.02-.12,.06-.23,.17-.26Z"/><path class="cls-4" d="M198.03,66.98l.93-.04c.15,0,.28,.11,.29,.27,0,.15-.11,.28-.27,.29h0l-.92,.03c-.15,0-.28-.11-.29-.26,0-.15,.11-.28,.26-.29Z"/><path class="cls-4" d="M217.52,67.58l.92,.1c.18,.02,.31,.18,.29,.37-.02,.18-.18,.31-.37,.29h0l-.92-.11h0c-.18-.02-.31-.18-.29-.37,.02-.18,.18-.31,.36-.29Z"/><path class="cls-4" d="M236.72,71.06l.9,.24c.21,.05,.33,.27,.28,.47-.05,.21-.27,.33-.47,.28h0l-.89-.24h0c-.21-.06-.33-.27-.27-.47,.06-.2,.27-.33,.47-.27Z"/><path class="cls-4" d="M255.19,77.38l.85,.37c.22,.1,.33,.36,.23,.58-.1,.22-.36,.33-.58,.23h0l-.85-.37h0c-.22-.1-.32-.36-.23-.58,.1-.22,.36-.32,.58-.23Z"/><path class="cls-4" d="M272.51,86.4l.79,.49c.23,.15,.3,.45,.16,.69-.15,.23-.45,.3-.69,.16h0l-.78-.5h0c-.23-.15-.3-.45-.15-.69,.15-.23,.45-.3,.68-.15Z"/><path class="cls-4" d="M288.29,97.92l.71,.61c.23,.2,.26,.55,.06,.78-.2,.23-.55,.26-.78,.06h0l-.7-.61h0c-.23-.2-.25-.55-.06-.78,.2-.23,.54-.25,.77-.06Z"/><path class="cls-4" d="M302.2,111.65l.61,.7c.22,.25,.19,.64-.06,.86s-.64,.19-.86-.06h0l-.6-.71h0c-.22-.26-.19-.64,.07-.86,.25-.22,.63-.19,.85,.06Z"/><path class="cls-4" d="M313.93,127.29l.5,.79c.2,.31,.1,.72-.21,.92-.31,.2-.72,.1-.92-.21h0l-.49-.79h0c-.19-.31-.1-.72,.21-.92,.31-.19,.71-.1,.91,.21Z"/><path class="cls-4" d="M323.19,144.52l.38,.85c.16,.36,0,.79-.37,.95-.36,.16-.79,0-.95-.37h0l-.37-.86h0c-.16-.37,0-.79,.37-.95,.36-.16,.78,0,.94,.37Z"/><path class="cls-4" d="M329.76,162.96l.24,.9c.11,.41-.13,.84-.55,.95-.41,.11-.84-.13-.95-.55h0l-.24-.9h0c-.11-.42,.14-.84,.55-.95,.41-.11,.83,.14,.94,.54Z"/><path class="cls-4" d="M333.51,182.17l.11,.93c.05,.46-.27,.87-.73,.92-.46,.05-.87-.27-.92-.73h0l-.1-.93h0c-.05-.46,.28-.87,.73-.92,.45-.05,.86,.28,.91,.73Z"/><path class="cls-4" d="M334.36,201.74l-.03,.93c-.02,.49-.43,.87-.91,.85-.49-.02-.87-.43-.85-.91h0l.04-.93h0c.02-.49,.43-.87,.92-.85,.48,.02,.86,.43,.85,.91Z"/><path class="cls-4" d="M332.31,221.22l-.17,.92c-.09,.51-.58,.85-1.1,.75-.51-.09-.85-.58-.75-1.1h0l.17-.92h0c.1-.51,.59-.85,1.1-.75,.51,.1,.84,.58,.75,1.09Z"/><path class="cls-4" d="M327.37,240.19l-.31,.88c-.18,.52-.75,.79-1.27,.62-.52-.18-.79-.75-.62-1.27h0l.31-.88h0c.18-.52,.75-.8,1.27-.61,.52,.18,.79,.74,.61,1.26Z"/><path class="cls-4" d="M319.66,258.22l-.43,.83c-.27,.51-.9,.71-1.42,.44-.51-.27-.71-.9-.44-1.42h0l.43-.82h0c.27-.52,.91-.71,1.42-.44,.51,.27,.7,.9,.44,1.41Z"/><path class="cls-4" d="M309.31,274.89l-.55,.75c-.36,.49-1.05,.6-1.55,.24-.49-.36-.6-1.05-.24-1.55h0l.55-.75h0c.36-.49,1.05-.6,1.54-.23,.49,.36,.59,1.05,.23,1.54Z"/><path class="cls-4" d="M296.58,289.86l-.33,.33c-.45,.45-1.18,.46-1.64,0-.45-.45-.46-1.18,0-1.64h0l.33-.33h0c.45-.45,1.19-.45,1.64,0,.45,.45,.45,1.18,0,1.63Z"/></g><path class="cls-1" d="M75.95,199.32c0,67.47,54.69,122.16,122.16,122.16s122.16-54.69,122.16-122.16c0-47.78-27.43-89.15-67.41-109.23-8.38-4.21-17.31-7.48-26.65-9.68-9.02-2.13-18.43-3.25-28.1-3.25-67.47,0-122.16,54.69-122.16,122.16Z"/><circle class="cls-2" cx="198.11" cy="199.32" r="117.04" transform="translate(-82.92 198.46) rotate(-45)"/><path class="cls-3" d="M199.38,333.06c-35.72,0-69.31-13.91-94.57-39.17-23.67-23.67-37.53-55.11-39.04-88.53-1.49-33.2,9.29-65.54,30.36-91.07l2.86,2.36c-42.84,51.89-39.21,126.96,8.44,174.61,25.35,25.35,58.65,38.02,91.94,38.02,33.3,0,66.59-12.67,91.94-38.02l2.62,2.62c-25.26,25.26-58.84,39.17-94.57,39.17Z"/><path class="cls-3" d="M100.32,142.31c-.31,0-.63-.05-.94-.16-1.06-.38-1.79-1.35-1.84-2.48l-1.13-22.56-22.56,1.14c-1.13,.05-2.17-.57-2.65-1.59-.48-1.02-.31-2.22,.45-3.06l8.98-9.94c.5-.55,1.18-.88,1.92-.91l25.34-1.27c.74-.04,1.45,.22,2.01,.71,.55,.5,.88,1.18,.91,1.92l1.27,25.34c.04,.74-.22,1.45-.71,2l-8.99,9.94c-.54,.6-1.29,.92-2.06,.92Zm-3.03-28.96c.69,0,1.35,.25,1.86,.72,.55,.5,.88,1.18,.91,1.92l1.06,21.25,7.22-7.99-1.21-24.03-24.03,1.21-7.22,7.99,21.25-1.07s.1,0,.14,0Zm-23.63,1.19h0Z"/><g><path class="cls-3" d="M187.19,194.28c-.29,0-.59-.11-.81-.34l-5-5c-.45-.45-.45-1.18,0-1.62l3.07-3.07c.2-.2,.27-.51,.16-.77h0c-2.22-5.18-.98-11.29,3.11-15.19,5.22-4.99,13.67-4.95,18.85,.08,2.63,2.56,4.1,5.98,4.12,9.65,.03,3.67-1.39,7.11-3.98,9.71-3.91,3.91-9.74,5.06-14.84,2.94-.25-.1-.55-.04-.75,.17l-3.11,3.11c-.22,.22-.52,.34-.81,.34Zm-3.37-6.14l3.37,3.37,2.3-2.3c.87-.87,2.15-1.13,3.26-.66,4.24,1.77,9.08,.81,12.33-2.44,2.15-2.15,3.33-5.02,3.31-8.07-.02-3.05-1.24-5.89-3.43-8.02-4.3-4.18-11.33-4.21-15.66-.07-3.39,3.24-4.43,8.32-2.58,12.62,.48,1.13,.23,2.43-.64,3.3l-2.25,2.25Z"/><path class="cls-3" d="M184.37,196.79c-.29,0-.59-.11-.81-.34l-4.8-4.8c-.45-.45-.45-1.18,0-1.62,.45-.45,1.18-.45,1.62,0l4.8,4.8c.45,.45,.45,1.18,0,1.62-.22,.22-.52,.34-.81,.34Z"/><path class="cls-3" d="M181.69,198.67c-.29,0-.59-.11-.81-.34l-4-4c-.45-.45-.45-1.18,0-1.62,.45-.45,1.18-.45,1.62,0l4,4c.45,.45,.45,1.18,0,1.62-.22,.22-.52,.34-.81,.34Z"/><path class="cls-3" d="M211.14,195.88c-.29,0-.59-.11-.81-.34l-4-4c-.45-.45-.45-1.18,0-1.62,.45-.45,1.18-.45,1.62,0l4,4c.45,.45,.45,1.18,0,1.62-.22,.22-.52,.34-.81,.34Z"/><path class="cls-3" d="M184.27,169.01c-.29,0-.59-.11-.81-.34l-4-4c-.45-.45-.45-1.18,0-1.62,.45-.45,1.18-.45,1.62,0l4,4c.45,.45,.45,1.18,0,1.62-.22,.22-.52,.34-.81,.34Z"/><path class="cls-3" d="M208.26,168.37c-.29,0-.59-.11-.81-.34-.45-.45-.45-1.18,0-1.62l4-4c.45-.45,1.18-.45,1.62,0,.45,.45,.45,1.18,0,1.62l-4,4c-.22,.22-.52,.34-.81,.34Z"/><path class="cls-3" d="M218.53,180.44h-5.65c-.63,0-1.15-.51-1.15-1.15s.51-1.15,1.15-1.15h5.65c.63,0,1.15,.51,1.15,1.15s-.51,1.15-1.15,1.15Z"/><path class="cls-3" d="M195.71,163.28c-.63,0-1.15-.51-1.15-1.15v-5.65c0-.63,.51-1.15,1.15-1.15s1.15,.51,1.15,1.15v5.65c0,.63-.51,1.15-1.15,1.15Z"/></g><g><path class="cls-5" d="M163.14,218.3c1.23-.2,2.84-.31,4.53-.31,2.82,0,4.64,.51,6.07,1.58,1.54,1.14,2.51,2.97,2.51,5.59,0,2.84-1.03,4.8-2.46,6.01-1.56,1.3-3.94,1.91-6.84,1.91-1.74,0-2.97-.11-3.81-.22v-14.57Zm3.37,12.1c.29,.07,.75,.07,1.17,.07,3.04,.02,5.02-1.65,5.02-5.19,.02-3.08-1.78-4.71-4.67-4.71-.75,0-1.23,.07-1.52,.13v9.7Z"/><path class="cls-5" d="M187.27,226.66h-5.46v3.52h6.09v2.75h-9.46v-14.83h9.15v2.75h-5.79v3.08h5.46v2.73Z"/><path class="cls-5" d="M190.2,218.1h9.07v2.75h-5.7v3.39h5.33v2.73h-5.33v5.96h-3.37v-14.83Z"/><path class="cls-5" d="M205.16,218.1v14.83h-3.37v-14.83h3.37Z"/><path class="cls-5" d="M208.06,232.93v-14.83h3.92l3.08,5.43c.88,1.56,1.76,3.41,2.42,5.08h.07c-.22-1.96-.29-3.96-.29-6.18v-4.33h3.08v14.83h-3.52l-3.17-5.72c-.88-1.58-1.85-3.5-2.57-5.24l-.07,.02c.09,1.96,.13,4.05,.13,6.47v4.47h-3.08Z"/><path class="cls-5" d="M232.06,226.66h-5.46v3.52h6.09v2.75h-9.46v-14.83h9.15v2.75h-5.79v3.08h5.46v2.73Z"/></g></svg>