<?xml version="1.0" encoding="UTF-8"?><svg id="Layer_1" xmlns="http://www.w3.org/2000/svg" xmlns:xlink="http://www.w3.org/1999/xlink" viewBox="0 0 400 400"><defs><style>.cls-1{fill:url(#linear-gradient);}.cls-2{fill:#f9f9f9;}.cls-3{fill:#6940cc;}.cls-4{fill:#0e1101;}.cls-5{fill:#878787;}</style><linearGradient id="linear-gradient" x1="93.16" y1="122.56" x2="-79.6" y2="295.32" gradientTransform="translate(206.66) rotate(-180) scale(1 -1)" gradientUnits="userSpaceOnUse"><stop offset="0" stop-color="#fff"/><stop offset="1" stop-color="#ebeaea"/></linearGradient></defs><g><polygon class="cls-4" points="203.64 80.76 204.1 80.76 204.1 80.76 204.1 80.76 203.64 80.76"/><path class="cls-4" d="M222.59,82.07l.92,.13s.05,.03,.05,.06c0,.03-.03,.05-.06,.05h0l-.92-.14s-.05-.03-.05-.06c0-.03,.03-.05,.06-.05Z"/><path class="cls-4" d="M241.61,86.27l.89,.27c.06,.02,.09,.08,.07,.14s-.08,.09-.14,.07h0l-.88-.28c-.06-.02-.09-.08-.07-.14,.02-.06,.08-.09,.14-.07Z"/><path class="cls-4" d="M259.78,93.27l.84,.4c.08,.04,.12,.14,.08,.22-.04,.08-.14,.12-.22,.08h0l-.83-.41c-.08-.04-.12-.14-.08-.22,.04-.08,.14-.12,.22-.08Z"/><path class="cls-4" d="M276.71,102.92l.77,.52c.1,.07,.13,.21,.06,.31-.07,.1-.21,.13-.31,.06h0l-.76-.53c-.1-.07-.13-.2-.06-.3,.07-.1,.2-.13,.3-.06Z"/><path class="cls-4" d="M292.03,114.99l.68,.63c.11,.1,.12,.28,.02,.39-.1,.11-.28,.12-.39,.02h0l-.68-.63c-.11-.1-.12-.28-.02-.39,.1-.11,.28-.12,.39-.02Z"/><path class="cls-4" d="M305.38,129.2l.58,.72c.12,.14,.09,.35-.05,.47-.14,.11-.35,.09-.47-.05h0l-.57-.73h0c-.11-.14-.09-.35,.05-.47,.14-.11,.35-.09,.46,.05Z"/><path class="cls-4" d="M316.49,145.24l.47,.8c.11,.19,.05,.42-.14,.53-.19,.11-.42,.05-.53-.14h0l-.46-.81h0c-.11-.19-.04-.42,.14-.53,.18-.11,.42-.04,.52,.14Z"/><path class="cls-4" d="M325.09,162.76l.34,.86c.09,.23-.02,.48-.25,.57-.23,.09-.48-.02-.57-.25h0l-.34-.87h0c-.09-.23,.02-.48,.25-.57,.23-.09,.48,.02,.57,.25Z"/><path class="cls-4" d="M330.96,181.39l.21,.91c.06,.27-.11,.54-.37,.6s-.54-.11-.6-.37h0l-.2-.91h0c-.06-.27,.11-.54,.38-.6,.27-.06,.53,.11,.59,.37Z"/><path class="cls-4" d="M333.97,200.69l.07,.93c.02,.3-.2,.57-.51,.59-.3,.02-.57-.2-.59-.51h0l-.07-.93h0c-.02-.31,.21-.57,.51-.59,.3-.02,.56,.21,.59,.51Z"/><path class="cls-4" d="M334.1,220.23l-.07,.93c-.02,.34-.31,.59-.65,.56-.34-.02-.59-.31-.56-.65h0l.07-.93h0c.03-.34,.32-.59,.65-.56,.33,.03,.58,.31,.56,.65Z"/><path class="cls-4" d="M331.33,239.59l-.2,.91c-.08,.36-.44,.58-.79,.5-.36-.08-.58-.44-.5-.79h0l.21-.91h0c.08-.36,.44-.58,.79-.5,.35,.08,.58,.43,.5,.79Z"/><path class="cls-4" d="M325.69,258.32l-.34,.87c-.14,.37-.56,.55-.93,.41-.37-.14-.55-.56-.41-.93h0l.34-.87h0c.15-.37,.56-.55,.93-.41,.37,.15,.55,.56,.4,.93Z"/><path class="cls-4" d="M317.31,276.01l-.46,.81c-.21,.37-.69,.5-1.06,.29s-.5-.69-.29-1.06h0l.46-.81h0c.21-.37,.69-.5,1.05-.28,.37,.21,.49,.68,.28,1.05Z"/><path class="cls-4" d="M306.37,292.24l-.58,.73c-.28,.36-.81,.42-1.17,.13-.36-.28-.42-.81-.13-1.17h0l.58-.73h0c.29-.36,.81-.42,1.16-.13,.35,.28,.41,.8,.13,1.16Z"/><path class="cls-4" d="M293.14,306.68l-.68,.64c-.36,.33-.92,.31-1.25-.04-.33-.36-.31-.92,.04-1.25h0l.68-.63h0c.36-.33,.92-.31,1.25,.05,.33,.36,.31,.91-.05,1.24Z"/><path class="cls-4" d="M277.91,319.01l-.77,.53c-.43,.29-1.01,.19-1.31-.24-.29-.43-.19-1.01,.24-1.31h0l.76-.52h0c.43-.29,1.01-.18,1.3,.24,.29,.43,.18,1.01-.24,1.3Z"/><path class="cls-4" d="M261,328.93l-.84,.41c-.49,.24-1.09,.03-1.33-.46-.24-.49-.03-1.09,.46-1.33h.01l.83-.4h0c.49-.24,1.09-.03,1.32,.46,.24,.49,.03,1.08-.46,1.32Z"/><path class="cls-4" d="M242.8,336.22l-.89,.28c-.55,.17-1.14-.14-1.31-.69-.17-.55,.14-1.14,.69-1.31h.01l.88-.27h0c.55-.17,1.14,.14,1.31,.69,.17,.55-.14,1.13-.69,1.31Z"/><path class="cls-4" d="M223.7,340.7l-.92,.14c-.6,.09-1.17-.32-1.26-.93-.09-.6,.32-1.17,.93-1.26h.01l.91-.14h0c.6-.09,1.16,.33,1.25,.93,.09,.6-.33,1.16-.92,1.25Z"/><path class="cls-4" d="M204.11,342.28h-.47c-.64,0-1.16-.51-1.16-1.15,0-.64,.51-1.16,1.15-1.16h.47c.64,0,1.16,.52,1.16,1.16,0,.64-.52,1.15-1.15,1.16Z"/></g><path class="cls-1" d="M77.72,208.94c0,67.47,54.69,122.16,122.16,122.16s122.16-54.69,122.16-122.16c0-47.78-27.43-89.15-67.41-109.23-8.38-4.21-17.31-7.48-26.65-9.68-9.02-2.13-18.43-3.25-28.1-3.25-67.47,0-122.16,54.69-122.16,122.16Z"/><circle class="cls-2" cx="199.88" cy="208.94" r="117.04" transform="translate(-89.2 202.53) rotate(-45)"/><path class="cls-3" d="M199.64,342.68c-35.72,0-69.31-13.91-94.57-39.17-25.26-25.26-39.17-58.84-39.17-94.57,0-33.48,12.43-65.51,35-90.2,22.42-24.53,52.91-39.78,85.86-42.93l.35,3.69c-66.99,6.4-117.5,62.05-117.5,129.43,0,71.7,58.33,130.03,130.03,130.03v3.71Z"/><path class="cls-3" d="M171.18,99.39c-1.07,0-2.05-.61-2.51-1.59-.48-1.02-.31-2.22,.45-3.06l15.16-16.75-16.76-15.15h0c-.84-.76-1.13-1.93-.76-3,.38-1.06,1.35-1.79,2.48-1.85l13.38-.67c.74-.04,1.45,.22,2.01,.72l18.82,17.02c1.14,1.03,1.23,2.79,.2,3.93l-17.02,18.82c-.5,.55-1.18,.88-1.92,.91l-13.38,.67s-.09,0-.14,0Zm.48-37.8l15.79,14.27c.55,.5,.88,1.18,.91,1.92,.04,.74-.22,1.46-.72,2.01l-14.28,15.78,10.76-.54,16.14-17.84-17.84-16.14-10.76,.54Z"/><g><path class="cls-3" d="M199.88,194.18c-4.17,0-7.57-3.39-7.57-7.57s3.39-7.57,7.57-7.57,7.57,3.39,7.57,7.57-3.39,7.57-7.57,7.57Zm0-12.84c-2.91,0-5.27,2.36-5.27,5.27s2.36,5.27,5.27,5.27,5.27-2.36,5.27-5.27-2.36-5.27-5.27-5.27Z"/><path class="cls-3" d="M204.24,202.87c-.9,0-1.76-.44-2.3-1.22l-.92-1.35c-.26-.38-.68-.6-1.14-.6s-.88,.22-1.14,.6l-.92,1.35c-.71,1.03-1.98,1.47-3.17,1.08-1.19-.39-1.97-1.49-1.93-2.74l.05-1.63c.01-.46-.19-.88-.57-1.16-.37-.27-.84-.34-1.28-.18l-1.54,.55c-1.18,.42-2.46,.02-3.2-.99-.74-1.01-.72-2.36,.05-3.35l1-1.3c.28-.37,.36-.83,.22-1.27-.14-.44-.48-.77-.92-.9l-1.57-.46c-1.2-.35-2.01-1.43-2.01-2.68s.81-2.33,2.01-2.68l1.57-.46c.44-.13,.78-.46,.92-.9,.14-.44,.06-.9-.22-1.27l-1-1.3c-.76-.99-.78-2.34-.05-3.35,.74-1.01,2.02-1.41,3.2-.99l1.54,.55c.44,.16,.9,.09,1.28-.18,.37-.27,.58-.69,.57-1.16l-.05-1.64c-.03-1.25,.74-2.35,1.93-2.74,1.19-.39,2.46,.05,3.17,1.08l.92,1.35c.26,.38,.68,.6,1.14,.6s.88-.22,1.14-.6l.92-1.35c.71-1.03,1.98-1.47,3.17-1.08,1.19,.39,1.97,1.49,1.93,2.74l-.05,1.64c-.01,.46,.19,.88,.57,1.16,.37,.27,.84,.34,1.28,.18l1.54-.55c1.18-.42,2.46-.02,3.2,.99,.74,1.01,.72,2.36-.05,3.35l-1,1.3c-.28,.37-.36,.83-.22,1.27,.14,.44,.48,.77,.92,.9l1.57,.46c1.2,.35,2.01,1.43,2.01,2.68s-.81,2.33-2.01,2.68l-1.57,.46c-.44,.13-.78,.46-.92,.9-.14,.44-.06,.9,.22,1.27l1,1.3c.76,.99,.78,2.34,.05,3.35-.74,1.01-2.02,1.41-3.2,.99l-1.54-.55c-.44-.16-.9-.09-1.28,.18-.37,.27-.58,.69-.57,1.16l.05,1.63c.03,1.25-.74,2.35-1.93,2.74-.29,.09-.58,.14-.88,.14Zm-4.36-5.47c1.21,0,2.35,.6,3.04,1.6l.92,1.35c.18,.27,.43,.24,.57,.19,.13-.04,.35-.16,.34-.49l-.05-1.63c-.03-1.21,.53-2.36,1.52-3.08,.98-.71,2.25-.9,3.4-.49l1.54,.55c.31,.11,.49-.06,.57-.18,.08-.11,.19-.34,0-.6l-1-1.3c-.74-.96-.96-2.23-.58-3.38,.38-1.15,1.29-2.05,2.46-2.39l1.57-.46c.31-.09,.36-.34,.36-.48s-.05-.39-.36-.48l-1.57-.46c-1.16-.34-2.08-1.24-2.46-2.39-.38-1.15-.16-2.42,.58-3.38l1-1.3c.2-.26,.09-.48,0-.6-.08-.11-.26-.29-.57-.18l-1.54,.55c-1.14,.41-2.41,.22-3.4-.49-.98-.71-1.55-1.86-1.52-3.08l.05-1.64c0-.32-.21-.45-.34-.49-.13-.04-.38-.08-.57,.19l-.92,1.35c-.69,1-1.82,1.6-3.04,1.6s-2.35-.6-3.04-1.6l-.92-1.35c-.18-.27-.43-.24-.57-.19-.13,.04-.35,.16-.34,.49l.05,1.64c.03,1.21-.53,2.36-1.52,3.08-.98,.71-2.25,.9-3.4,.49l-1.54-.55c-.31-.11-.49,.06-.57,.18-.08,.11-.19,.34,0,.6l1,1.3c.74,.96,.96,2.23,.58,3.38-.38,1.15-1.29,2.05-2.46,2.39l-1.57,.46c-.31,.09-.36,.34-.36,.48s.05,.39,.36,.48l1.57,.46c1.16,.34,2.08,1.24,2.46,2.39,.38,1.16,.16,2.42-.58,3.38l-1,1.3c-.2,.26-.09,.48,0,.6,.08,.11,.26,.29,.57,.18l1.54-.55c1.14-.41,2.41-.22,3.4,.49,.98,.71,1.55,1.86,1.52,3.08l-.05,1.63c0,.32,.21,.45,.34,.49,.13,.04,.38,.08,.57-.19l.92-1.35c.69-1,1.82-1.6,3.04-1.6Z"/></g><g><path class="cls-5" d="M138.72,227.71v14.83h-3.37v-14.83h3.37Z"/><path class="cls-5" d="M141.62,242.54v-14.83h3.92l3.08,5.43c.88,1.56,1.76,3.41,2.42,5.08h.07c-.22-1.96-.29-3.96-.29-6.18v-4.33h3.08v14.83h-3.52l-3.17-5.72c-.88-1.58-1.85-3.5-2.57-5.24l-.07,.02c.09,1.96,.13,4.05,.13,6.47v4.47h-3.08Z"/><path class="cls-5" d="M161.24,227.91c1.03-.18,2.49-.31,4.53-.31s3.54,.4,4.53,1.19c.95,.75,1.58,1.98,1.58,3.43s-.48,2.68-1.36,3.52c-1.14,1.08-2.84,1.56-4.82,1.56-.44,0-.84-.02-1.14-.07v5.3h-3.32v-14.63Zm3.32,6.73c.29,.07,.64,.09,1.12,.09,1.78,0,2.88-.9,2.88-2.42,0-1.36-.95-2.18-2.62-2.18-.68,0-1.14,.07-1.39,.13v4.38Z"/><path class="cls-5" d="M174.03,227.91c1.08-.18,2.68-.31,4.47-.31,2.2,0,3.74,.33,4.8,1.17,.88,.7,1.36,1.74,1.36,3.1,0,1.89-1.34,3.19-2.62,3.65v.07c1.03,.42,1.61,1.41,1.98,2.77,.46,1.67,.92,3.61,1.21,4.18h-3.43c-.24-.42-.59-1.63-1.03-3.45-.4-1.85-1.03-2.35-2.4-2.38h-1.01v5.83h-3.32v-14.63Zm3.32,6.38h1.32c1.67,0,2.66-.84,2.66-2.13,0-1.36-.92-2.05-2.46-2.07-.81,0-1.28,.07-1.52,.11v4.09Z"/><path class="cls-5" d="M200.56,234.97c0,4.86-2.95,7.81-7.28,7.81s-6.97-3.32-6.97-7.55c0-4.44,2.84-7.77,7.22-7.77s7.04,3.41,7.04,7.5Zm-10.72,.2c0,2.9,1.36,4.95,3.61,4.95s3.56-2.16,3.56-5.04c0-2.66-1.28-4.95-3.59-4.95s-3.59,2.16-3.59,5.04Z"/><path class="cls-5" d="M215.15,241.86c-1.03,.35-2.99,.84-4.95,.84-2.71,0-4.67-.68-6.03-2-1.36-1.28-2.11-3.21-2.09-5.39,.02-4.93,3.61-7.75,8.47-7.75,1.91,0,3.39,.37,4.11,.73l-.7,2.68c-.81-.35-1.83-.64-3.45-.64-2.79,0-4.91,1.58-4.91,4.8s1.91,4.86,4.66,4.86c.77,0,1.39-.09,1.65-.22v-3.1h-2.29v-2.62h5.52v7.81Z"/><path class="cls-5" d="M217.76,227.91c1.08-.18,2.68-.31,4.47-.31,2.2,0,3.74,.33,4.8,1.17,.88,.7,1.36,1.74,1.36,3.1,0,1.89-1.34,3.19-2.62,3.65v.07c1.03,.42,1.61,1.41,1.98,2.77,.46,1.67,.92,3.61,1.21,4.18h-3.43c-.24-.42-.59-1.63-1.03-3.45-.4-1.85-1.03-2.35-2.4-2.38h-1.01v5.83h-3.32v-14.63Zm3.32,6.38h1.32c1.67,0,2.66-.84,2.66-2.13,0-1.36-.92-2.05-2.46-2.07-.81,0-1.28,.07-1.52,.11v4.09Z"/><path class="cls-5" d="M239.63,236.27h-5.46v3.52h6.1v2.75h-9.46v-14.83h9.15v2.75h-5.79v3.08h5.46v2.73Z"/><path class="cls-5" d="M242.67,239.09c.9,.46,2.29,.92,3.72,.92,1.54,0,2.35-.64,2.35-1.61s-.7-1.45-2.49-2.09c-2.46-.86-4.07-2.22-4.07-4.38,0-2.53,2.11-4.47,5.61-4.47,1.67,0,2.9,.35,3.78,.75l-.75,2.71c-.59-.29-1.65-.7-3.1-.7s-2.16,.66-2.16,1.43c0,.95,.84,1.36,2.75,2.09,2.62,.97,3.85,2.33,3.85,4.42,0,2.49-1.91,4.6-5.98,4.6-1.69,0-3.37-.44-4.2-.9l.68-2.77Z"/><path class="cls-5" d="M254.55,239.09c.9,.46,2.29,.92,3.72,.92,1.54,0,2.35-.64,2.35-1.61s-.7-1.45-2.49-2.09c-2.46-.86-4.07-2.22-4.07-4.38,0-2.53,2.11-4.47,5.61-4.47,1.67,0,2.91,.35,3.79,.75l-.75,2.71c-.59-.29-1.65-.7-3.1-.7s-2.16,.66-2.16,1.43c0,.95,.84,1.36,2.75,2.09,2.62,.97,3.85,2.33,3.85,4.42,0,2.49-1.91,4.6-5.98,4.6-1.69,0-3.37-.44-4.2-.9l.68-2.77Z"/></g></svg>